<svg fill="none" height="auto" viewBox="0 0 478 478" width="478" xmlns="http://www.w3.org/2000/svg"><circle cx="239" cy="239" fill="#ffaa3e" r="239"/><path d="m194.831 196.924c-.238-.411-.622-.601-1.012-.445-12.378 3.032-27.235-2.862-33.693-13.811-2.754-4.651-3.808-9.803-3.088-15.089.65-4.696 2.219-9.58 5.416-13.072 2.346-2.589 5.513-4.349 9.02-4.453 3.425-.126 6.702 1.274 9.21 3.598 3.373 2.991 5.359 7.263 6.366 11.62.016.265.216.493.459.558.222.146.487.13.693.011l14.807-6.902c.206-.119.352-.341.498-.563.066-.243.028-.427-.172-.654-4.817-7.987-13.106-13.078-21.95-15.448-43.327-11.609-59.264 47.865-15.936 59.474 9.737 2.609 20.483 2.097 28.996-3.71.412-.237.542-.724.386-1.114zm19.979 17.616c13.063 3.5 25.633-1.22 29.307-14.932 3.675-13.712-4.954-24.025-17.936-27.503-12.901-3.457-25.39 1.284-29.042 14.915-3.674 13.712 4.689 24.041 17.671 27.52zm11.863-32.912c1.732 3.595 2.371 8.028 2.263 11.999-.189 3.95-1.016 8.337-2.99 11.809-1.155 2.038-3.214 4.53-5.882 4.424-2.667-.106-4.52-2.603-5.583-4.801-1.733-3.595-2.371-8.027-2.264-11.998.167-3.869 1.017-8.337 2.99-11.809 1.155-2.038 3.214-4.53 5.882-4.424 2.667.106 4.498 2.683 5.584 4.8zm38.111 44.128c-.147.222-.212.465-.115.752s.319.433.644.52l18.174 4.87c.244.065.509.049.737-.151.227-.2.292-.443.276-.708l-.643-5.39 5.697-21.258c1.396-.67 2.874-1.317 4.39-1.781 1.229-.366 3.848-1.056 5.016-.221.924.77.506 2.658.245 3.631l-5.696 21.258-3.816 5.152c-.146.222-.211.465-.114.752s.318.434.562.499l18.175 4.87c.324.087.589.071.817-.129.227-.2.293-.444.277-.709l-.643-5.39 6.413-23.935c1.022-3.814.702-7.813-2.016-10.976-1.599-1.82-3.719-2.997-6.072-3.627-3.224-.951-6.665-1.09-9.864.139-2.192.717-4.309 1.803-6.464 2.704-.368-4.795-3.735-8.132-8.5-9.496-3.305-.972-6.665-1.09-9.945.118-1.825.642-3.53 1.489-5.295 2.234l1.131-4.219c.065-.244.049-.509-.151-.736-.119-.206-.34-.353-.606-.337l-14.874.015c-.022.081-.022.081-.022.081l-3.079.132c-.346-.006-.552.113-.698.334-.168.303-.153.568-.056.855l1.862 4.412-6.435 24.017-3.816 5.152c-.227.2-.211.465-.114.752s.318.433.562.499l18.256 4.891c.324.087.59.071.817-.129.146-.221.293-.443.277-.708l-.81-6.391c1.827-6.816 3.734-13.61 5.582-20.506 1.375-.589 2.75-1.177 4.185-1.662 1.228-.366 3.951-1.115 5.016-.221.924.769.505 2.657.244 3.631l-5.696 21.258zm67.974 20.388c13.063 3.5 25.633-1.22 29.307-14.932s-4.955-24.025-17.937-27.503c-12.9-3.457-25.389 1.284-29.042 14.915-3.674 13.712 4.69 24.041 17.672 27.52zm11.862-32.912c1.733 3.595 2.371 8.028 2.264 11.999-.189 3.95-1.017 8.337-2.99 11.809-1.155 2.038-3.214 4.53-5.882 4.424-2.667-.106-4.52-2.603-5.584-4.801-1.732-3.595-2.371-8.027-2.263-11.998.167-3.869 1.016-8.337 2.99-11.809 1.155-2.038 3.214-4.53 5.882-4.424 2.667.106 4.498 2.683 5.583 4.8zm-200.764 60.91 5.196-19.392c5.022-18.743-23.421-24.886-36.718-22.97-.184.038-.39.157-.536.378-.147.222-.19.384-.174.649l1.57 8.422c.118.205.237.411.459.558.221.146.487.13.692.011 5.311-1.968 15.135-4.554 19.598.208 1.081 1.159 1.052 2.89.801 4.475-.081-.021-.162-.043-.243-.065-8.276-2.217-17.907-2.624-25.504 2.037-4.901 3.035-8.7 8.452-7.885 14.497s5.93 9.676 11.528 11.176c5.112 1.37 10.084 1.311 14.865-.626l-.674 2.516c-.131.486.107.898.594 1.028l16.146 4.327c.325.087.59.071.817-.129.147-.222.293-.443.277-.709zm-12.808-13.867c-.826 3.083-2.966 5.553-6.019 6.561-1.927.702-4.8.714-6.238-1.062-.799-.91-.841-2.052-.618-3.21.577-2.802 2.739-5.353 5.089-6.984 2.865-1.929 6.177-2.606 9.591-2.04zm23.894-8.034-8.739 32.618-1.196 4.462c-.022.081-.022.081-.044.163-.761 2.839-2.57 5.05-5.261 6.329-.287.098-.455.4-.461.747-.006.346.194.573.497.741 1.617.782 3.521 1.466 5.349 1.782 6.946 1.339 14.221-1.147 16.2-8.53l11.74-43.815c.065-.243-.032-.53-.151-.736-.2-.227-.421-.373-.686-.358l-14.794.037c-.103.059-.103.059-.103.059l-3.079.132c-.265.016-.471.135-.698.334-.147.222-.131.487-.115.752zm21.843-16.931c1.239-4.625-1.434-9.255-6.059-10.494l-.081-.022c-4.625-1.239-9.254 1.434-10.493 6.059-1.218 4.543 1.455 9.173 5.999 10.391l.081.021.081.022c4.603 1.32 9.254-1.434 10.472-5.977zm11.173 42.562 3.369-12.577 3.414-12.738c.065-.244.049-.509-.07-.715-.2-.227-.421-.374-.686-.358l-14.875.015c-.022.081-.022.081-.022.081l-3.079.132c-.265.016-.552.113-.698.334-.147.222-.212.465-.115.752l1.541 5.283-5.196 19.392c-1.935 7.221 1.251 12.858 8.413 14.69 2.921.783 5.81 1.035 8.695.33 2.495-.549 4.774-1.591 7.113-2.529l-1.131 4.219c-.13.487.108.898.594 1.028l16.309 4.37c.325.087.59.071.817-.128.147-.222.293-.444.277-.709l-.809-6.391 8.805-32.861c.065-.243.049-.509-.151-.736-.119-.206-.34-.352-.606-.336l-14.874.014c-.022.081-.022.081-.022.081l-3.079.132c-.346-.006-.552.113-.698.335-.147.221-.212.465-.115.752l1.541 5.283-4.522 16.876c-1.478.648-3.177 1.149-4.671 1.531-1.391.323-4.438.985-5.6-.196-.925-.769-.652-2.435-.391-3.409zm67.396-6.378c-2.403-3.688-5.972-5.948-10.207-7.344-1.903-.684-3.835-.941-5.81-1.035-4.583-.098-9.048 1.315-12.72 3.983-4.105 2.988-6.827 7.302-8.153 12.252-2.522 9.412 1.637 20.179 10.051 25.129 2.763 1.697 5.927 2.545 9.206 2.641 3.138-.029 6.088-.978 8.741-2.441l-.848 3.165c-.13.486.189.92.594 1.028l16.228 4.349c.243.065.509.049.736-.151.228-.2.293-.443.277-.709l-.728-6.369 13.131-49.007c.065-.244-.032-.531-.151-.736-.199-.228-.443-.293-.686-.358l-14.816.117-.081-.022-3.079.132c-.265.016-.471.135-.617.356-.227.2-.212.466-.196.731l1.542 5.283zm-6.904 22.847c-1.112 1.877-2.916 3.741-5.286 4.15-.287.097-.633.091-.98.085-.346-.006-.671-.093-1.076-.202-2.213-.505-3.85-2.509-4.897-4.442-1.479-2.919-1.951-6.35-1.796-9.526.058-3.463.755-7.363 2.739-10.223 1.274-1.833 3.088-3.086 5.291-3.192 2.445-.04 4.64 1.505 5.953 3.422 2.15 3.011 2.778 6.832 2.677 10.457-.156 3.176-.907 6.627-2.625 9.471zm61.89 24.411 5.196-19.392c5.022-18.743-23.421-24.886-36.718-22.97-.184.037-.39.156-.536.378-.146.221-.19.384-.174.649l1.57 8.421c.119.206.238.412.459.558.222.146.487.13.693.012 5.31-1.969 15.134-4.555 19.598.207 1.081 1.159 1.052 2.891.801 4.476-.081-.022-.162-.044-.244-.065-8.276-2.218-17.907-2.625-25.504 2.036-4.9 3.035-8.7 8.452-7.884 14.497.815 6.045 5.929 9.677 11.528 11.177 5.111 1.369 10.084 1.31 14.864-.626l-.674 2.515c-.13.487.107.898.594 1.029l16.147 4.326c.324.087.589.071.817-.129.146-.221.293-.443.277-.708zm-12.807-13.868c-.826 3.083-2.966 5.554-6.019 6.562-1.928.701-4.801.714-6.238-1.063-.8-.91-.842-2.051-.618-3.209.577-2.802 2.739-5.354 5.089-6.985 2.865-1.928 6.177-2.606 9.59-2.039zm15.983 20.893c-.228.2-.212.465-.115.752s.319.433.563.498l18.499 4.957c.325.087.59.071.817-.129.228-.2.293-.443.277-.708l-.809-6.391 5-18.662c.065-.244.212-.465.277-.709 1.133-1.957 4.137-2.457 6.193-2.341 3.051.296 5.836 1.912 7.277 4.646.178.309.562.499.93.423.266-.015.596-.275.683-.599l3.304-12.333c.087-.325-.069-.715-.372-.883-2.298-1.485-5.062-1.878-7.735-1.638-2.409.225-5.212.952-7.535 2.156l.783-2.921c.065-.244.049-.509-.07-.715-.2-.227-.421-.373-.687-.358l-14.874.015c-.022.081-.022.081-.022.081l-3.079.132c-.265.016-.552.113-.698.335-.147.221-.212.465-.115.751l1.541 5.283-6.218 23.206z" fill="#fff9f3"/></svg>