<svg height="auto" viewBox="0 0 478 478" fill="none" xmlns="http://www.w3.org/2000/svg">
<path d="M478 239C478 370.996 370.996 478 239 478C107.004 478 0 370.996 0 239C0 107.004 107.004 0 239 0C370.996 0 478 107.004 478 239Z" fill="#FFAA3E"/>
<path d="M212.38 164.562C212.317 164.304 212.17 164.039 212.009 163.942C205.282 159.604 199.256 157.008 191.302 156.363C185.023 155.854 178.293 156.74 172.874 160.177C169.321 162.418 166.517 165.814 165.668 170.043C165.17 172.026 165.259 174.055 165.765 176.119C168.596 187.979 186.959 192.249 194.401 201.28C195.318 202.45 196.13 203.865 196.349 205.315C196.539 206.089 196.535 207.184 196.055 207.904C195.673 208.463 195.13 208.924 194.509 209.295C192.204 210.71 188.889 210.019 186.508 209.236C182.815 208.01 179.287 205.785 176.185 203.511C173.334 201.257 170.517 198.585 168.306 195.709C168.159 195.444 167.915 195.34 167.663 195.319C167.322 195.376 167.148 195.446 166.96 195.684L157.824 206.488C157.727 206.649 157.623 206.893 157.686 207.151C157.666 207.403 157.82 207.584 157.974 207.765C164.898 212.793 173.347 216.681 181.887 217.373C190.176 218.046 199.23 217.6 205.837 211.984C209.374 208.9 211.703 205.128 211.755 200.328C211.83 199.407 211.653 198.466 211.477 197.525C209.766 190.559 201.767 185.275 196.074 181.696C193.915 180.256 191.666 178.894 189.417 177.532C187.496 176.28 185.498 174.938 183.674 173.526C182.087 172.302 180.709 170.589 180.196 168.609C179.802 167.229 179.918 165.805 180.773 164.611C181.816 163.178 183.538 162.728 185.213 162.864C192.413 163.448 198.545 169.929 201.405 176.229C201.552 176.493 201.79 176.681 202.125 176.708C202.376 176.729 202.634 176.665 202.906 176.435L212.159 165.218C212.346 164.98 212.444 164.82 212.38 164.562Z" fill="#FFF9F3"/>
<path d="M230.601 204.385L245.11 201.095L254.641 198.919L257.646 198.235C257.995 198.095 258.273 197.781 258.307 197.362C258.475 184.903 251.994 178.562 239.603 177.557C226.291 176.477 214.942 183.394 213.801 197.46C212.654 211.61 222.739 220.265 236.135 221.352C243.335 221.936 250.95 220.531 256.177 215.308C256.456 214.994 256.489 214.575 256.265 214.22C256.041 213.865 255.546 213.74 255.197 213.881C252.215 215.324 248.889 215.813 245.623 215.548C244.619 215.467 243.704 215.308 242.713 215.059C237.416 213.871 231.988 210.144 230.671 204.559C230.677 204.476 230.677 204.476 230.601 204.385ZM229.499 198.228C229.254 195.006 229.456 191.482 230.538 188.536C231.3 186.407 232.676 183.99 234.928 183.246C235.102 183.176 235.353 183.196 235.527 183.126C240.137 182.404 242.63 186.989 243.329 190.838C243.556 192.205 243.608 193.641 243.415 194.974L229.499 198.228Z" fill="#FFF9F3"/>
<path d="M263.047 191.341L260.317 224.999L259.944 229.604C259.937 229.688 259.937 229.688 259.93 229.771C259.693 232.702 258.31 235.202 255.893 236.944C255.628 237.091 255.518 237.42 255.574 237.761C255.631 238.103 255.868 238.291 256.196 238.402C257.927 238.879 259.923 239.21 261.779 239.192C268.852 239.26 275.562 235.506 276.18 227.887L279.847 182.675C279.867 182.424 279.72 182.159 279.566 181.978C279.329 181.79 279.084 181.686 278.826 181.75L264.281 184.447C264.19 184.524 264.19 184.524 264.19 184.524L261.185 185.207C260.927 185.27 260.746 185.424 260.558 185.662C260.454 185.906 260.518 186.164 260.581 186.422L263.047 191.341ZM281.488 170.757C281.875 165.985 278.413 161.911 273.64 161.524L273.557 161.517C268.784 161.13 264.711 164.592 264.324 169.365C263.944 174.053 267.406 178.127 272.094 178.507L272.178 178.514L272.262 178.52C277.027 178.991 281.107 175.445 281.488 170.757Z" fill="#FFF9F3"/>
<path d="M324.562 220.434L326.185 200.423C327.754 181.083 298.67 180.157 285.934 184.433C285.76 184.503 285.579 184.657 285.475 184.901C285.371 185.146 285.357 185.313 285.42 185.571L288.48 193.573C288.633 193.754 288.787 193.935 289.032 194.039C289.276 194.143 289.534 194.08 289.715 193.926C294.585 191.034 303.783 186.724 309.031 190.605C310.303 191.55 310.585 193.259 310.624 194.863C310.54 194.856 310.456 194.85 310.373 194.843C301.833 194.15 292.286 195.483 285.651 201.434C281.376 205.301 278.613 211.313 280.502 217.113C282.392 222.913 288.076 225.565 293.853 226.033C299.128 226.461 304.009 225.509 308.362 222.744L308.152 225.339C308.111 225.841 308.419 226.204 308.921 226.244L325.582 227.596C325.917 227.623 326.175 227.559 326.363 227.322C326.467 227.078 326.571 226.833 326.508 226.575L324.562 220.434ZM309.469 209.096C309.211 212.278 307.55 215.093 304.728 216.634C302.959 217.67 300.135 218.2 298.402 216.711C297.451 215.959 297.205 214.844 297.216 213.665C297.279 210.805 298.947 207.906 300.966 205.878C303.437 203.466 306.573 202.204 310.033 202.147L309.469 209.096Z" fill="#FFF9F3"/>
<path d="M86.1931 289C89.3044 292.202 93.1309 293.86 97.6384 294.395C99.6342 294.725 101.574 294.714 103.54 294.368C107.982 293.632 112.198 291.53 115.336 288.161C118.837 284.484 120.738 279.75 121.152 274.643C121.933 265.014 115.912 255.087 106.745 251.731C103.638 250.552 100.373 250.287 97.2074 250.873C94.1322 251.382 91.4009 252.846 88.9706 254.756L89.2354 251.491C89.2762 250.988 88.9684 250.626 88.4661 250.586L88.1312 250.558C88.0474 250.552 87.9637 250.545 87.7895 250.615L87.2735 250.742L73.6693 253.262C73.6625 253.346 73.6625 253.346 73.6625 253.346L70.6574 254.029C70.3994 254.093 70.1347 254.24 70.0306 254.484C69.9265 254.728 69.9061 254.98 70.0532 255.244L72.5195 260.164L68.7235 306.966C68.7031 307.217 68.7664 307.475 69.004 307.663C69.1579 307.844 69.486 307.955 69.744 307.892L84.2964 305.111L87.3852 304.435C87.6432 304.371 87.8242 304.217 87.9283 303.973C88.0324 303.729 88.0528 303.477 87.9057 303.213L85.4393 298.293L86.1931 289ZM88.8684 265.367C89.7148 263.244 91.154 261.085 93.4124 260.257C93.6703 260.194 94.0188 260.054 94.2768 259.99C94.7022 259.94 95.0371 259.968 95.4557 260.002C97.7231 260.101 99.694 261.778 101.072 263.491C102.968 266.089 104.133 269.386 104.552 272.538C105.034 275.948 105.127 280.001 103.69 283.171C102.773 285.119 101.207 286.762 99.0665 287.178C96.5841 287.651 94.2308 286.533 92.5111 284.877C89.9315 282.392 88.549 278.656 88.0807 275.079C87.5784 271.92 87.6962 268.39 88.8684 265.367Z" fill="#FFF9F3"/>
<path d="M165.776 291.831L167.399 271.82C168.968 252.48 139.883 251.554 127.148 255.83C126.974 255.9 126.793 256.054 126.689 256.298C126.585 256.543 126.571 256.71 126.634 256.968L129.693 264.97C129.847 265.151 130.001 265.332 130.246 265.436C130.49 265.54 130.748 265.477 130.929 265.323C135.799 262.431 144.997 258.12 150.245 262.001C151.516 262.947 151.799 264.656 151.838 266.26C151.754 266.253 151.67 266.247 151.586 266.24C143.046 265.547 133.499 266.88 126.865 272.831C122.59 276.698 119.827 282.71 121.716 288.51C123.606 294.31 129.29 296.962 135.067 297.43C140.341 297.858 145.222 296.906 149.576 294.141L149.366 296.736C149.325 297.238 149.633 297.6 150.135 297.641L166.796 298.993C167.131 299.02 167.389 298.956 167.577 298.719C167.681 298.474 167.785 298.23 167.722 297.972L165.776 291.831ZM150.683 280.493C150.425 283.675 148.764 286.49 145.942 288.031C144.173 289.067 141.349 289.597 139.615 288.108C138.665 287.356 138.418 286.241 138.43 285.062C138.493 282.201 140.161 279.303 142.179 277.275C144.651 274.863 147.787 273.601 151.247 273.544L150.683 280.493Z" fill="#FFF9F3"/>
<path d="M170.164 298.17C169.976 298.408 170.039 298.666 170.186 298.93C170.333 299.195 170.578 299.299 170.829 299.32L189.918 300.868C190.253 300.895 190.511 300.832 190.699 300.594C190.887 300.357 190.907 300.105 190.844 299.847L188.898 293.706L190.46 274.449C190.48 274.198 190.584 273.954 190.605 273.703C191.367 271.573 194.232 270.541 196.275 270.286C199.33 270.028 202.36 271.116 204.27 273.547C204.501 273.818 204.913 273.936 205.261 273.796C205.519 273.732 205.797 273.418 205.825 273.083L206.857 260.357C206.884 260.022 206.66 259.667 206.332 259.556C203.804 258.508 201.014 258.619 198.428 259.336C196.099 259.99 193.472 261.209 191.404 262.811L191.648 259.797C191.669 259.546 191.605 259.288 191.451 259.107C191.214 258.919 190.969 258.815 190.711 258.879L176.082 261.569C176.075 261.652 176.075 261.652 176.075 261.652L173.07 262.336C172.812 262.399 172.547 262.546 172.443 262.791C172.339 263.035 172.319 263.286 172.466 263.551L174.932 268.47L172.99 292.416L170.164 298.17Z" fill="#FFF9F3"/>
<path d="M250.604 269.636C250.625 269.385 250.561 269.127 250.408 268.946C246.009 263.954 239.356 261.813 232.825 261.283C219.513 260.203 208.081 267.114 206.94 281.18C205.793 295.329 215.878 303.985 229.274 305.071C236.474 305.655 244.089 304.25 249.316 299.028C249.594 298.713 249.628 298.295 249.404 297.939C249.18 297.584 248.685 297.46 248.336 297.6C245.354 299.044 242.027 299.532 238.762 299.267C237.757 299.186 236.843 299.028 235.852 298.779C227.491 296.921 223.094 289.822 222.49 281.682C222.253 278.376 222.726 274.622 223.982 271.606C224.815 269.651 226.365 267.164 228.666 266.845C232.167 266.286 235.05 270.228 236.52 272.876C237.242 274.367 237.88 275.851 238.344 277.406C238.491 277.671 238.638 277.936 238.889 277.956C239.218 278.067 239.475 278.003 239.657 277.85L250.222 270.195C250.487 270.048 250.584 269.887 250.604 269.636Z" fill="#FFF9F3"/>
<path d="M267.015 291.614L281.524 288.325L291.055 286.148L294.06 285.465C294.409 285.324 294.687 285.01 294.721 284.591C294.889 272.132 288.408 265.791 276.017 264.786C262.705 263.707 251.356 270.624 250.216 284.69C249.068 298.839 259.153 307.495 272.549 308.581C279.75 309.165 287.364 307.76 292.591 302.538C292.87 302.223 292.904 301.805 292.68 301.449C292.456 301.094 291.96 300.97 291.612 301.11C288.629 302.554 285.303 303.042 282.037 302.777C281.033 302.696 280.119 302.538 279.127 302.289C273.83 301.1 268.402 297.373 267.085 291.789C267.092 291.705 267.092 291.705 267.015 291.614ZM265.913 285.457C265.669 282.235 265.87 278.712 266.952 275.765C267.714 273.636 269.09 271.219 271.342 270.475C271.516 270.405 271.767 270.425 271.942 270.355C276.551 269.633 279.045 274.218 279.744 278.067C279.97 279.434 280.022 280.871 279.83 282.204L265.913 285.457Z" fill="#FFF9F3"/>
<path d="M312.674 303.745L315.424 269.837C315.444 269.586 315.381 269.328 315.227 269.147C314.989 268.959 314.745 268.855 314.487 268.918L299.858 271.608C299.851 271.692 299.851 271.692 299.851 271.692L296.846 272.375C296.588 272.438 296.323 272.586 296.219 272.83C296.115 273.074 296.095 273.325 296.242 273.59L298.708 278.51L296.766 302.455L293.939 308.209C293.752 308.447 293.815 308.705 293.962 308.97C294.109 309.234 294.353 309.339 294.605 309.359L313.694 310.907C314.029 310.934 314.287 310.871 314.475 310.633C314.662 310.396 314.683 310.145 314.619 309.887L312.674 303.745ZM299.566 256.499C299.186 261.188 302.732 265.268 307.42 265.648L307.504 265.655L307.588 265.662C312.27 266.126 316.433 262.587 316.814 257.898C317.201 253.126 313.655 249.046 308.966 248.665L308.883 248.659L308.799 248.652C304.11 248.271 299.953 251.727 299.566 256.499Z" fill="#FFF9F3"/>
<path d="M318.164 310.174C317.976 310.412 318.04 310.67 318.187 310.935C318.334 311.199 318.578 311.303 318.829 311.324L337.919 312.872C338.253 312.899 338.511 312.836 338.699 312.598C338.887 312.361 338.907 312.11 338.844 311.852L336.898 305.71L338.46 286.453C338.481 286.202 338.585 285.958 338.605 285.707C339.368 283.577 342.232 282.546 344.276 282.29C347.331 282.032 350.361 283.121 352.27 285.551C352.501 285.822 352.913 285.94 353.261 285.8C353.519 285.737 353.798 285.422 353.825 285.087L354.857 272.361C354.884 272.026 354.66 271.671 354.332 271.56C351.805 270.512 349.015 270.623 346.428 271.34C344.1 271.994 341.472 273.214 339.404 274.816L339.649 271.802C339.669 271.55 339.606 271.292 339.452 271.111C339.214 270.924 338.97 270.819 338.712 270.883L324.082 273.573C324.076 273.657 324.076 273.657 324.076 273.657L321.071 274.34C320.813 274.403 320.548 274.55 320.444 274.795C320.34 275.039 320.319 275.29 320.466 275.555L322.933 280.475L320.99 304.42L318.164 310.174Z" fill="#FFF9F3"/>
<path d="M376.048 316.976C389.528 318.069 401.043 311.166 402.191 297.016C403.339 282.867 392.995 274.274 379.599 273.188C366.287 272.108 354.855 279.018 353.714 293.084C352.566 307.234 362.652 315.889 376.048 316.976ZM381.796 282.468C384.147 285.692 385.573 289.938 386.181 293.864C386.706 297.783 386.681 302.247 385.364 306.017C384.595 308.23 383.017 311.052 380.374 311.428C377.731 311.803 375.46 309.681 374.018 307.71C371.667 304.485 370.242 300.24 369.633 296.314C369.102 292.478 369.133 287.93 370.45 284.16C371.22 281.947 372.797 279.125 375.44 278.75C378.083 278.374 380.348 280.581 381.796 282.468Z" fill="#FFF9F3"/>
</svg>
