<svg viewBox="0 0 478 478" fill="none" xmlns="http://www.w3.org/2000/svg">
<circle cx="239" cy="239" r="239" fill="#FFAA3E"/>
<path d="M212.381 164.562C212.318 164.304 212.171 164.039 212.01 163.942C205.283 159.604 199.257 157.008 191.303 156.363C185.024 155.854 178.294 156.74 172.874 160.177C169.322 162.418 166.518 165.814 165.669 170.043C165.171 172.026 165.259 174.055 165.766 176.119C168.597 187.979 186.96 192.249 194.402 201.28C195.318 202.45 196.131 203.865 196.35 205.315C196.54 206.089 196.536 207.184 196.056 207.904C195.673 208.463 195.13 208.924 194.51 209.295C192.204 210.71 188.889 210.019 186.509 209.236C182.816 208.01 179.288 205.785 176.186 203.511C173.335 201.257 170.518 198.585 168.307 195.709C168.16 195.444 167.915 195.34 167.664 195.319C167.323 195.376 167.148 195.446 166.961 195.684L157.825 206.488C157.728 206.649 157.624 206.893 157.687 207.151C157.667 207.403 157.821 207.584 157.974 207.765C164.899 212.793 173.348 216.681 181.888 217.373C190.177 218.046 199.23 217.6 205.838 211.984C209.375 208.9 211.703 205.128 211.756 200.328C211.83 199.407 211.654 198.466 211.477 197.525C209.767 190.559 201.768 185.276 196.075 181.696C193.916 180.256 191.667 178.894 189.418 177.532C187.496 176.28 185.498 174.938 183.675 173.526C182.088 172.302 180.71 170.589 180.197 168.609C179.803 167.229 179.918 165.805 180.774 164.611C181.817 163.178 183.539 162.728 185.214 162.864C192.414 163.448 198.546 169.929 201.406 176.229C201.553 176.493 201.791 176.681 202.126 176.708C202.377 176.729 202.635 176.665 202.906 176.435L212.159 165.218C212.347 164.98 212.445 164.82 212.381 164.562ZM230.601 204.385L245.111 201.095L254.642 198.919L257.647 198.235C257.996 198.095 258.274 197.781 258.308 197.362C258.476 184.903 251.995 178.562 239.604 177.557C226.291 176.477 214.943 183.394 213.802 197.46C212.655 211.61 222.74 220.265 236.136 221.352C243.336 221.936 250.951 220.531 256.178 215.309C256.456 214.994 256.49 214.575 256.266 214.22C256.042 213.865 255.547 213.74 255.198 213.881C252.216 215.324 248.889 215.813 245.624 215.548C244.619 215.467 243.705 215.308 242.714 215.059C237.417 213.871 231.988 210.144 230.672 204.559C230.678 204.476 230.678 204.476 230.601 204.385ZM229.5 198.228C229.255 195.006 229.457 191.482 230.538 188.536C231.301 186.407 232.677 183.99 234.929 183.246C235.103 183.176 235.354 183.196 235.528 183.126C240.138 182.404 242.631 186.989 243.33 190.838C243.556 192.205 243.608 193.641 243.416 194.974L229.5 198.228ZM263.048 191.341L260.318 224.999L259.945 229.604C259.938 229.688 259.938 229.688 259.931 229.771C259.693 232.702 258.311 235.202 255.894 236.944C255.629 237.091 255.518 237.42 255.575 237.761C255.631 238.103 255.869 238.291 256.197 238.402C257.928 238.879 259.924 239.21 261.78 239.192C268.853 239.26 275.563 235.506 276.181 227.887L279.848 182.675C279.868 182.424 279.721 182.159 279.567 181.978C279.33 181.79 279.085 181.686 278.827 181.75L264.282 184.447C264.191 184.524 264.191 184.524 264.191 184.524L261.186 185.207C260.928 185.27 260.747 185.424 260.559 185.662C260.455 185.906 260.518 186.164 260.582 186.422L263.048 191.341ZM281.489 170.757C281.876 165.985 278.414 161.911 273.641 161.524L273.558 161.517C268.785 161.13 264.712 164.592 264.325 169.365C263.945 174.053 267.407 178.127 272.095 178.507L272.179 178.514L272.263 178.52C277.028 178.991 281.108 175.445 281.489 170.757ZM324.563 220.434L326.186 200.423C327.755 181.083 298.67 180.157 285.935 184.433C285.761 184.503 285.58 184.657 285.476 184.901C285.371 185.146 285.358 185.313 285.421 185.571L288.48 193.573C288.634 193.754 288.788 193.935 289.033 194.039C289.277 194.143 289.535 194.08 289.716 193.926C294.586 191.034 303.784 186.724 309.032 190.605C310.303 191.55 310.586 193.259 310.625 194.863C310.541 194.856 310.457 194.85 310.373 194.843C301.833 194.15 292.286 195.483 285.652 201.434C281.377 205.301 278.614 211.313 280.503 217.113C282.393 222.913 288.077 225.565 293.854 226.033C299.128 226.461 304.009 225.509 308.363 222.744L308.153 225.339C308.112 225.841 308.42 226.204 308.922 226.244L325.583 227.596C325.918 227.623 326.176 227.559 326.364 227.322C326.468 227.078 326.572 226.833 326.509 226.575L324.563 220.434ZM309.47 209.096C309.212 212.278 307.551 215.093 304.729 216.634C302.96 217.67 300.136 218.2 298.402 216.711C297.452 215.959 297.205 214.844 297.217 213.665C297.28 210.805 298.948 207.906 300.966 205.878C303.438 203.466 306.574 202.204 310.034 202.147L309.47 209.096ZM86.1939 289C89.3053 292.202 93.1317 293.86 97.6393 294.395C99.6351 294.725 101.574 294.714 103.541 294.368C107.983 293.632 112.198 291.53 115.337 288.161C118.838 284.484 120.739 279.75 121.153 274.643C121.934 265.014 115.913 255.087 106.746 251.731C103.639 250.552 100.374 250.287 97.2082 250.873C94.133 251.382 91.4017 252.846 88.9714 254.756L89.2362 251.491C89.277 250.988 88.9692 250.626 88.4669 250.586L88.132 250.558C88.0483 250.552 87.9645 250.545 87.7903 250.615L87.2744 250.742L73.6701 253.262C73.6633 253.346 73.6633 253.346 73.6633 253.346L70.6582 254.029C70.4002 254.093 70.1355 254.24 70.0314 254.484C69.9273 254.728 69.9069 254.98 70.054 255.244L72.5204 260.164L68.7243 306.966C68.7039 307.217 68.7673 307.475 69.0049 307.663C69.1587 307.844 69.4868 307.955 69.7448 307.892L84.2972 305.111L87.386 304.435C87.644 304.371 87.825 304.217 87.9291 303.973C88.0332 303.729 88.0536 303.477 87.9065 303.213L85.4401 298.293L86.1939 289ZM88.8693 265.367C89.7156 263.244 91.1549 261.085 93.4132 260.257C93.6712 260.194 94.0196 260.054 94.2776 259.99C94.703 259.94 95.0379 259.968 95.4566 260.002C97.7239 260.101 99.6948 261.778 101.073 263.491C102.969 266.089 104.134 269.386 104.553 272.538C105.035 275.948 105.127 280.001 103.69 283.171C102.774 285.119 101.208 286.762 99.0673 287.178C96.585 287.651 94.2316 286.533 92.5119 284.877C89.9323 282.392 88.5498 278.656 88.0815 275.079C87.5793 271.92 87.697 268.39 88.8693 265.367ZM165.777 291.831L167.4 271.82C168.969 252.48 139.884 251.554 127.149 255.83C126.975 255.9 126.794 256.054 126.689 256.298C126.585 256.543 126.572 256.71 126.635 256.968L129.694 264.97C129.848 265.151 130.002 265.332 130.246 265.436C130.491 265.54 130.749 265.477 130.93 265.323C135.799 262.431 144.998 258.12 150.245 262.001C151.517 262.947 151.8 264.656 151.838 266.26C151.755 266.253 151.671 266.247 151.587 266.24C143.047 265.547 133.5 266.88 126.865 272.831C122.591 276.698 119.828 282.71 121.717 288.51C123.606 294.31 129.291 296.962 135.068 297.43C140.342 297.858 145.223 296.906 149.577 294.141L149.367 296.736C149.326 297.238 149.634 297.6 150.136 297.641L166.797 298.993C167.132 299.02 167.39 298.956 167.578 298.719C167.682 298.474 167.786 298.23 167.723 297.972L165.777 291.831ZM150.684 280.493C150.426 283.675 148.765 286.49 145.943 288.031C144.174 289.067 141.349 289.597 139.616 288.108C138.666 287.356 138.419 286.241 138.431 285.062C138.494 282.201 140.162 279.303 142.18 277.275C144.651 274.863 147.788 273.601 151.248 273.544L150.684 280.493ZM170.164 298.17C169.977 298.408 170.04 298.666 170.187 298.93C170.334 299.195 170.579 299.299 170.83 299.32L189.919 300.868C190.254 300.895 190.512 300.832 190.7 300.594C190.888 300.357 190.908 300.105 190.845 299.847L188.899 293.706L190.461 274.449C190.481 274.198 190.585 273.954 190.605 273.703C191.368 271.573 194.233 270.541 196.276 270.286C199.331 270.028 202.361 271.116 204.271 273.547C204.502 273.818 204.913 273.936 205.262 273.796C205.52 273.732 205.798 273.418 205.825 273.083L206.858 260.357C206.885 260.022 206.661 259.667 206.333 259.556C203.805 258.508 201.015 258.619 198.428 259.336C196.1 259.99 193.473 261.209 191.405 262.811L191.649 259.797C191.669 259.546 191.606 259.288 191.452 259.107C191.215 258.919 190.97 258.815 190.712 258.879L176.083 261.569C176.076 261.652 176.076 261.652 176.076 261.652L173.071 262.336C172.813 262.399 172.548 262.546 172.444 262.791C172.34 263.035 172.32 263.286 172.467 263.551L174.933 268.47L172.991 292.416L170.164 298.17ZM250.605 269.636C250.626 269.385 250.562 269.127 250.408 268.946C246.01 263.954 239.357 261.813 232.826 261.283C219.514 260.203 208.082 267.114 206.941 281.18C205.793 295.329 215.879 303.985 229.275 305.071C236.475 305.655 244.09 304.25 249.317 299.028C249.595 298.713 249.629 298.295 249.405 297.939C249.181 297.584 248.686 297.46 248.337 297.6C245.355 299.044 242.028 299.532 238.763 299.267C237.758 299.186 236.844 299.028 235.853 298.779C227.492 296.921 223.095 289.822 222.491 281.682C222.254 278.376 222.727 274.622 223.983 271.606C224.816 269.651 226.366 267.164 228.667 266.845C232.168 266.286 235.05 270.228 236.521 272.876C237.243 274.367 237.881 275.851 238.345 277.406C238.492 277.671 238.639 277.936 238.89 277.956C239.218 278.067 239.476 278.003 239.657 277.85L250.223 270.195C250.488 270.048 250.585 269.887 250.605 269.636ZM267.016 291.614L281.525 288.325L291.056 286.148L294.061 285.465C294.41 285.324 294.688 285.01 294.722 284.591C294.89 272.132 288.409 265.791 276.018 264.786C262.706 263.707 251.357 270.624 250.216 284.69C249.069 298.839 259.154 307.495 272.55 308.581C279.75 309.165 287.365 307.76 292.592 302.538C292.871 302.223 292.905 301.805 292.681 301.449C292.456 301.094 291.961 300.97 291.612 301.11C288.63 302.554 285.304 303.042 282.038 302.777C281.034 302.696 280.119 302.538 279.128 302.289C273.831 301.1 268.403 297.373 267.086 291.789C267.093 291.705 267.093 291.705 267.016 291.614ZM265.914 285.457C265.669 282.235 265.871 278.712 266.953 275.765C267.715 273.636 269.091 271.219 271.343 270.475C271.517 270.405 271.768 270.425 271.942 270.355C276.552 269.633 279.045 274.218 279.744 278.067C279.971 279.434 280.023 280.871 279.83 282.204L265.914 285.457ZM312.674 303.745L315.425 269.837C315.445 269.586 315.382 269.328 315.228 269.147C314.99 268.959 314.746 268.855 314.488 268.918L299.859 271.608C299.852 271.692 299.852 271.692 299.852 271.692L296.847 272.375C296.589 272.438 296.324 272.586 296.22 272.83C296.116 273.074 296.095 273.325 296.242 273.59L298.709 278.51L296.767 302.455L293.94 308.209C293.752 308.447 293.816 308.705 293.963 308.97C294.11 309.234 294.354 309.339 294.605 309.359L313.695 310.907C314.03 310.934 314.288 310.871 314.475 310.633C314.663 310.396 314.684 310.145 314.62 309.887L312.674 303.745ZM299.567 256.499C299.187 261.188 302.733 265.268 307.421 265.648L307.505 265.655L307.589 265.662C312.27 266.126 316.434 262.587 316.814 257.898C317.201 253.126 313.656 249.046 308.967 248.665L308.883 248.659L308.8 248.652C304.111 248.271 299.954 251.727 299.567 256.499ZM318.165 310.174C317.977 310.412 318.04 310.67 318.187 310.935C318.335 311.199 318.579 311.303 318.83 311.324L337.919 312.872C338.254 312.899 338.512 312.836 338.7 312.598C338.888 312.361 338.908 312.11 338.845 311.852L336.899 305.71L338.461 286.453C338.481 286.202 338.585 285.958 338.606 285.707C339.368 283.577 342.233 282.546 344.277 282.29C347.331 282.032 350.361 283.121 352.271 285.551C352.502 285.822 352.914 285.94 353.262 285.8C353.52 285.736 353.799 285.422 353.826 285.087L354.858 272.361C354.885 272.026 354.661 271.671 354.333 271.56C351.805 270.512 349.015 270.623 346.429 271.34C344.1 271.994 341.473 273.214 339.405 274.816L339.649 271.802C339.67 271.55 339.606 271.292 339.453 271.111C339.215 270.924 338.971 270.819 338.713 270.883L324.083 273.573C324.076 273.657 324.076 273.657 324.076 273.657L321.071 274.34C320.813 274.403 320.549 274.55 320.445 274.795C320.34 275.039 320.32 275.29 320.467 275.555L322.934 280.475L320.991 304.42L318.165 310.174ZM376.049 316.976C389.528 318.069 401.044 311.166 402.192 297.016C403.339 282.867 392.996 274.274 379.6 273.188C366.288 272.108 354.856 279.018 353.715 293.084C352.567 307.234 362.653 315.889 376.049 316.976ZM381.797 282.468C384.148 285.692 385.574 289.938 386.182 293.864C386.707 297.783 386.682 302.247 385.365 306.017C384.596 308.23 383.018 311.052 380.375 311.428C377.732 311.803 375.46 309.681 374.019 307.71C371.668 304.485 370.243 300.24 369.634 296.314C369.102 292.478 369.134 287.93 370.451 284.16C371.221 281.947 372.798 279.125 375.441 278.75C378.084 278.374 380.349 280.581 381.797 282.468Z" fill="#FFF9F3"/>
</svg>
