<svg width="73" height="20" viewBox="0 0 73 20" fill="none" xmlns="http://www.w3.org/2000/svg">
<path d="M23.7383 5.8445C22.0492 5.8445 20.4675 6.64879 19.3951 8.01609V6.00536H16.5801L16.5801 19.8391H19.3951L19.3951 11.7962C19.3951 10.0536 20.7892 8.6059 22.5318 8.6059C24.2744 8.6059 25.6686 10.0536 25.6686 11.7962V19.8391H28.4568V11.689C28.4568 8.04289 26.3388 5.8445 23.7383 5.8445Z" fill="black" fill-opacity="0.3"/>
<path d="M33.0255 0C31.8995 0 31.0147 0.911528 31.0147 2.03753C31.0147 3.16354 31.8995 4.07507 33.0255 4.07507C34.1515 4.07507 35.0362 3.16354 35.0362 2.03753C35.0362 0.911528 34.1515 0 33.0255 0ZM34.3928 6.00536H31.6046V19.8391H34.3928V6.00536Z" fill="black" fill-opacity="0.3"/>
<path d="M38.2274 6.00536V8.57909L46.1094 8.57909V11.126H43.1603C39.2193 11.126 37.0745 13.0295 37.0745 15.8177C37.0745 18.311 39.1121 20 41.659 20C43.2676 20 44.9566 19.3834 46.1094 17.882V19.8391H48.8708V6.00536L38.2274 6.00536ZM42.4633 17.6676C41.0156 17.6676 39.9164 16.8365 39.9164 15.6568C39.9164 14.4504 40.7206 13.3244 43.5357 13.3244H46.1094C46.1094 16.3539 44.3131 17.6676 42.4633 17.6676Z" fill="black" fill-opacity="0.3"/>
<path d="M69.299 6.12792C68.8432 6.85178 64.1783 14.6266 63.6421 15.5381C63.6421 15.5113 63.6421 6.12792 63.6153 6.12792H60.559C60.5322 6.12792 55.3847 14.7338 54.9022 15.5649L54.8754 14.707L54.9022 6.12792H52.0872V19.9617H54.9022C55.626 18.7285 60.8271 10.0689 60.8539 10.0689V19.9617H63.6421C64.2587 18.9429 69.5671 10.0957 69.5939 10.0957V19.9617H72.3821V6.12792L69.299 6.12792Z" fill="black" fill-opacity="0.3"/>
<path d="M6.78284 3.01016C7.45308 3.01016 7.98928 3.17102 8.36461 3.33187V0.811766C7.90885 0.597288 7.10456 0.382812 6.21984 0.382812C3.86059 0.382812 2.11796 2.15225 2.11796 4.67236L2.11796 6.01284H0L0 8.45252H2.11796L2.11796 19.8466H4.90617L4.90617 8.45252L10.509 8.45252L10.509 6.01284H4.90617V4.72598C4.90617 3.54635 5.79088 3.01016 6.78284 3.01016Z" fill="black" fill-opacity="0.3"/>
<path d="M13.2972 6.01284L10.509 6.01284L10.509 19.8466H13.2972L13.2972 6.01284Z" fill="black" fill-opacity="0.3"/>
</svg>
