<svg viewBox="0 0 525 525" fill="none" xmlns="http://www.w3.org/2000/svg">
<rect x="192" width="384" height="384" rx="81.3753" transform="rotate(30 192 0)" fill="#6FCC58"/>
<path d="M213.735 224.492C213.461 224.104 213.061 223.951 212.687 224.142C200.64 228.299 185.304 223.795 177.867 213.486C174.697 209.108 173.174 204.074 173.405 198.745C173.621 194.009 174.735 189.001 177.597 185.23C179.695 182.437 182.687 180.393 186.169 179.967C189.568 179.527 192.961 180.62 195.671 182.704C199.305 185.372 201.675 189.443 203.078 193.689C203.118 193.952 203.338 194.16 203.587 194.202C203.821 194.328 204.083 194.287 204.277 194.15L218.387 185.916C218.581 185.778 218.707 185.544 218.832 185.31C218.875 185.062 218.82 184.882 218.6 184.674C213.07 177.163 204.348 172.856 195.323 171.309C151.112 163.731 140.71 224.418 184.921 231.996C194.856 233.699 205.51 232.202 213.454 225.637C213.842 225.363 213.927 224.866 213.735 224.492ZM235.249 240.197C248.579 242.482 260.662 236.627 263.06 222.635C265.458 208.643 255.918 199.167 242.671 196.896C229.507 194.64 217.507 200.509 215.123 214.418C212.725 228.41 222.002 237.926 235.249 240.197ZM244.036 206.334C246.092 209.755 247.135 214.11 247.393 218.074C247.568 222.025 247.147 226.47 245.501 230.108C244.538 232.244 242.717 234.914 240.051 235.054C237.385 235.194 235.311 232.878 234.05 230.787C231.994 227.366 230.951 223.011 230.693 219.047C230.503 215.179 230.939 210.652 232.585 207.014C233.548 204.878 235.369 202.207 238.035 202.067C240.701 201.928 242.761 204.326 244.036 206.334ZM286.042 246.772C285.917 247.007 285.874 247.255 285.997 247.532C286.12 247.809 286.354 247.934 286.685 247.991L305.231 251.17C305.479 251.212 305.742 251.172 305.95 250.952C306.158 250.732 306.201 250.484 306.161 250.221L305.025 244.913L308.743 223.221C310.073 222.426 311.485 221.646 312.951 221.045C314.141 220.567 316.687 219.64 317.926 220.363C318.917 221.045 318.674 222.963 318.503 223.957L314.785 245.648L311.459 251.129C311.334 251.363 311.291 251.612 311.414 251.889C311.537 252.165 311.772 252.291 312.02 252.333L330.566 255.512C330.897 255.569 331.159 255.529 331.367 255.309C331.576 255.089 331.618 254.84 331.578 254.578L330.442 249.27L334.629 224.846C335.296 220.955 334.61 217.002 331.613 214.102C329.853 212.436 327.634 211.46 325.233 211.048C321.935 210.398 318.496 210.575 315.423 212.094C313.306 213.009 311.298 214.284 309.235 215.38C308.428 210.639 304.769 207.626 299.898 206.705C296.518 206.041 293.161 206.232 290.006 207.737C288.248 208.544 286.628 209.544 284.939 210.448L285.677 206.143C285.72 205.894 285.679 205.632 285.459 205.424C285.322 205.23 285.088 205.104 284.825 205.145L270.015 206.526C270.001 206.609 270.001 206.609 270.001 206.609L266.947 207.023C266.602 207.049 266.408 207.186 266.282 207.42C266.143 207.737 266.183 208 266.306 208.277L268.565 212.499L264.364 237.006L261.039 242.487C260.831 242.707 260.871 242.969 260.994 243.246C261.117 243.523 261.351 243.648 261.599 243.691L280.228 246.884C280.559 246.941 280.821 246.9 281.03 246.68C281.155 246.446 281.28 246.212 281.24 245.949L279.847 239.66C281.039 232.705 282.314 225.765 283.52 218.727C284.835 218.015 286.15 217.303 287.534 216.688C288.724 216.21 291.366 215.214 292.509 216.007C293.5 216.688 293.256 218.606 293.086 219.6L289.368 241.292L286.042 246.772ZM355.602 260.826C368.932 263.111 381.015 257.256 383.413 243.264C385.811 229.272 376.271 219.796 363.024 217.526C349.86 215.269 337.86 221.138 335.476 235.048C333.078 249.04 342.356 258.556 355.602 260.826ZM364.389 226.964C366.445 230.385 367.488 234.739 367.746 238.704C367.921 242.654 367.5 247.099 365.854 250.737C364.891 252.873 363.07 255.544 360.404 255.684C357.738 255.823 355.664 253.508 354.403 251.416C352.347 247.996 351.304 243.641 351.046 239.677C350.857 235.809 351.292 231.281 352.938 227.643C353.901 225.507 355.722 222.837 358.388 222.697C361.054 222.557 363.114 224.956 364.389 226.964ZM144.558 269.735C144.601 269.487 144.463 269.293 144.243 269.085C139.744 265.501 135.444 263.741 129.731 262.762C125.26 261.996 120.276 261.738 116.165 263.846C114.656 264.695 113.187 265.807 112.035 267.058C110.105 269.369 108.723 272.456 108.709 275.522C108.813 276.904 109.083 278.313 109.726 279.532C110.807 281.677 112.539 283.508 114.23 285.076C115.496 286.145 116.776 287.132 118.055 288.118C119.487 289.216 120.863 290.134 122.309 291.148C123.603 292.052 124.799 293.024 125.996 293.996C127.042 294.857 129.27 296.773 129.001 298.346C128.547 300.996 125.152 300.414 123.373 299.853C122.325 299.503 121.223 298.973 120.412 298.238C116.944 295.598 114.282 291.733 111.813 288.241C111.593 288.033 111.441 287.922 111.193 287.879C110.945 287.837 110.668 287.96 110.474 288.097L102.358 296.166C102.233 296.4 102.122 296.551 102.162 296.814C102.119 297.062 102.256 297.256 102.394 297.45C107.056 301.573 112.856 304.528 119.066 305.592C128.339 307.182 139.752 305.729 141.668 294.552C142.789 288.011 138.28 283.489 133.353 279.917C131.702 278.611 129.939 277.457 128.177 276.302C126.718 275.37 125.204 274.259 123.952 273.107C121.684 270.928 121.603 267.42 125.577 268.101C129.469 268.768 133.488 274.656 135.697 277.677C135.82 277.953 136.054 278.079 136.317 278.038C136.565 278.081 136.745 278.027 136.953 277.807L144.362 270.384C144.57 270.164 144.598 269.998 144.558 269.735ZM160.53 296.507L162.73 283.674L164.958 270.675C165.001 270.427 164.96 270.165 164.823 269.971C164.603 269.762 164.369 269.637 164.106 269.677L149.296 271.059C149.282 271.142 149.282 271.142 149.282 271.142L146.228 271.556C145.966 271.596 145.689 271.719 145.563 271.953C145.438 272.187 145.395 272.436 145.519 272.713L147.539 277.831L144.147 297.619C142.884 304.987 146.574 310.307 153.874 311.473C156.855 311.984 159.755 311.97 162.563 311.002C164.997 310.227 167.171 308.98 169.413 307.83L168.675 312.135C168.59 312.632 168.864 313.02 169.361 313.105L186.002 315.958C186.334 316.014 186.596 315.974 186.804 315.754C186.93 315.52 187.055 315.286 187.015 315.023L185.621 308.734L191.369 275.203C191.411 274.954 191.371 274.692 191.151 274.483C191.014 274.289 190.78 274.164 190.517 274.204L175.707 275.586C175.693 275.669 175.693 275.669 175.693 275.669L172.639 276.083C172.294 276.109 172.1 276.246 171.974 276.48C171.849 276.714 171.806 276.963 171.929 277.24L173.95 282.358L170.998 299.579C169.586 300.36 167.939 301.015 166.487 301.533C165.131 301.983 162.158 302.922 160.892 301.853C159.901 301.172 160.019 299.487 160.19 298.494L160.53 296.507ZM190.467 315.615C190.259 315.835 190.299 316.098 190.422 316.374C190.545 316.651 190.779 316.776 191.027 316.819L209.904 320.055C210.235 320.111 210.498 320.071 210.706 319.851C210.914 319.631 210.957 319.383 210.917 319.12L209.523 312.831L212.787 293.788C212.83 293.54 212.955 293.306 212.998 293.057C213.946 291.004 216.891 290.23 218.949 290.157C222.015 290.171 224.936 291.524 226.623 294.114C226.829 294.405 227.229 294.559 227.588 294.45C227.851 294.41 228.156 294.121 228.213 293.79L230.37 281.206C230.426 280.875 230.235 280.501 229.918 280.361C227.493 279.093 224.704 278.956 222.064 279.441C219.687 279.886 216.962 280.868 214.76 282.28L215.271 279.3C215.313 279.051 215.273 278.789 215.136 278.595C214.916 278.386 214.682 278.261 214.419 278.301L199.609 279.683C199.595 279.766 199.595 279.766 199.595 279.766L196.541 280.18C196.278 280.22 196.001 280.343 195.876 280.577C195.751 280.811 195.708 281.06 195.831 281.337L197.851 286.455L193.793 310.134L190.467 315.615ZM263.891 346.865L269.107 347.759C270.183 347.943 270.583 348.097 271.028 347.492C277.488 339.139 274.426 326.171 261.333 326.484C255.353 326.567 246.055 327.615 241.097 327.702C235.088 327.951 235.355 320.923 240.605 320.63C246.268 320.407 250.996 322.155 256.397 321.973C262.225 321.779 267.881 320.106 272.084 315.969C278.161 309.852 278.549 300.629 273.333 293.769C275.505 293.033 278.088 292.879 280.366 293.014C280.959 293.031 281.39 292.508 281.227 291.969L278.253 280.976C278.09 280.437 277.621 280.186 277.165 280.364C273.07 281.878 269.908 284.915 267.502 288.508C264.032 286.379 259.991 285.09 255.935 284.395C231.097 280.137 221.593 301.775 234.13 314.151C227.992 315.655 221.146 323.771 223.403 331.488C225.142 337.751 230.873 340.609 237 341.659C242.23 342.47 254.166 341.448 259.555 340.838C264.087 340.251 265.965 343.215 263.496 345.689C263.482 345.772 263.399 345.758 263.399 345.758C263.288 345.909 263.259 346.075 263.328 346.172C263.314 346.255 263.3 346.337 263.285 346.42C263.368 346.434 263.354 346.517 263.354 346.517C263.491 346.711 263.643 346.822 263.891 346.865ZM260.614 302.838C260.865 305.353 260.631 308.21 259.542 310.581C257.045 316.204 251.949 316.097 248.34 311.302C246.473 308.767 245.411 305.516 245.094 302.394C244.857 299.797 245.16 297.036 246.18 294.569C247.156 292.35 249.044 290.287 251.682 290.313C254.057 290.379 256.065 292.087 257.451 293.944C259.317 296.48 260.38 299.73 260.614 302.838ZM295.676 327.598L301.423 294.067C301.466 293.819 301.426 293.556 301.289 293.362C301.069 293.154 300.834 293.028 300.572 293.069L285.762 294.45C285.747 294.533 285.747 294.533 285.747 294.533L282.694 294.947C282.431 294.987 282.154 295.11 282.029 295.345C281.903 295.579 281.861 295.827 281.984 296.104L284.004 301.223L279.945 324.902L276.62 330.382C276.411 330.602 276.452 330.865 276.575 331.142C276.698 331.419 276.932 331.544 277.18 331.586L296.057 334.822C296.388 334.879 296.651 334.839 296.859 334.619C297.067 334.399 297.11 334.15 297.069 333.888L295.676 327.598ZM286.812 279.375C286.017 284.011 289.187 288.39 293.823 289.185L293.906 289.199L293.989 289.213C298.611 290.091 303.072 286.935 303.867 282.299C304.676 277.579 301.506 273.201 296.87 272.406L296.787 272.392L296.704 272.378C292.068 271.583 287.62 274.656 286.812 279.375ZM320.951 324.004L323.15 311.171L325.378 298.173C325.421 297.925 325.381 297.662 325.243 297.468C325.023 297.26 324.789 297.135 324.527 297.175L309.716 298.557C309.702 298.639 309.702 298.639 309.702 298.639L306.648 299.053C306.386 299.094 306.109 299.217 305.984 299.451C305.858 299.685 305.816 299.933 305.939 300.21L307.959 305.329L304.567 325.116C303.304 332.485 306.994 337.805 314.294 338.971C317.275 339.482 320.175 339.468 322.983 338.5C325.417 337.724 327.591 336.477 329.833 335.328L329.095 339.633C329.01 340.13 329.285 340.518 329.781 340.603L346.423 343.455C346.754 343.512 347.016 343.472 347.225 343.252C347.35 343.018 347.475 342.783 347.435 342.521L346.042 336.231L351.789 302.7C351.832 302.452 351.792 302.189 351.572 301.981C351.434 301.787 351.2 301.662 350.938 301.702L336.127 303.084C336.113 303.166 336.113 303.166 336.113 303.166L333.059 303.58C332.714 303.606 332.52 303.744 332.394 303.978C332.269 304.212 332.227 304.46 332.35 304.737L334.37 309.856L331.418 327.077C330.006 327.857 328.359 328.513 326.907 329.031C325.552 329.48 322.578 330.419 321.313 329.35C320.321 328.669 320.44 326.985 320.61 325.991L320.951 324.004ZM377.089 332.945L376.924 332.917C372.205 332.108 367.826 335.278 367.032 339.914C366.237 344.551 369.31 348.998 374.029 349.807L374.112 349.821L374.194 349.835C378.831 350.63 383.292 347.474 384.087 342.838C384.882 338.201 381.726 333.74 377.089 332.945ZM404.919 299.364C404.453 298.602 403.973 297.924 403.395 297.313C398.958 292.377 391.551 290.34 385.259 289.261C376.731 287.8 367.277 289.759 359.336 292.829C358.879 293.007 358.628 293.475 358.806 293.931L363.111 306.601C363.234 306.878 363.372 307.072 363.703 307.128C363.951 307.171 364.214 307.131 364.49 307.008C370.144 302.863 377.479 299.348 384.729 299.312C386.773 299.322 389.188 299.651 391.076 300.571C392.164 301.183 393.375 302.073 393.576 303.386C393.941 305.238 392.124 306.887 390.766 307.847C387.954 309.837 384.964 311.369 381.699 312.514C378.795 313.55 375.864 314.241 372.933 314.932C372.573 315.041 372.282 315.247 372.212 315.661L370.367 326.424C370.296 326.838 370.57 327.226 370.887 327.365L384.295 333.669C384.612 333.808 384.874 333.768 385.068 333.631C385.345 333.508 385.47 333.274 385.513 333.025L386.918 324.829C391.01 323.826 394.965 322.629 398.717 320.63C402.663 318.494 405.716 315.097 406.731 310.669C407.646 306.82 406.989 302.702 404.919 299.364Z" fill="#FFF9F3"/>
</svg>
