<svg width="478" height="474" viewBox="0 0 478 474" fill="none" xmlns="http://www.w3.org/2000/svg">
<path d="M201.237 17.2861C221.674 -4.93555 256.742 -4.93555 277.179 17.2861V17.2861C290.106 31.3416 309.74 37.1065 328.214 32.2711V32.2711C357.421 24.6263 386.921 43.5853 392.1 73.3287V73.3287C395.376 92.1416 408.776 107.606 426.932 113.526V113.526C455.635 122.885 470.203 154.784 458.479 182.606V182.606C451.064 200.203 453.976 220.457 466.049 235.253V235.253C485.136 258.645 480.145 293.355 455.241 310.422V310.422C439.489 321.217 430.988 339.831 433.146 358.804V358.804C436.556 388.802 413.592 415.304 383.414 416.198V416.198C364.326 416.763 347.112 427.826 338.669 444.954V444.954C325.32 472.033 291.673 481.913 265.803 466.349V466.349C249.439 456.505 228.977 456.505 212.614 466.349V466.349C186.744 481.913 153.097 472.033 139.748 444.954V444.954C131.304 427.826 114.09 416.763 95.0026 416.198V416.198C64.8249 415.304 41.8605 388.802 45.2709 358.804V358.804C47.428 339.831 38.9276 321.217 23.1755 310.422V310.422C-1.72853 293.355 -6.71918 258.645 12.3678 235.253V235.253C24.4405 220.457 27.3526 200.203 19.9373 182.606V182.606C8.21375 154.784 22.7814 122.885 51.4849 113.526V113.526C69.6402 107.606 83.0403 92.1416 86.3161 73.3287V73.3287C91.4951 43.5853 120.996 24.6263 150.203 32.2711V32.2711C168.677 37.1065 188.31 31.3416 201.237 17.2861V17.2861Z" fill="#FF3838"/>
<path d="M180.395 231.753C179.991 231.503 179.563 231.518 179.294 231.841C169.838 240.386 153.964 242.251 143.083 235.681C138.451 232.895 135.076 228.861 133.201 223.867C131.544 219.425 130.606 214.381 131.762 209.791C132.598 206.398 134.55 203.345 137.587 201.589C140.542 199.852 144.091 199.529 147.402 200.384C151.79 201.415 155.566 204.232 158.52 207.588C158.66 207.814 158.944 207.92 159.189 207.861C159.454 207.885 159.68 207.745 159.804 207.543L169.56 194.438C169.684 194.236 169.708 193.971 169.731 193.707C169.673 193.461 169.553 193.317 169.269 193.212C161.238 188.469 151.526 187.924 142.617 190.037C98.9714 200.388 113.18 260.298 156.825 249.947C166.633 247.621 175.849 242.068 180.585 232.916C180.834 232.512 180.718 232.021 180.395 231.753ZM206.342 237.771C219.501 234.65 228.324 224.529 225.048 210.717C221.772 196.904 209.281 191.924 196.204 195.025C183.209 198.107 174.468 208.209 177.725 221.94C181 235.753 193.265 240.873 206.342 237.771ZM201.158 203.174C204.39 205.515 207.056 209.113 208.847 212.66C210.556 216.225 211.91 220.48 211.821 224.472C211.772 226.815 211.143 229.985 208.745 231.158C206.347 232.331 203.531 231.014 201.552 229.584C198.32 227.242 195.654 223.645 193.863 220.098C192.173 216.614 190.8 212.278 190.889 208.286C190.938 205.943 191.567 202.772 193.965 201.599C196.363 200.426 199.198 201.826 201.158 203.174ZM255.65 223.919C255.627 224.183 255.685 224.429 255.906 224.635C256.128 224.842 256.393 224.865 256.719 224.788L275.028 220.445C275.273 220.387 275.499 220.247 275.604 219.963C275.709 219.679 275.651 219.434 275.511 219.208L272.387 214.77L267.308 193.356C268.219 192.104 269.213 190.832 270.327 189.705C271.234 188.799 273.213 186.948 274.637 187.128C275.815 187.367 276.343 189.227 276.576 190.208L281.654 211.622L280.742 217.968C280.719 218.232 280.777 218.478 280.998 218.684C281.22 218.89 281.484 218.914 281.73 218.856L300.038 214.514C300.365 214.436 300.591 214.296 300.696 214.012C300.801 213.728 300.743 213.483 300.603 213.257L297.479 208.819L291.76 184.708C290.849 180.866 288.669 177.498 284.775 176.005C282.503 175.162 280.079 175.133 277.709 175.695C274.42 176.388 271.325 177.899 269.094 180.501C267.504 182.173 266.156 184.133 264.688 185.948C262.088 181.903 257.54 180.564 252.699 181.626C249.328 182.339 246.315 183.831 244.002 186.452C242.701 187.883 241.602 189.438 240.402 190.931L239.394 186.681C239.336 186.436 239.196 186.21 238.912 186.105C238.71 185.98 238.445 185.957 238.22 186.096L225.135 193.171C225.154 193.253 225.154 193.253 225.154 193.253L222.507 194.83C222.199 194.989 222.075 195.192 222.051 195.456C222.047 195.802 222.187 196.028 222.408 196.235L226.141 199.234L231.879 223.427L230.967 229.773C230.862 230.057 231.001 230.283 231.223 230.489C231.445 230.696 231.709 230.719 231.954 230.661L250.344 226.3C250.671 226.222 250.897 226.082 251.002 225.798C251.026 225.534 251.05 225.269 250.91 225.043L247.163 219.802C245.535 212.937 243.988 206.052 242.341 199.105C243.272 197.934 244.203 196.764 245.235 195.656C246.142 194.75 248.183 192.798 249.545 193.079C250.723 193.318 251.251 195.178 251.484 196.159L256.562 217.573L255.65 223.919ZM325.155 209.593C338.314 206.472 347.136 196.351 343.86 182.538C340.584 168.725 328.094 163.745 315.017 166.847C302.021 169.929 293.281 180.03 296.537 193.762C299.813 207.574 312.078 212.694 325.155 209.593ZM319.971 174.995C323.203 177.337 325.869 180.935 327.66 184.481C329.369 188.047 330.723 192.301 330.634 196.294C330.585 198.636 329.956 201.807 327.558 202.98C325.16 204.153 322.344 202.835 320.364 201.405C317.133 199.064 314.466 195.466 312.676 191.92C310.986 188.435 309.612 184.099 309.701 180.107C309.75 177.765 310.379 174.594 312.778 173.421C315.176 172.248 318.011 173.647 319.971 174.995ZM88.6692 301.679C88.1678 301.021 87.1844 299.787 87.5821 298.916C88.1903 297.476 91.5912 297.619 92.7312 297.694C96.8011 298.11 101.263 299.815 104.825 301.732C105.129 301.919 105.456 301.842 105.763 301.683C106.051 301.442 106.157 301.158 106.079 300.831L103.714 290.859C103.637 290.532 103.516 290.388 103.232 290.283C99.8289 288.673 95.101 288.758 91.466 289.448C83.3163 291.122 76.5875 296.602 78.7391 305.675L87.811 343.926L86.8988 350.271C86.8752 350.536 86.9334 350.781 87.155 350.988C87.3766 351.194 87.6412 351.218 87.9681 351.14L106.603 346.72C106.848 346.662 107.074 346.522 107.18 346.238C107.285 345.954 107.227 345.709 107.087 345.483L103.422 340.223L97.1221 313.66L108.385 315.651C108.65 315.674 108.895 315.616 109.102 315.394C109.308 315.173 109.413 314.889 109.355 314.644L106.932 304.427C106.816 303.937 106.33 303.707 105.921 303.803L94.8871 306.42C92.783 305.193 90.2357 303.552 88.6692 301.679ZM133.101 325.156L130.096 312.487L127.053 299.655C126.995 299.41 126.855 299.184 126.653 299.059C126.369 298.954 126.104 298.93 125.878 299.07L112.794 306.145C112.813 306.226 112.813 306.226 112.813 306.226L110.166 307.804C109.94 307.944 109.734 308.165 109.71 308.43C109.686 308.695 109.745 308.94 109.966 309.146L113.831 313.064L118.464 332.598C120.189 339.873 125.668 343.321 132.842 341.534C135.784 340.836 138.447 339.686 140.651 337.696C142.586 336.028 144.098 334.029 145.71 332.093L146.718 336.343C146.835 336.834 147.239 337.083 147.729 336.967L164.158 333.07C164.485 332.993 164.711 332.853 164.816 332.569C164.839 332.304 164.863 332.04 164.723 331.814L160.977 326.573L153.126 293.471C153.068 293.226 152.928 293 152.644 292.895C152.442 292.77 152.177 292.747 151.951 292.887L138.867 299.961C138.886 300.043 138.886 300.043 138.886 300.043L136.239 301.62C135.931 301.78 135.806 301.982 135.783 302.246C135.759 302.511 135.817 302.756 136.039 302.963L139.903 306.881L143.935 323.881C142.942 325.153 141.684 326.401 140.551 327.446C139.48 328.391 137.112 330.42 135.529 329.932C134.35 329.694 133.799 328.098 133.566 327.117L133.101 325.156ZM193.003 325.107C192.897 325.391 193.037 325.617 193.259 325.823C193.48 326.03 193.745 326.053 193.99 325.995L212.625 321.575C212.952 321.498 213.178 321.358 213.202 321.093C213.307 320.809 213.331 320.545 213.109 320.338L209.444 315.078L203.939 291.866C202.233 284.674 196.835 281.206 189.724 282.892C186.763 283.508 184.038 284.759 181.752 286.769C179.917 288.499 178.305 290.435 176.692 292.371L175.684 288.121C175.626 287.876 175.486 287.65 175.202 287.545C175 287.42 174.735 287.397 174.509 287.537L158.797 296.27C158.571 296.41 158.365 296.632 158.341 296.896C158.317 297.161 158.376 297.406 158.597 297.612L162.221 301.242L167.939 325.353L167.093 331.252C166.988 331.536 167.128 331.762 167.35 331.968C167.571 332.174 167.836 332.198 168.081 332.14L186.716 327.72C187.043 327.643 187.269 327.503 187.374 327.219C187.479 326.935 187.421 326.69 187.281 326.464L183.535 321.223L178.631 300.545C179.624 299.273 180.718 298.064 181.852 297.018C182.923 296.073 185.31 294.126 186.955 294.513C188.052 294.771 188.604 296.366 188.836 297.347L193.915 318.761L193.003 325.107ZM248.287 276.082C248.229 275.837 248.089 275.611 247.887 275.486C242.162 272.096 235.174 272.113 228.798 273.625C215.803 276.707 207.062 286.809 210.319 300.54C213.595 314.353 225.859 319.473 238.936 316.371C245.965 314.704 252.774 311.017 256.134 304.436C256.302 304.051 256.205 303.643 255.882 303.374C255.56 303.105 255.05 303.14 254.762 303.381C252.371 305.674 249.357 307.166 246.17 307.922C245.189 308.155 244.271 308.286 243.251 308.355C234.725 309.169 228.352 303.774 225.265 296.218C224.018 293.147 223.31 289.43 223.573 286.173C223.762 284.057 224.469 281.213 226.559 280.199C229.716 278.587 233.675 281.447 235.891 283.511C237.038 284.707 238.103 285.922 239.024 287.257C239.246 287.464 239.467 287.67 239.713 287.612C240.059 287.616 240.285 287.476 240.409 287.274L248.096 276.732C248.303 276.51 248.346 276.327 248.287 276.082ZM275.449 299.424L267.598 266.322C267.54 266.077 267.4 265.851 267.198 265.726C266.914 265.621 266.65 265.598 266.424 265.737L253.339 272.812C253.358 272.894 253.358 272.894 253.358 272.894L250.711 274.471C250.485 274.611 250.279 274.833 250.255 275.097C250.232 275.362 250.29 275.607 250.511 275.813L254.376 279.731L259.92 303.107L259.008 309.453C258.902 309.737 259.042 309.962 259.264 310.169C259.485 310.375 259.75 310.399 259.995 310.341L278.63 305.921C278.957 305.844 279.183 305.704 279.288 305.42C279.394 305.136 279.335 304.891 279.196 304.665L275.449 299.424ZM248.398 258.531C249.484 263.108 254.116 265.894 258.693 264.808L258.774 264.789L258.856 264.77C263.453 263.766 266.321 259.114 265.235 254.537C264.13 249.879 259.498 247.092 254.921 248.178L254.839 248.197L254.758 248.217C250.181 249.302 247.293 253.872 248.398 258.531ZM306.107 300.44C319.266 297.32 328.089 287.198 324.813 273.386C321.537 259.573 309.047 254.593 295.969 257.694C282.974 260.776 274.233 270.878 277.49 284.609C280.766 298.422 293.03 303.542 306.107 300.44ZM300.923 265.843C304.155 268.184 306.821 271.782 308.612 275.329C310.321 278.895 311.675 283.149 311.586 287.141C311.537 289.484 310.908 292.654 308.51 293.827C306.112 295 303.296 293.683 301.317 292.253C298.085 289.911 295.419 286.314 293.628 282.767C291.938 279.283 290.565 274.947 290.654 270.955C290.703 268.612 291.332 265.441 293.73 264.268C296.128 263.095 298.963 264.495 300.923 265.843ZM356.478 286.336C356.372 286.62 356.512 286.846 356.734 287.052C356.956 287.259 357.22 287.282 357.465 287.224L376.1 282.804C376.427 282.727 376.653 282.587 376.677 282.322C376.782 282.038 376.806 281.774 376.584 281.567L372.919 276.307L367.414 253.095C365.708 245.902 360.31 242.435 353.199 244.121C350.238 244.737 347.513 245.988 345.227 247.997C343.393 249.727 341.78 251.664 340.167 253.6L339.159 249.35C339.101 249.105 338.961 248.879 338.677 248.774C338.475 248.649 338.21 248.626 337.985 248.765L322.272 257.499C322.046 257.639 321.84 257.861 321.816 258.125C321.793 258.39 321.851 258.635 322.072 258.841L325.696 262.471L331.414 286.582L330.568 292.481C330.463 292.765 330.603 292.991 330.825 293.197C331.046 293.403 331.311 293.427 331.556 293.369L350.191 288.949C350.518 288.872 350.744 288.732 350.849 288.448C350.954 288.164 350.896 287.919 350.756 287.693L347.01 282.452L342.106 261.774C343.099 260.502 344.194 259.293 345.327 258.247C346.398 257.302 348.785 255.355 350.43 255.742C351.527 255.999 352.079 257.595 352.311 258.576L357.39 279.99L356.478 286.336ZM420.024 265.135L415.391 245.601C410.913 226.721 382.963 234.817 372.17 242.816C372.026 242.937 371.901 243.139 371.878 243.403C371.854 243.668 371.893 243.831 372.033 244.057L377.412 250.724C377.614 250.848 377.817 250.973 378.081 250.997C378.346 251.02 378.572 250.88 378.696 250.678C382.436 246.424 389.855 239.485 396.044 241.557C397.545 242.064 398.342 243.602 398.873 245.116C398.792 245.135 398.71 245.155 398.628 245.174C390.291 247.151 381.622 251.366 377.148 259.074C374.276 264.072 373.504 270.643 377.091 275.577C380.678 280.51 386.903 281.278 392.543 279.941C397.692 278.719 402.041 276.307 405.328 272.333L405.929 274.867C406.046 275.357 406.45 275.606 406.94 275.49L423.205 271.633C423.532 271.555 423.758 271.415 423.863 271.131C423.887 270.867 423.91 270.602 423.771 270.376L420.024 265.135ZM402.169 259.01C402.905 262.116 402.194 265.306 399.986 267.643C398.623 269.175 396.1 270.55 393.992 269.669C392.856 269.248 392.277 268.263 391.924 267.138C391.101 264.398 391.793 261.126 393.087 258.574C394.693 255.517 397.286 253.348 400.56 252.227L402.169 259.01Z" fill="#FFF9F3"/>
</svg>
