<svg viewBox="0 0 584 581" fill="none" xmlns="http://www.w3.org/2000/svg">
<path d="M311.804 68.0424C337.266 51.8202 371.156 60.8335 385.195 87.5615C394.075 104.467 411.567 115.085 430.663 115.16C460.854 115.279 484.49 141.184 481.851 171.259C480.181 190.282 489.156 208.671 505.18 219.058C530.514 235.481 536.393 270.052 517.912 293.926C506.223 309.026 503.832 329.348 511.696 346.75C524.129 374.262 510.385 406.523 481.931 416.616C463.934 423 450.935 438.803 448.142 457.694C443.728 487.56 414.723 507.27 385.33 500.377C366.738 496.017 347.259 502.283 334.697 516.666C314.836 539.405 279.78 540.304 258.78 518.614C245.497 504.895 225.721 499.635 207.378 504.943C178.377 513.335 148.399 495.139 142.459 465.538C138.701 446.815 124.909 431.7 106.608 426.248C77.6737 417.628 62.2926 386.113 73.2985 358C80.2599 340.218 76.8292 320.045 64.3809 305.564C44.7001 282.67 48.7987 247.843 73.2567 230.142C88.7266 218.947 96.7468 200.122 94.1036 181.209C89.9248 151.309 112.202 124.226 142.347 122.559C161.413 121.504 178.338 110.004 186.339 92.6646C198.989 65.2517 232.372 54.512 258.633 69.4069C275.243 78.8281 295.699 78.3032 311.804 68.0424Z" fill="#FF3838"/>
<path d="M232.186 284.753C231.782 284.504 231.354 284.519 231.085 284.841C221.629 293.386 205.755 295.252 194.874 288.681C190.242 285.895 186.867 281.861 184.992 276.867C183.335 272.425 182.398 267.382 183.553 262.791C184.389 259.399 186.341 256.346 189.378 254.589C192.333 252.853 195.882 252.529 199.193 253.384C203.581 254.415 207.357 257.232 210.311 260.589C210.451 260.814 210.735 260.92 210.98 260.862C211.245 260.885 211.471 260.745 211.595 260.543L221.351 247.438C221.475 247.236 221.499 246.971 221.522 246.707C221.464 246.462 221.344 246.318 221.06 246.212C213.029 241.47 203.317 240.924 194.408 243.037C150.762 253.388 164.971 313.298 208.616 302.947C218.424 300.621 227.64 295.068 232.376 285.917C232.625 285.512 232.509 285.022 232.186 284.753ZM258.133 290.772C271.292 287.651 280.115 277.53 276.839 263.717C273.563 249.904 261.072 244.924 247.995 248.025C235 251.107 226.259 261.209 229.516 274.94C232.791 288.753 245.056 293.873 258.133 290.772ZM252.949 256.174C256.181 258.516 258.847 262.113 260.638 265.66C262.347 269.226 263.701 273.48 263.612 277.472C263.563 279.815 262.934 282.986 260.536 284.159C258.138 285.332 255.322 284.014 253.343 282.584C250.111 280.243 247.445 276.645 245.654 273.098C243.964 269.614 242.591 265.278 242.68 261.286C242.729 258.943 243.358 255.773 245.756 254.6C248.154 253.427 250.989 254.826 252.949 256.174ZM307.441 276.919C307.418 277.184 307.476 277.429 307.697 277.635C307.919 277.842 308.184 277.865 308.51 277.788L326.819 273.446C327.064 273.388 327.29 273.248 327.395 272.964C327.5 272.68 327.442 272.435 327.302 272.209L324.178 267.77L319.099 246.356C320.011 245.104 321.004 243.832 322.118 242.705C323.025 241.799 325.004 239.948 326.428 240.129C327.606 240.367 328.134 242.228 328.367 243.208L333.445 264.622L332.533 270.968C332.51 271.233 332.568 271.478 332.789 271.684C333.011 271.891 333.276 271.914 333.521 271.856L351.829 267.514C352.156 267.437 352.382 267.297 352.487 267.013C352.592 266.729 352.534 266.484 352.394 266.258L349.27 261.819L343.551 237.708C342.64 233.866 340.46 230.499 336.566 229.005C334.295 228.162 331.87 228.133 329.5 228.695C326.211 229.389 323.116 230.9 320.885 233.501C319.295 235.173 317.947 237.133 316.479 238.949C313.879 234.903 309.331 233.565 304.49 234.627C301.119 235.34 298.106 236.831 295.793 239.452C294.492 240.883 293.393 242.438 292.193 243.931L291.185 239.681C291.127 239.436 290.987 239.21 290.703 239.105C290.501 238.98 290.236 238.957 290.011 239.097L276.926 246.171C276.945 246.253 276.945 246.253 276.945 246.253L274.298 247.83C273.99 247.99 273.866 248.192 273.842 248.456C273.838 248.803 273.978 249.029 274.199 249.235L277.932 252.235L283.67 276.427L282.758 282.773C282.653 283.057 282.792 283.283 283.014 283.489C283.236 283.696 283.5 283.719 283.745 283.661L302.135 279.3C302.462 279.222 302.688 279.082 302.793 278.798C302.817 278.534 302.841 278.269 302.701 278.043L298.954 272.803C297.326 265.937 295.779 259.052 294.132 252.105C295.063 250.934 295.994 249.764 297.026 248.656C297.933 247.75 299.974 245.798 301.336 246.08C302.514 246.318 303.042 248.179 303.275 249.159L308.353 270.573L307.441 276.919ZM376.946 262.593C390.105 259.472 398.927 249.351 395.651 235.538C392.375 221.725 379.885 216.745 366.808 219.847C353.812 222.929 345.072 233.031 348.328 246.762C351.604 260.575 363.869 265.695 376.946 262.593ZM371.762 227.996C374.994 230.337 377.66 233.935 379.451 237.481C381.16 241.047 382.514 245.301 382.425 249.294C382.376 251.636 381.747 254.807 379.349 255.98C376.951 257.153 374.135 255.835 372.155 254.406C368.924 252.064 366.257 248.466 364.467 244.92C362.777 241.436 361.403 237.1 361.492 233.107C361.541 230.765 362.171 227.594 364.569 226.421C366.967 225.248 369.802 226.647 371.762 227.996ZM114.628 360.806C114.127 360.148 113.143 358.914 113.541 358.042C114.149 356.603 117.55 356.746 118.69 356.821C122.76 357.237 127.222 358.942 130.784 360.859C131.088 361.046 131.415 360.969 131.722 360.809C132.01 360.568 132.116 360.284 132.038 359.958L129.673 349.986C129.596 349.659 129.475 349.515 129.191 349.41C125.788 347.8 121.06 347.885 117.425 348.575C109.275 350.248 102.546 355.729 104.698 364.801L113.77 403.052L112.858 409.398C112.834 409.663 112.892 409.908 113.114 410.114C113.336 410.321 113.6 410.344 113.927 410.267L132.562 405.847C132.807 405.789 133.033 405.649 133.139 405.365C133.244 405.081 133.186 404.836 133.046 404.61L129.381 399.35L123.081 372.787L134.344 374.777C134.609 374.801 134.854 374.743 135.061 374.521C135.267 374.3 135.372 374.016 135.314 373.77L132.891 363.554C132.775 363.063 132.289 362.833 131.88 362.93L120.846 365.547C118.742 364.32 116.195 362.679 114.628 360.806ZM159.06 384.282L156.055 371.614L153.012 358.782C152.954 358.537 152.814 358.311 152.612 358.186C152.328 358.081 152.063 358.057 151.837 358.197L138.753 365.271C138.772 365.353 138.772 365.353 138.772 365.353L136.125 366.931C135.899 367.071 135.693 367.292 135.669 367.557C135.645 367.821 135.704 368.067 135.925 368.273L139.79 372.191L144.422 391.725C146.148 398.999 151.627 402.448 158.801 400.66C161.743 399.962 164.406 398.813 166.61 396.823C168.545 395.155 170.057 393.156 171.669 391.22L172.677 395.47C172.794 395.96 173.198 396.21 173.688 396.093L190.117 392.197C190.444 392.12 190.669 391.98 190.775 391.696C190.798 391.431 190.822 391.167 190.682 390.941L186.936 385.7L179.085 352.598C179.027 352.353 178.887 352.127 178.603 352.022C178.401 351.897 178.136 351.873 177.91 352.013L164.826 359.088C164.845 359.17 164.845 359.17 164.845 359.17L162.198 360.747C161.89 360.906 161.765 361.109 161.742 361.373C161.718 361.638 161.776 361.883 161.998 362.089L165.862 366.007L169.894 383.008C168.901 384.279 167.643 385.527 166.51 386.573C165.439 387.518 163.071 389.547 161.488 389.059C160.309 388.821 159.758 387.225 159.525 386.244L159.06 384.282ZM218.962 384.234C218.856 384.518 218.996 384.744 219.218 384.95C219.439 385.156 219.704 385.18 219.949 385.122L238.584 380.702C238.911 380.625 239.137 380.485 239.161 380.22C239.266 379.936 239.289 379.672 239.068 379.465L235.403 374.205L229.898 350.993C228.192 343.8 222.794 340.332 215.683 342.019C212.722 342.635 209.997 343.886 207.711 345.895C205.876 347.625 204.264 349.562 202.651 351.498L201.643 347.248C201.585 347.003 201.445 346.777 201.161 346.672C200.959 346.547 200.694 346.523 200.468 346.663L184.756 355.397C184.53 355.537 184.324 355.758 184.3 356.023C184.276 356.288 184.335 356.533 184.556 356.739L188.18 360.369L193.898 384.48L193.052 390.379C192.947 390.663 193.087 390.888 193.309 391.095C193.53 391.301 193.795 391.325 194.04 391.267L212.675 386.847C213.002 386.769 213.228 386.63 213.333 386.346C213.438 386.062 213.38 385.816 213.24 385.591L209.494 380.35L204.59 359.671C205.583 358.4 206.677 357.191 207.811 356.145C208.882 355.2 211.269 353.253 212.914 353.64C214.011 353.897 214.563 355.493 214.795 356.474L219.874 377.888L218.962 384.234ZM274.246 335.209C274.188 334.963 274.048 334.738 273.846 334.613C268.121 331.223 261.133 331.24 254.757 332.752C241.762 335.834 233.021 345.936 236.278 359.667C239.554 373.48 251.818 378.599 264.895 375.498C271.924 373.831 278.733 370.144 282.093 363.563C282.261 363.178 282.164 362.769 281.841 362.501C281.519 362.232 281.009 362.266 280.721 362.507C278.33 364.801 275.316 366.293 272.129 367.049C271.148 367.281 270.23 367.413 269.21 367.482C260.684 368.296 254.311 362.901 251.224 355.345C249.977 352.274 249.269 348.557 249.532 345.3C249.721 343.184 250.428 340.34 252.518 339.326C255.675 337.714 259.634 340.573 261.85 342.638C262.997 343.833 264.062 345.048 264.983 346.384C265.205 346.59 265.426 346.797 265.672 346.739C266.018 346.743 266.244 346.603 266.368 346.401L274.055 335.858C274.262 335.637 274.305 335.454 274.246 335.209ZM301.408 358.551L293.557 325.449C293.499 325.204 293.359 324.978 293.157 324.853C292.873 324.748 292.609 324.724 292.383 324.864L279.298 331.939C279.317 332.02 279.317 332.02 279.317 332.02L276.67 333.598C276.444 333.738 276.238 333.959 276.214 334.224C276.191 334.489 276.249 334.734 276.47 334.94L280.335 338.858L285.879 362.234L284.967 368.579C284.861 368.863 285.001 369.089 285.223 369.296C285.444 369.502 285.709 369.526 285.954 369.468L304.589 365.048C304.916 364.97 305.142 364.83 305.247 364.547C305.353 364.263 305.294 364.017 305.155 363.792L301.408 358.551ZM274.357 317.657C275.443 322.234 280.075 325.021 284.652 323.935L284.733 323.916L284.815 323.896C289.412 322.893 292.28 318.241 291.194 313.664C290.089 309.005 285.457 306.219 280.88 307.305L280.798 307.324L280.717 307.343C276.14 308.429 273.252 312.999 274.357 317.657ZM332.066 359.567C345.225 356.446 354.048 346.325 350.772 332.512C347.496 318.7 335.006 313.719 321.928 316.821C308.933 319.903 300.192 330.005 303.449 343.736C306.725 357.549 318.989 362.669 332.066 359.567ZM326.882 324.97C330.114 327.311 332.78 330.909 334.571 334.455C336.28 338.021 337.634 342.276 337.545 346.268C337.496 348.61 336.867 351.781 334.469 352.954C332.071 354.127 329.255 352.81 327.276 351.38C324.044 349.038 321.378 345.44 319.587 341.894C317.897 338.41 316.524 334.074 316.613 330.081C316.662 327.739 317.291 324.568 319.689 323.395C322.087 322.222 324.922 323.622 326.882 324.97ZM382.437 345.463C382.331 345.747 382.471 345.972 382.693 346.179C382.915 346.385 383.179 346.409 383.424 346.351L402.059 341.931C402.386 341.854 402.612 341.714 402.636 341.449C402.741 341.165 402.765 340.901 402.543 340.694L398.878 335.434L393.373 312.222C391.667 305.029 386.269 301.561 379.158 303.248C376.197 303.864 373.472 305.114 371.186 307.124C369.352 308.854 367.739 310.791 366.126 312.727L365.118 308.477C365.06 308.232 364.92 308.006 364.636 307.901C364.434 307.776 364.169 307.752 363.944 307.892L348.231 316.626C348.005 316.766 347.799 316.987 347.775 317.252C347.752 317.517 347.81 317.762 348.031 317.968L351.655 321.598L357.373 345.709L356.527 351.608C356.422 351.892 356.562 352.117 356.784 352.324C357.005 352.53 357.27 352.554 357.515 352.496L376.15 348.076C376.477 347.998 376.703 347.859 376.808 347.575C376.913 347.291 376.855 347.045 376.715 346.82L372.969 341.579L368.065 320.9C369.058 319.629 370.153 318.42 371.286 317.374C372.357 316.429 374.744 314.482 376.389 314.868C377.486 315.126 378.038 316.722 378.27 317.703L383.349 339.117L382.437 345.463ZM445.983 324.262L441.35 304.728C436.872 285.848 408.922 293.944 398.129 301.943C397.985 302.063 397.86 302.266 397.837 302.53C397.813 302.795 397.852 302.958 397.992 303.184L403.371 309.851C403.573 309.975 403.776 310.1 404.04 310.123C404.305 310.147 404.531 310.007 404.655 309.805C408.395 305.551 415.814 298.612 422.003 300.684C423.504 301.191 424.301 302.728 424.832 304.243C424.751 304.262 424.669 304.281 424.587 304.301C416.25 306.278 407.581 310.492 403.107 318.201C400.235 323.199 399.463 329.77 403.05 334.703C406.637 339.637 412.862 340.405 418.502 339.067C423.651 337.846 428 335.434 431.287 331.46L431.888 333.993C432.005 334.484 432.409 334.733 432.899 334.617L449.164 330.759C449.491 330.682 449.717 330.542 449.822 330.258C449.846 329.993 449.869 329.729 449.73 329.503L445.983 324.262ZM428.128 318.137C428.864 321.243 428.153 324.433 425.945 326.77C424.582 328.302 422.059 329.677 419.951 328.796C418.815 328.375 418.236 327.39 417.883 326.265C417.06 323.525 417.752 320.253 419.046 317.701C420.652 314.644 423.245 312.475 426.519 311.353L428.128 318.137ZM473.274 309.07L473.111 309.109C468.452 310.214 465.666 314.846 466.751 319.423C467.837 324 472.406 326.887 477.065 325.782L477.147 325.763L477.228 325.744C481.806 324.658 484.674 320.007 483.588 315.43C482.502 310.853 477.851 307.985 473.274 309.07ZM485.72 267.27C484.993 266.752 484.285 266.315 483.515 265.98C477.497 263.177 469.885 264.205 463.674 265.678C455.255 267.675 447.324 273.182 441.221 279.119C440.871 279.461 440.823 279.99 441.166 280.34L450.091 290.31C450.313 290.516 450.515 290.641 450.842 290.563C451.087 290.505 451.313 290.365 451.519 290.144C455.097 284.115 460.468 278.007 467.125 275.133C469.009 274.341 471.359 273.697 473.457 273.804C474.698 273.941 476.161 274.285 476.86 275.414C477.921 276.976 476.896 279.204 476.023 280.62C474.215 283.552 472.065 286.134 469.51 288.467C467.243 290.558 464.818 292.342 462.392 294.126C462.104 294.367 461.917 294.67 462.013 295.079L464.533 305.704C464.63 306.113 465.035 306.362 465.381 306.367L480.187 306.913C480.533 306.917 480.759 306.777 480.884 306.575C481.09 306.353 481.114 306.089 481.055 305.843L479.136 297.752C482.508 295.226 485.678 292.575 488.347 289.265C491.14 285.754 492.618 281.432 491.817 276.961C491.151 273.061 488.932 269.53 485.72 267.27Z" fill="#FFF9F3"/>
</svg>
