<svg viewBox="0 0 385 385" fill="none" xmlns="http://www.w3.org/2000/svg">
<path d="M0.343286 81.5354C0.370509 36.5931 36.8255 0.182225 81.7678 0.209449L303.017 0.343469C347.96 0.370692 384.37 36.8257 384.343 81.768L384.209 303.017C384.182 347.96 347.727 384.371 302.785 384.343L81.5352 384.209C36.5929 384.182 0.182042 347.727 0.209266 302.785L0.343286 81.5354Z" fill="#6FCC58"/>
<path d="M131.353 183.789C130.921 183.59 130.498 183.656 130.27 184.009C121.909 193.627 106.374 197.385 94.7818 192.169C89.8487 189.959 86.0147 186.359 83.5535 181.627C81.3745 177.416 79.8384 172.522 80.4346 167.825C80.8569 164.357 82.4284 161.092 85.2323 158.984C87.9573 156.905 91.4418 156.157 94.8312 156.609C99.3117 157.105 103.399 159.448 106.735 162.426C106.901 162.633 107.195 162.704 107.432 162.617C107.697 162.608 107.904 162.442 108.004 162.227L116.115 148.045C116.214 147.829 116.206 147.564 116.198 147.298C116.111 147.062 115.974 146.933 115.679 146.863C107.136 143.119 97.4292 143.744 88.8385 146.911C46.752 162.428 68.0518 220.199 110.138 204.682C119.596 201.194 128.078 194.576 131.681 184.921C131.88 184.49 131.705 184.017 131.353 183.789Z" fill="#FFF9F3"/>
<path d="M157.835 186.648C170.524 181.97 178.067 170.863 173.156 157.543C168.245 144.224 155.247 140.779 142.637 145.429C130.106 150.049 122.641 161.127 127.523 174.368C132.434 187.687 145.225 191.298 157.835 186.648ZM148.534 152.924C152.023 154.86 155.102 158.112 157.306 161.417C159.431 164.752 161.286 168.813 161.677 172.787C161.91 175.119 161.666 178.342 159.426 179.795C157.186 181.247 154.232 180.277 152.096 179.095C148.606 177.159 145.527 173.907 143.324 170.601C141.228 167.345 139.344 163.206 138.953 159.232C138.72 156.9 138.964 153.677 141.204 152.224C143.443 150.772 146.426 151.821 148.534 152.924Z" fill="#FFF9F3"/>
<path d="M205.123 166.975C205.131 167.241 205.218 167.477 205.463 167.656C205.708 167.834 205.973 167.825 206.288 167.709L223.943 161.2C224.179 161.113 224.387 160.947 224.457 160.652C224.527 160.358 224.44 160.121 224.274 159.914L220.639 155.883L213.026 135.233C213.781 133.881 214.614 132.499 215.585 131.246C216.377 130.238 218.119 128.163 219.554 128.171C220.753 128.266 221.5 130.05 221.849 130.996L229.462 151.645L229.318 158.054C229.327 158.32 229.414 158.556 229.659 158.735C229.904 158.913 230.169 158.905 230.405 158.817L248.06 152.308C248.375 152.192 248.582 152.026 248.653 151.732C248.723 151.437 248.636 151.201 248.47 150.993L244.835 146.962L236.263 123.712C234.897 120.007 232.329 116.926 228.284 115.91C225.927 115.347 223.517 115.609 221.231 116.451C218.05 117.535 215.159 119.407 213.255 122.257C211.878 124.108 210.775 126.215 209.535 128.194C206.469 124.491 201.793 123.708 197.114 125.343C193.854 126.456 191.042 128.298 189.059 131.178C187.94 132.755 187.036 134.431 186.024 136.057L184.513 131.959C184.426 131.722 184.26 131.515 183.965 131.445C183.749 131.345 183.484 131.354 183.276 131.519L171.136 140.114C171.165 140.193 171.165 140.193 171.165 140.193L168.726 142.077C168.44 142.272 168.34 142.488 168.349 142.753C168.386 143.097 168.552 143.305 168.797 143.483L172.863 146.013L181.464 169.341L181.321 175.751C181.25 176.045 181.416 176.253 181.661 176.431C181.906 176.609 182.171 176.601 182.408 176.514L200.141 169.976C200.456 169.86 200.664 169.694 200.734 169.399C200.726 169.134 200.717 168.868 200.551 168.661L196.203 163.908C193.762 157.287 191.4 150.638 188.93 143.939C189.713 142.665 190.497 141.391 191.389 140.167C192.181 139.159 193.973 136.976 195.358 137.092C196.557 137.187 197.304 138.971 197.653 139.917L205.266 160.566L205.123 166.975Z" fill="#FFF9F3"/>
<path d="M272.404 144.407C285.093 139.729 292.637 128.621 287.726 115.302C282.815 101.982 269.817 98.538 257.207 103.187C244.675 107.808 237.211 118.886 242.093 132.127C247.003 145.446 259.794 149.056 272.404 144.407ZM263.103 110.682C266.593 112.619 269.672 115.87 271.875 119.176C274 122.511 275.856 126.572 276.246 130.546C276.479 132.877 276.235 136.101 273.996 137.553C271.756 139.006 268.802 138.036 266.665 136.854C263.176 134.917 260.097 131.666 257.893 128.36C255.797 125.104 253.913 120.964 253.522 116.99C253.289 114.659 253.533 111.435 255.773 109.983C258.013 108.53 260.996 109.579 263.103 110.682Z" fill="#FFF9F3"/>
<path d="M94.0204 257.537C93.9333 257.3 93.7175 257.201 93.423 257.13C87.7352 256.273 83.1306 256.896 77.6924 258.901C73.4365 260.47 68.9899 262.736 66.481 266.616C65.5977 268.105 64.8805 269.802 64.5075 271.462C63.9897 274.428 64.3348 277.792 65.8538 280.455C66.634 281.6 67.5718 282.687 68.7377 283.421C70.7459 284.74 73.1604 285.461 75.409 285.975C77.0395 286.269 78.6408 286.484 80.2422 286.699C82.0302 286.935 83.6813 287.043 85.4403 287.2C87.0126 287.337 88.5352 287.581 90.0577 287.825C91.3936 288.049 94.281 288.596 94.8331 290.093C95.763 292.616 92.5316 293.807 90.7106 294.21C89.6279 294.43 88.4082 294.521 87.3379 294.289C83.0151 293.735 78.779 291.715 74.8956 289.924C74.601 289.854 74.4143 289.833 74.1779 289.92C73.9415 290.007 73.7631 290.252 73.6636 290.468L70.6628 301.512C70.6712 301.777 70.6505 301.964 70.8165 302.171C70.9036 302.408 71.1194 302.507 71.3351 302.607C77.4337 303.85 83.9342 303.512 89.8453 301.333C98.6724 298.078 107.835 291.119 103.912 280.479C101.616 274.253 95.4512 272.587 89.3984 271.954C87.3158 271.647 85.2125 271.527 83.1092 271.408C81.3793 271.329 79.5124 271.122 77.8529 270.749C74.7995 269.995 72.9776 266.996 76.7606 265.601C80.4649 264.235 86.8875 267.329 90.3103 268.842C90.5551 269.02 90.8206 269.012 91.028 268.846C91.2644 268.759 91.393 268.622 91.4635 268.327L94.1741 258.196C94.2445 257.902 94.1864 257.744 94.0204 257.537Z" fill="#FFF9F3"/>
<path d="M121.229 272.751L116.725 260.535L112.163 248.162C112.076 247.925 111.91 247.718 111.694 247.618C111.4 247.548 111.134 247.556 110.927 247.722L98.7863 256.317C98.8154 256.395 98.8154 256.395 98.8154 256.395L96.3765 258.279C96.1691 258.445 95.9908 258.69 95.9992 258.956C96.0075 259.221 96.0947 259.458 96.3395 259.636L100.646 263.061L107.591 281.898C110.178 288.912 116.032 291.678 122.938 289.042C125.776 287.996 128.281 286.535 130.23 284.294C131.951 282.406 133.212 280.241 134.58 278.125L136.091 282.223C136.266 282.696 136.697 282.895 137.17 282.72L153.012 276.88C153.327 276.764 153.534 276.598 153.605 276.303C153.596 276.037 153.588 275.772 153.422 275.565L149.073 270.811L137.305 238.892C137.218 238.655 137.052 238.448 136.757 238.378C136.541 238.278 136.276 238.287 136.068 238.452L123.928 247.047C123.957 247.126 123.957 247.126 123.957 247.126L121.518 249.01C121.232 249.205 121.132 249.421 121.141 249.686C121.149 249.952 121.236 250.188 121.481 250.366L125.788 253.792L131.832 270.185C130.999 271.567 129.9 272.957 128.9 274.131C127.95 275.197 125.844 277.496 124.213 277.202C123.014 277.107 122.275 275.589 121.927 274.643L121.229 272.751Z" fill="#FFF9F3"/>
<path d="M156.708 274.353C156.638 274.648 156.804 274.855 157.049 275.033C157.293 275.212 157.559 275.203 157.795 275.116L175.765 268.491C176.08 268.374 176.288 268.208 176.358 267.914C176.428 267.619 176.341 267.383 176.175 267.176L171.827 262.422L165.143 244.295C165.056 244.059 165.048 243.793 164.96 243.557C164.757 241.304 166.922 239.163 168.668 238.072C171.331 236.553 174.537 236.266 177.292 237.667C177.616 237.817 178.039 237.75 178.296 237.476C178.504 237.31 178.624 236.908 178.508 236.593L174.091 224.613C173.974 224.298 173.622 224.069 173.277 224.107C170.544 224.22 168.059 225.494 166.014 227.232C164.177 228.805 162.306 231.017 161.104 233.34L160.058 230.503C159.971 230.266 159.805 230.059 159.589 229.96C159.294 229.889 159.029 229.897 158.822 230.063L146.681 238.658C146.71 238.737 146.71 238.737 146.71 238.737L144.271 240.621C144.064 240.787 143.886 241.031 143.894 241.297C143.902 241.562 143.989 241.799 144.234 241.977L148.541 245.403L156.852 267.944L156.708 274.353Z" fill="#FFF9F3"/>
<path d="M235.926 264.752L240.891 262.921C241.916 262.544 242.339 262.477 242.422 261.73C243.846 251.268 234.717 241.562 223.531 248.373C218.392 251.431 210.859 256.984 206.608 259.536C201.527 262.753 198.248 256.531 202.649 253.655C207.444 250.634 212.413 249.786 217.001 246.931C221.953 243.851 226.018 239.577 227.593 233.894C229.802 225.559 225.531 217.375 217.586 214.037C219.1 212.315 221.261 210.892 223.301 209.871C223.824 209.589 223.936 208.921 223.525 208.535L215.459 200.497C215.048 200.112 214.517 200.128 214.21 200.51C211.419 203.867 210.196 208.078 209.907 212.392C205.837 212.281 201.693 213.183 197.831 214.606C174.187 223.324 176.761 246.816 193.804 251.276C189.237 255.645 187.36 266.096 193.17 271.653C197.805 276.211 204.197 275.824 210.029 273.673C214.966 271.764 224.796 264.917 229.159 261.696C232.793 258.924 235.9 260.554 234.997 263.931C235.026 264.01 234.947 264.039 234.947 264.039C234.926 264.225 234.984 264.383 235.092 264.433C235.121 264.512 235.15 264.591 235.179 264.669C235.258 264.64 235.287 264.719 235.287 264.719C235.503 264.819 235.69 264.839 235.926 264.752ZM211.097 228.248C212.57 230.301 213.795 232.893 214.036 235.49C214.68 241.609 210.213 244.062 204.691 241.711C201.807 240.446 199.264 238.161 197.43 235.614C195.927 233.482 194.811 230.94 194.462 228.293C194.2 225.883 194.805 223.153 197.103 221.858C199.193 220.729 201.786 221.206 203.915 222.122C206.798 223.387 209.342 225.672 211.097 228.248Z" fill="#FFF9F3"/>
<path d="M253.839 232.185L242.07 200.265C241.983 200.029 241.817 199.821 241.601 199.722C241.307 199.651 241.041 199.66 240.834 199.826L228.694 208.42C228.723 208.499 228.723 208.499 228.723 208.499L226.284 210.383C226.076 210.549 225.898 210.794 225.906 211.059C225.915 211.325 226.002 211.561 226.247 211.739L230.554 215.165L238.864 237.706L238.721 244.115C238.65 244.41 238.816 244.617 239.061 244.795C239.306 244.974 239.571 244.965 239.808 244.878L257.777 238.253C258.093 238.137 258.3 237.971 258.37 237.676C258.441 237.382 258.354 237.145 258.188 236.938L253.839 232.185ZM222.073 194.836C223.701 199.249 228.634 201.459 233.047 199.832L233.126 199.803L233.205 199.774C237.648 198.225 239.936 193.263 238.309 188.849C236.653 184.357 231.72 182.147 227.306 183.774L227.227 183.803L227.149 183.833C222.735 185.46 220.417 190.343 222.073 194.836Z" fill="#FFF9F3"/>
<path d="M273.94 216.447L269.436 204.231L264.874 191.857C264.787 191.621 264.621 191.414 264.405 191.314C264.111 191.244 263.845 191.252 263.638 191.418L251.497 200.012C251.526 200.091 251.526 200.091 251.526 200.091L249.087 201.975C248.88 202.141 248.702 202.386 248.71 202.652C248.718 202.917 248.806 203.154 249.05 203.332L253.357 206.757L260.302 225.594C262.889 232.608 268.743 235.374 275.649 232.738C278.487 231.692 280.992 230.231 282.941 227.99C284.662 226.102 285.923 223.937 287.291 221.821L288.802 225.919C288.977 226.392 289.408 226.591 289.881 226.416L305.723 220.576C306.038 220.459 306.245 220.293 306.316 219.999C306.307 219.733 306.299 219.468 306.133 219.261L301.784 214.507L290.016 182.588C289.928 182.351 289.762 182.144 289.468 182.074C289.252 181.974 288.987 181.982 288.779 182.148L276.639 190.743C276.668 190.822 276.668 190.822 276.668 190.822L274.229 192.706C273.943 192.901 273.843 193.116 273.852 193.382C273.86 193.647 273.947 193.884 274.192 194.062L278.499 197.488L284.543 213.881C283.71 215.263 282.611 216.653 281.611 217.827C280.661 218.893 278.554 221.192 276.924 220.898C275.725 220.803 274.986 219.285 274.638 218.339L273.94 216.447Z" fill="#FFF9F3"/>
<path d="M327.041 196.153L326.883 196.211C322.391 197.868 320.181 202.801 321.808 207.214C323.435 211.628 328.319 213.946 332.811 212.289L332.89 212.26L332.969 212.231C337.382 210.604 339.671 205.642 338.044 201.228C336.416 196.815 331.454 194.526 327.041 196.153ZM334.377 153.161C333.593 152.734 332.838 152.385 332.033 152.145C325.723 150.085 318.289 152.02 312.299 154.228C304.181 157.221 296.969 163.641 291.623 170.267C291.316 170.649 291.333 171.18 291.715 171.487L301.773 180.312C302.018 180.491 302.233 180.59 302.549 180.474C302.785 180.387 302.992 180.221 303.171 179.976C305.998 173.562 310.597 166.852 316.861 163.2C318.636 162.188 320.893 161.266 322.987 161.12C324.236 161.108 325.73 161.273 326.56 162.31C327.8 163.733 327.05 166.069 326.353 167.579C324.91 170.707 323.086 173.528 320.83 176.151C318.831 178.499 316.637 180.562 314.443 182.624C314.186 182.898 314.036 183.221 314.182 183.616L317.959 193.861C318.104 194.255 318.536 194.454 318.88 194.417L333.644 193.181C333.989 193.144 334.196 192.978 334.296 192.762C334.474 192.517 334.466 192.252 334.378 192.015L331.502 184.213C334.546 181.3 337.374 178.287 339.626 174.682C341.977 170.861 342.926 166.392 341.594 162.049C340.464 158.258 337.837 155.019 334.377 153.161Z" fill="#FFF9F3"/>
</svg>

