<svg width="385" height="385" viewBox="0 0 385 385" fill="none" xmlns="http://www.w3.org/2000/svg">
<path d="M0.205549 81.7766C0.176164 36.8343 36.5853 0.377547 81.5276 0.348162L302.777 0.203505C347.719 0.17412 384.176 36.5832 384.205 81.5256L384.35 302.775C384.38 347.717 347.97 384.174 303.028 384.203L81.7787 384.348C36.8364 384.377 0.379591 347.968 0.350206 303.026L0.205549 81.7766Z" fill="#6FCC58"/>
<path d="M104.554 148.098C104.388 147.891 104.143 147.713 103.956 147.693C96.0267 146.597 89.4683 146.785 81.9844 149.555C76.0762 151.742 70.3484 155.385 66.8843 160.787C64.6079 164.317 63.4984 168.579 64.5128 172.771C64.8975 174.779 65.8336 176.582 67.1636 178.239C74.7323 187.798 93.183 183.925 103.74 188.974C105.065 189.649 106.398 190.588 107.208 191.811C107.707 192.432 108.165 193.427 108.034 194.282C107.923 194.95 107.625 195.598 107.219 196.196C105.725 198.451 102.428 199.223 99.9394 199.517C96.0737 199.963 91.9369 199.434 88.1648 198.68C84.629 197.839 80.9475 196.604 77.7299 194.929C77.4849 194.751 77.2194 194.76 76.9831 194.847C76.6971 195.043 76.5687 195.18 76.4986 195.474L72.7731 209.124C72.7526 209.311 72.7613 209.577 72.9276 209.784C73.015 210.02 73.2309 210.119 73.4468 210.219C81.8457 211.857 91.1465 211.818 99.1818 208.844C106.981 205.957 115.002 201.735 118.624 193.856C120.53 189.567 121.05 185.165 119.073 180.791C118.752 179.925 118.195 179.146 117.638 178.367C113.149 172.773 103.668 171.356 96.9961 170.511C94.4317 170.117 91.8177 169.831 89.2038 169.544C86.9341 169.22 84.5564 168.846 82.3072 168.335C80.3526 167.894 78.3806 166.922 77.0798 165.343C76.1406 164.258 75.6449 162.919 75.9165 161.474C76.2583 159.736 77.6297 158.601 79.2052 158.018C85.9801 155.51 94.2737 158.8 99.5241 163.306C99.7691 163.484 100.064 163.554 100.379 163.437C100.615 163.35 100.822 163.184 100.971 162.86L104.63 148.787C104.7 148.492 104.72 148.305 104.554 148.098ZM150.123 189.541C162.806 184.847 170.335 173.73 165.408 160.417C160.48 147.104 147.478 143.676 134.874 148.341C122.348 152.977 114.897 164.065 119.796 177.299C124.724 190.613 137.519 194.207 150.123 189.541ZM140.78 155.828C144.272 157.761 147.355 161.008 149.562 164.311C151.691 167.643 153.552 171.702 153.948 175.676C154.184 178.007 153.944 181.23 151.706 182.686C149.468 184.141 146.513 183.175 144.374 181.996C140.883 180.064 137.799 176.816 135.592 173.513C133.492 170.259 131.602 166.122 131.206 162.149C130.97 159.817 131.21 156.594 133.448 155.138C135.686 153.683 138.671 154.728 140.78 155.828ZM173.496 172.292L173.361 178.701C173.291 178.996 173.457 179.203 173.702 179.381C173.947 179.559 174.212 179.55 174.449 179.463L190.125 173.661C190.598 173.486 190.797 173.054 190.622 172.581L189.747 170.218C193.851 171.386 199.033 171.349 202.843 170.028C204.606 169.465 206.251 168.588 207.731 167.503C215.65 161.795 218.794 150.689 215.412 141.551C213.633 136.745 210.524 132.701 206.16 130.107C202.257 127.789 197.68 126.796 193.126 127.318C191.168 127.594 189.269 128.029 187.436 128.886C183.112 130.755 179.827 133.494 177.676 137.604L170.853 119.17C170.765 118.934 170.599 118.727 170.304 118.657C170.088 118.558 169.852 118.645 169.616 118.732L157.515 127.421L155.079 129.308C154.872 129.474 154.694 129.719 154.702 129.985C154.711 130.25 154.799 130.487 155.044 130.665L159.355 134.085L173.496 172.292ZM202.453 155.663C202.63 157.836 202.177 160.243 200.637 161.888C200.33 162.27 200.073 162.544 199.709 162.769C198.772 163.384 197.827 163.734 196.686 163.798C192.073 164.162 187.541 159.659 185.216 156.041C182.921 152.502 180.626 146.544 182.806 142.512C183.361 141.591 183.974 140.826 184.832 140.24C185.275 139.986 185.64 139.762 186.112 139.587C188.19 138.908 190.547 139.468 192.44 140.469C195.197 141.867 197.457 144.345 199.137 146.948C200.817 149.55 202.22 152.614 202.453 155.663ZM223.772 160.043C223.702 160.337 223.868 160.544 224.113 160.723C224.358 160.901 224.624 160.892 224.86 160.804L242.821 154.156C243.136 154.04 243.343 153.874 243.414 153.579C243.484 153.284 243.396 153.048 243.23 152.841L238.875 148.093L232.169 129.974C232.081 129.738 232.073 129.473 231.985 129.236C231.779 126.984 233.941 124.84 235.686 123.746C238.347 122.224 241.553 121.933 244.31 123.331C244.634 123.48 245.057 123.413 245.313 123.139C245.521 122.972 245.64 122.57 245.524 122.255L241.092 110.281C240.975 109.966 240.622 109.738 240.278 109.776C237.544 109.892 235.061 111.169 233.019 112.91C231.183 114.485 229.316 116.699 228.116 119.024L227.066 116.188C226.979 115.952 226.813 115.745 226.597 115.646C226.302 115.576 226.037 115.584 225.829 115.751L213.7 124.36C213.729 124.439 213.729 124.439 213.729 124.439L211.292 126.326C211.085 126.492 210.907 126.737 210.916 127.003C210.925 127.268 211.012 127.505 211.257 127.683L215.568 131.103L223.907 153.633L223.772 160.043ZM267.026 128.717L278.794 119.614L286.518 113.62L288.954 111.733C289.211 111.459 289.331 111.056 289.185 110.663C284.082 99.2951 275.531 96.2796 263.872 100.595C251.347 105.231 243.975 116.289 248.873 129.524C253.801 142.837 266.596 146.431 279.2 141.766C285.975 139.259 292.287 134.773 294.823 127.833C294.943 127.43 294.797 127.036 294.444 126.809C294.091 126.581 293.59 126.677 293.333 126.952C291.238 129.518 288.428 131.365 285.355 132.502C284.41 132.852 283.514 133.094 282.511 133.286C277.207 134.443 270.713 133.353 267.163 128.845C267.134 128.766 267.134 128.766 267.026 128.717ZM263.43 123.599C261.849 120.78 260.546 117.501 260.284 114.373C260.077 112.121 260.305 109.349 262.033 107.725C262.161 107.588 262.397 107.5 262.526 107.363C266.401 104.764 270.595 107.87 272.853 111.065C273.634 112.208 274.288 113.489 274.675 114.779L263.43 123.599ZM173.551 268.2C173.481 268.495 173.648 268.702 173.893 268.88C174.138 269.058 174.403 269.049 174.64 268.962L192.601 262.314C192.916 262.197 193.123 262.031 193.114 261.765C193.184 261.471 193.176 261.205 192.931 261.027L188.655 256.25L180.374 233.878C177.808 226.945 172.029 224.158 165.176 226.695C162.31 227.665 159.757 229.237 157.732 231.51C156.121 233.449 154.756 235.567 153.39 237.685L151.874 233.589C151.786 233.352 151.62 233.145 151.325 233.075C151.109 232.976 150.844 232.984 150.637 233.151L136.1 243.726C135.892 243.892 135.714 244.138 135.723 244.403C135.732 244.668 135.819 244.905 136.064 245.083L140.101 248.246L148.703 271.485L148.579 277.443C148.509 277.737 148.675 277.945 148.92 278.123C149.165 278.301 149.431 278.292 149.667 278.205L167.628 271.557C167.943 271.44 168.151 271.274 168.221 270.979C168.291 270.684 168.203 270.448 168.037 270.241L163.682 265.493L156.305 245.563C157.137 244.18 158.077 242.847 159.075 241.671C160.023 240.604 162.156 238.381 163.837 238.565C164.957 238.688 165.698 240.205 166.048 241.151L173.687 261.79L173.551 268.2ZM196.711 211.529L202.855 209.255C203.092 209.168 203.24 208.844 203.281 208.47L205.312 195.806C205.382 195.512 205.294 195.275 205.157 195.147C204.941 195.048 204.725 194.948 204.568 195.007L195.824 198.243C195.509 198.36 195.36 198.684 195.348 199.136L195.917 210.838C195.926 211.103 195.984 211.261 196.229 211.439C196.366 211.567 196.553 211.588 196.711 211.529ZM203.855 212.199C191.33 216.835 183.879 227.923 188.778 241.157C193.705 254.471 206.53 258.143 219.134 253.478C231.817 248.784 239.346 237.667 234.39 224.275C229.462 210.962 216.46 207.534 203.855 212.199ZM222.93 239.534C223.195 241.943 222.925 245.088 220.687 246.544C218.479 248.078 215.494 247.033 213.356 245.854C209.893 244 206.781 240.674 204.603 237.45C202.474 234.117 200.613 230.059 200.217 226.085C199.952 223.675 200.221 220.53 202.43 218.996C204.668 217.541 207.652 218.586 209.762 219.686C213.253 221.618 216.336 224.866 218.544 228.169C220.673 231.501 222.534 235.56 222.93 239.534ZM265.897 194.072C265.81 193.836 265.594 193.737 265.299 193.667C259.611 192.816 255.007 193.446 249.571 195.457C245.317 197.032 240.873 199.304 238.369 203.186C237.488 204.677 236.773 206.375 236.402 208.035C235.888 211.002 236.237 214.365 237.76 217.026C238.541 218.17 239.48 219.256 240.647 219.988C242.657 221.304 245.073 222.023 247.322 222.534C248.953 222.826 250.554 223.039 252.156 223.252C253.944 223.486 255.595 223.592 257.355 223.747C258.927 223.881 260.45 224.124 261.973 224.366C263.309 224.588 266.197 225.131 266.751 226.628C267.684 229.149 264.454 230.344 262.634 230.75C261.551 230.971 260.332 231.064 259.261 230.833C254.938 230.284 250.699 228.27 246.813 226.484C246.519 226.414 246.332 226.393 246.096 226.481C245.859 226.568 245.681 226.813 245.582 227.029L242.595 238.077C242.604 238.342 242.583 238.529 242.75 238.736C242.837 238.972 243.053 239.072 243.269 239.171C249.369 240.406 255.869 240.061 261.777 237.874C270.6 234.608 279.754 227.637 275.818 217.002C273.514 210.779 267.347 209.121 261.294 208.495C259.211 208.191 257.107 208.074 255.004 207.957C253.274 207.881 251.406 207.676 249.747 207.305C246.692 206.555 244.866 203.558 248.648 202.159C252.35 200.788 258.777 203.873 262.202 205.382C262.447 205.56 262.712 205.552 262.919 205.385C263.156 205.298 263.284 205.161 263.354 204.866L266.052 194.732C266.122 194.437 266.064 194.279 265.897 194.072Z" fill="#FFF9F3"/>
</svg>
