<svg viewBox="0 0 474 478" fill="none" xmlns="http://www.w3.org/2000/svg">
<path d="M17.0862 277.282C-5.1355 256.844 -5.1355 221.777 17.0862 201.339V201.339C31.1416 188.413 36.9066 168.779 32.0712 150.305V150.305C24.4264 121.098 43.3854 91.5975 73.1287 86.4184V86.4184C91.9417 83.1426 107.406 69.7425 113.326 51.5872V51.5872C122.685 22.8837 154.584 8.3161 182.406 20.0397V20.0397C200.003 27.455 220.257 24.5428 235.053 12.4701V12.4701C258.445 -6.61684 293.155 -1.62618 310.222 23.2779V23.2779C321.017 39.0299 339.631 47.5303 358.604 45.3732V45.3732C388.602 41.9628 415.104 64.9272 415.998 95.1049V95.1049C416.563 114.193 427.626 131.407 444.754 139.85V139.85C471.833 153.199 481.713 186.846 466.149 212.716V212.716C456.305 229.079 456.305 249.542 466.149 265.905V265.905C481.713 291.775 471.833 325.422 444.754 338.771V338.771C427.626 347.214 416.563 364.429 415.998 383.516V383.516C415.104 413.694 388.602 436.658 358.604 433.248V433.248C339.631 431.091 321.017 439.591 310.222 455.343V455.343C293.155 480.247 258.445 485.238 235.053 466.151V466.151C220.257 454.078 200.003 451.166 182.406 458.581V458.581C154.584 470.305 122.685 455.737 113.326 427.034V427.034C107.406 408.879 91.9417 395.478 73.1287 392.203V392.203C43.3854 387.024 24.4264 357.523 32.0712 328.316V328.316C36.9066 309.842 31.1416 290.209 17.0862 277.282V277.282Z" fill="#FF3838"/>
<path d="M177.187 233.753C176.782 233.503 176.354 233.518 176.085 233.841C166.63 242.386 150.756 244.251 139.874 237.681C135.242 234.895 131.868 230.861 129.993 225.867C128.335 221.425 127.398 216.381 128.554 211.791C129.39 208.398 131.342 205.345 134.378 203.589C137.333 201.852 140.882 201.529 144.193 202.384C148.582 203.415 152.357 206.232 155.312 209.588C155.452 209.814 155.736 209.92 155.981 209.861C156.245 209.885 156.471 209.745 156.596 209.543L166.351 196.438C166.476 196.236 166.499 195.971 166.523 195.707C166.465 195.461 166.344 195.317 166.06 195.212C158.029 190.469 148.317 189.924 139.408 192.037C95.7629 202.388 109.972 262.298 153.617 251.947C163.425 249.621 172.64 244.068 177.376 234.916C177.626 234.512 177.509 234.021 177.187 233.753Z" fill="#FFF9F3"/>
<path d="M203.134 239.771C216.293 236.65 225.115 226.529 221.839 212.716C218.563 198.904 206.073 193.924 192.996 197.025C180 200.107 171.259 210.209 174.516 223.94C177.792 237.753 190.057 242.873 203.134 239.771ZM197.95 205.174C201.181 207.515 203.848 211.113 205.638 214.66C207.347 218.225 208.702 222.48 208.613 226.472C208.564 228.815 207.935 231.985 205.537 233.158C203.139 234.331 200.322 233.014 198.343 231.584C195.111 229.242 192.445 225.645 190.655 222.098C188.965 218.614 187.591 214.278 187.68 210.286C187.729 207.943 188.358 204.772 190.756 203.599C193.154 202.426 195.99 203.826 197.95 205.174Z" fill="#FFF9F3"/>
<path d="M252.442 225.919C252.418 226.183 252.476 226.429 252.698 226.635C252.919 226.841 253.184 226.865 253.511 226.788L271.819 222.445C272.064 222.387 272.29 222.247 272.395 221.963C272.501 221.679 272.443 221.434 272.303 221.208L269.178 216.77L264.099 195.356C265.011 194.104 266.004 192.832 267.118 191.704C268.026 190.799 270.004 188.948 271.428 189.128C272.607 189.367 273.134 191.227 273.367 192.208L278.446 213.622L277.534 219.968C277.51 220.232 277.568 220.478 277.79 220.684C278.011 220.89 278.276 220.914 278.521 220.856L296.829 216.514C297.156 216.436 297.382 216.296 297.487 216.012C297.593 215.728 297.535 215.483 297.395 215.257L294.27 210.819L288.552 186.708C287.641 182.866 285.461 179.498 281.567 178.004C279.295 177.162 276.871 177.133 274.501 177.695C271.212 178.388 268.117 179.899 265.885 182.501C264.296 184.172 262.948 186.132 261.479 187.948C258.88 183.903 254.332 182.564 249.49 183.626C246.12 184.339 243.107 185.831 240.793 188.452C239.492 189.883 238.393 191.438 237.194 192.931L236.186 188.681C236.127 188.436 235.988 188.21 235.704 188.105C235.501 187.98 235.237 187.957 235.011 188.096L221.926 195.171C221.946 195.253 221.946 195.253 221.946 195.253L219.298 196.83C218.991 196.989 218.866 197.192 218.843 197.456C218.838 197.802 218.978 198.028 219.2 198.235L222.933 201.234L228.671 225.427L227.758 231.773C227.653 232.057 227.793 232.283 228.015 232.489C228.236 232.696 228.501 232.719 228.746 232.661L247.136 228.3C247.463 228.222 247.689 228.082 247.794 227.798C247.817 227.534 247.841 227.269 247.701 227.043L243.955 221.802C242.326 214.937 240.78 208.052 239.132 201.104C240.063 199.934 240.994 198.764 242.026 197.656C242.934 196.75 244.974 194.798 246.336 195.079C247.515 195.318 248.043 197.178 248.275 198.159L253.354 219.573L252.442 225.919Z" fill="#FFF9F3"/>
<path d="M321.946 211.593C335.105 208.472 343.928 198.351 340.652 184.538C337.376 170.725 324.886 165.745 311.808 168.847C298.813 171.929 290.072 182.03 293.329 195.762C296.605 209.574 308.869 214.694 321.946 211.593ZM316.763 176.995C319.994 179.337 322.66 182.935 324.451 186.481C326.16 190.047 327.514 194.301 327.425 198.294C327.376 200.636 326.747 203.807 324.349 204.98C321.951 206.153 319.135 204.835 317.156 203.405C313.924 201.064 311.258 197.466 309.467 193.92C307.778 190.435 306.404 186.099 306.493 182.107C306.542 179.765 307.171 176.594 309.569 175.421C311.967 174.248 314.803 175.647 316.763 176.995Z" fill="#FFF9F3"/>
<path d="M59.6286 309.806C59.1272 309.148 58.1438 307.913 58.5415 307.042C59.1498 305.603 62.5506 305.746 63.6907 305.821C67.7605 306.237 72.2223 307.941 75.785 309.859C76.0883 310.046 76.4152 309.968 76.7228 309.809C77.0109 309.568 77.1163 309.284 77.0387 308.957L74.6738 298.986C74.5963 298.659 74.4758 298.515 74.1918 298.41C70.7884 296.799 66.0605 296.885 62.4255 297.574C54.2758 299.248 47.5469 304.729 49.6986 313.801L58.7705 352.052L57.8583 358.398C57.8347 358.662 57.8928 358.908 58.1145 359.114C58.3361 359.321 58.6007 359.344 58.9276 359.267L77.5627 354.847C77.8079 354.789 78.0337 354.649 78.139 354.365C78.2443 354.081 78.1862 353.836 78.0463 353.61L74.3815 348.35L68.0815 321.787L79.3449 323.777C79.6095 323.801 79.8547 323.742 80.0611 323.521C80.2675 323.299 80.3728 323.015 80.3147 322.77L77.8916 312.553C77.7753 312.063 77.2891 311.833 76.8805 311.93L65.8465 314.547C63.7425 313.319 61.1952 311.679 59.6286 309.806Z" fill="#FFF9F3"/>
<path d="M104.061 333.282L101.056 320.613L98.0126 307.781C97.9544 307.536 97.8145 307.31 97.6123 307.186C97.3283 307.08 97.0638 307.057 96.8379 307.197L83.7533 314.271C83.7727 314.353 83.7727 314.353 83.7727 314.353L81.1253 315.93C80.8995 316.07 80.693 316.292 80.6695 316.557C80.6459 316.821 80.704 317.066 80.9257 317.273L84.7901 321.191L89.423 340.725C91.1482 347.999 96.6279 351.448 103.801 349.66C106.743 348.962 109.406 347.813 111.61 345.822C113.546 344.155 115.057 342.156 116.67 340.22L117.678 344.47C117.794 344.96 118.199 345.209 118.689 345.093L135.117 341.197C135.444 341.119 135.67 340.979 135.775 340.695C135.799 340.431 135.822 340.166 135.683 339.94L131.936 334.7L124.085 301.598C124.027 301.353 123.887 301.127 123.603 301.022C123.401 300.897 123.137 300.873 122.911 301.013L109.826 308.088C109.845 308.169 109.845 308.169 109.845 308.169L107.198 309.747C106.89 309.906 106.766 310.108 106.742 310.373C106.719 310.637 106.777 310.883 106.998 311.089L110.863 315.007L114.895 332.007C113.901 333.279 112.643 334.527 111.51 335.573C110.439 336.517 108.072 338.547 106.488 338.059C105.309 337.82 104.758 336.224 104.526 335.244L104.061 333.282Z" fill="#FFF9F3"/>
<path d="M163.962 333.233C163.857 333.517 163.997 333.743 164.218 333.95C164.44 334.156 164.704 334.18 164.95 334.122L183.585 329.702C183.912 329.624 184.137 329.484 184.161 329.22C184.266 328.936 184.29 328.671 184.068 328.465L180.404 323.205L174.898 299.993C173.193 292.8 167.795 289.332 160.684 291.019C157.722 291.635 154.997 292.885 152.711 294.895C150.877 296.625 149.264 298.561 147.652 300.498L146.644 296.248C146.585 296.003 146.446 295.777 146.162 295.671C145.959 295.547 145.695 295.523 145.469 295.663L129.756 304.397C129.53 304.537 129.324 304.758 129.3 305.023C129.277 305.287 129.335 305.533 129.557 305.739L133.18 309.369L138.898 333.48L138.053 339.378C137.947 339.662 138.087 339.888 138.309 340.095C138.531 340.301 138.795 340.325 139.04 340.266L157.675 335.847C158.002 335.769 158.228 335.629 158.334 335.345C158.439 335.061 158.381 334.816 158.241 334.59L154.494 329.349L149.59 308.671C150.583 307.4 151.678 306.19 152.811 305.145C153.882 304.2 156.269 302.253 157.915 302.639C159.012 302.897 159.563 304.493 159.796 305.474L164.874 326.888L163.962 333.233Z" fill="#FFF9F3"/>
<path d="M219.247 284.208C219.189 283.963 219.049 283.737 218.847 283.613C213.122 280.222 206.133 280.239 199.758 281.751C186.762 284.834 178.022 294.935 181.278 308.666C184.554 322.479 196.819 327.599 209.896 324.498C216.925 322.831 223.734 319.144 227.094 312.563C227.262 312.178 227.165 311.769 226.842 311.5C226.519 311.232 226.009 311.266 225.721 311.507C223.33 313.801 220.317 315.292 217.129 316.048C216.148 316.281 215.23 316.413 214.21 316.482C205.684 317.295 199.311 311.9 196.224 304.345C194.978 301.273 194.269 297.557 194.533 294.3C194.721 292.183 195.428 289.339 197.518 288.326C200.676 286.714 204.634 289.573 206.851 291.638C207.997 292.833 209.063 294.048 209.984 295.384C210.205 295.59 210.427 295.796 210.672 295.738C211.018 295.743 211.244 295.603 211.369 295.4L219.056 284.858C219.262 284.636 219.305 284.454 219.247 284.208Z" fill="#FFF9F3"/>
<path d="M246.408 307.55L238.558 274.449C238.5 274.203 238.36 273.978 238.158 273.853C237.874 273.748 237.609 273.724 237.383 273.864L224.299 280.938C224.318 281.02 224.318 281.02 224.318 281.02L221.671 282.598C221.445 282.737 221.238 282.959 221.215 283.224C221.191 283.488 221.249 283.733 221.471 283.94L225.335 287.858L230.879 311.233L229.967 317.579C229.862 317.863 230.002 318.089 230.223 318.295C230.445 318.502 230.709 318.525 230.955 318.467L249.59 314.048C249.917 313.97 250.142 313.83 250.248 313.546C250.353 313.262 250.295 313.017 250.155 312.791L246.408 307.55ZM219.358 266.657C220.443 271.234 225.075 274.02 229.652 272.935L229.734 272.916L229.816 272.896C234.412 271.892 237.28 267.241 236.195 262.664C235.09 258.005 230.458 255.219 225.881 256.304L225.799 256.324L225.717 256.343C221.14 257.429 218.253 261.998 219.358 266.657Z" fill="#FFF9F3"/>
<path d="M277.067 308.567C290.226 305.446 299.048 295.325 295.772 281.512C292.496 267.699 280.006 262.719 266.929 265.821C253.933 268.903 245.192 279.005 248.449 292.736C251.725 306.548 263.99 311.668 277.067 308.567ZM271.883 273.969C275.114 276.311 277.781 279.909 279.571 283.455C281.28 287.021 282.635 291.275 282.546 295.268C282.497 297.61 281.868 300.781 279.47 301.954C277.072 303.127 274.255 301.809 272.276 300.379C269.045 298.038 266.378 294.44 264.588 290.894C262.898 287.41 261.524 283.074 261.613 279.081C261.662 276.739 262.291 273.568 264.689 272.395C267.087 271.222 269.923 272.621 271.883 273.969Z" fill="#FFF9F3"/>
<path d="M327.437 294.462C327.332 294.746 327.472 294.972 327.693 295.179C327.915 295.385 328.18 295.409 328.425 295.35L347.06 290.931C347.387 290.853 347.613 290.713 347.636 290.449C347.742 290.165 347.765 289.9 347.543 289.694L343.879 284.434L338.374 261.221C336.668 254.029 331.27 250.561 324.159 252.248C321.197 252.864 318.472 254.114 316.186 256.124C314.352 257.854 312.739 259.79 311.127 261.727L310.119 257.477C310.061 257.231 309.921 257.006 309.637 256.9C309.434 256.776 309.17 256.752 308.944 256.892L293.231 265.626C293.006 265.766 292.799 265.987 292.776 266.252C292.752 266.516 292.81 266.762 293.032 266.968L296.655 270.598L302.374 294.709L301.528 300.607C301.423 300.891 301.562 301.117 301.784 301.323C302.006 301.53 302.27 301.553 302.516 301.495L321.151 297.076C321.478 296.998 321.703 296.858 321.809 296.574C321.914 296.29 321.856 296.045 321.716 295.819L317.969 290.578L313.065 269.9C314.059 268.628 315.153 267.419 316.286 266.374C317.357 265.429 319.744 263.482 321.39 263.868C322.487 264.126 323.038 265.722 323.271 266.703L328.349 288.117L327.437 294.462Z" fill="#FFF9F3"/>
<path d="M390.984 273.262L386.351 253.728C381.873 234.847 353.923 242.944 343.129 250.943C342.985 251.063 342.861 251.265 342.837 251.53C342.813 251.794 342.852 251.958 342.992 252.184L348.372 258.85C348.574 258.975 348.776 259.1 349.041 259.123C349.305 259.147 349.531 259.007 349.656 258.805C353.395 254.551 360.814 247.612 367.003 249.683C368.505 250.19 369.301 251.728 369.833 253.242C369.751 253.262 369.669 253.281 369.588 253.301C361.251 255.278 352.581 259.492 348.108 267.201C345.235 272.198 344.463 278.77 348.05 283.703C351.638 288.637 357.863 289.405 363.502 288.067C368.652 286.846 373 284.433 376.288 280.459L376.889 282.993C377.005 283.483 377.41 283.733 377.9 283.617L394.165 279.759C394.492 279.682 394.718 279.542 394.823 279.258C394.846 278.993 394.87 278.729 394.73 278.503L390.984 273.262ZM373.128 267.137C373.865 270.243 373.154 273.433 370.945 275.77C369.582 277.302 367.059 278.677 364.951 277.796C363.815 277.374 363.236 276.389 362.883 275.264C362.061 272.524 362.752 269.252 364.046 266.701C365.652 263.644 368.246 261.475 371.519 260.353L373.128 267.137Z" fill="#FFF9F3"/>
<path d="M418.275 258.07L418.111 258.109C413.452 259.214 410.666 263.846 411.752 268.423C412.837 273 417.407 275.887 422.065 274.782L422.147 274.763L422.229 274.743C426.806 273.658 429.674 269.006 428.588 264.429C427.503 259.852 422.852 256.984 418.275 258.07ZM430.72 216.27C429.993 215.751 429.285 215.315 428.515 214.98C422.498 212.177 414.886 213.205 408.674 214.678C400.256 216.675 392.324 222.182 386.222 228.118C385.871 228.46 385.824 228.99 386.166 229.34L395.092 239.309C395.313 239.516 395.515 239.641 395.842 239.563C396.087 239.505 396.313 239.365 396.52 239.143C400.097 233.115 405.469 227.007 412.125 224.133C414.009 223.341 416.36 222.697 418.457 222.804C419.698 222.941 421.161 223.285 421.861 224.414C422.922 225.975 421.896 228.204 421.023 229.62C419.215 232.552 417.065 235.134 414.51 237.466C412.244 239.558 409.818 241.342 407.392 243.126C407.104 243.367 406.917 243.67 407.014 244.079L409.534 254.704C409.631 255.113 410.035 255.362 410.382 255.366L425.187 255.912C425.534 255.917 425.759 255.777 425.884 255.575C426.091 255.353 426.114 255.088 426.056 254.843L424.137 246.752C427.509 244.225 430.679 241.574 433.347 238.265C436.14 234.754 437.619 230.432 436.817 225.96C436.151 222.061 433.933 218.529 430.72 216.27Z" fill="#FFF9F3"/>
</svg>
