<svg width="61" height="20" viewBox="0 0 61 20" fill="none" xmlns="http://www.w3.org/2000/svg">
<g clip-path="url(#clip_onda_01)">
<path d="M9.75641 19.8673C11.9691 19.8673 14.2364 18.9932 16.0667 17.3815C17.8969 15.7698 19.1535 13.0654 19.1535 9.89659C19.1535 3.09464 13.5808 0.0078125 9.67445 0.0078125C7.48909 0.0078125 5.27641 0.881962 3.41886 2.49367C1.58862 4.10538 0.332031 6.80976 0.332031 9.97854C0.332031 16.7805 5.93202 19.8673 9.75641 19.8673ZM10.7398 19.4576C9.01884 19.4576 7.16128 17.4088 5.95933 13.8849C5.38567 12.1093 5.08519 10.1971 5.08519 8.17561C5.08519 5.68976 5.46763 3.77757 6.20519 2.43904C6.94275 1.10049 7.78958 0.417568 8.71836 0.417568C10.4667 0.417568 12.3515 2.43904 13.5262 6.01756C14.0998 7.79317 14.4003 9.67805 14.4003 11.6995C14.4003 14.1854 14.0179 16.0976 13.253 17.4361C12.5154 18.7746 11.6686 19.4576 10.7398 19.4576Z" fill="black" fill-opacity="0.3"/>
<path d="M32.6754 7.95726C32.6754 6.61872 31.9378 5.68994 30.2168 5.68994C28.8237 5.68994 27.2666 6.20897 25.5729 7.27433V5.85384H20.2461V5.90848C21.53 6.56409 21.6939 7.43823 21.6939 9.18653V16.1797C21.6939 17.928 21.53 18.8021 20.2461 19.4577V19.5124H26.7749V19.4577C25.7641 18.8841 25.5729 17.928 25.5729 16.1797V7.65677C26.2285 7.24701 26.8841 7.02848 27.5671 7.02848C28.3866 7.02848 28.7963 7.60214 28.7963 8.72214V16.1797C28.7963 17.846 28.5505 18.8841 27.5671 19.4577V19.5124H34.1232V19.4577C32.8393 18.8021 32.6754 17.928 32.6754 16.1797V7.95726Z" fill="black" fill-opacity="0.3"/>
<path d="M46.3792 0.390137H41.0524V0.444771C42.3363 1.10038 42.5002 1.97453 42.5002 3.72282V5.85355H41.8719C40.1236 5.85355 38.4573 6.4272 37.0368 7.5472C35.6163 8.63989 34.6875 10.6614 34.6875 13.0926C34.6875 17.354 37.3646 19.5121 41.4895 19.5121H47.827V19.4574C46.5431 18.8018 46.3792 17.9277 46.3792 16.1794V0.390137ZM42.4456 19.1296C41.4075 19.1296 40.506 18.3648 39.7685 16.8077C39.0309 15.2506 38.6758 13.3384 38.6758 11.0984C38.6758 9.15891 38.949 7.87501 39.468 7.2194C39.987 6.56379 40.7519 6.23598 41.7353 6.23598H42.5002V19.1296H42.4456Z" fill="black" fill-opacity="0.3"/>
<path d="M59.1319 8.8587C59.1319 6.97382 58.0392 5.6626 55.5261 5.6626C54.3241 5.6626 52.849 5.8265 51.1007 6.12699L48.8334 9.15918L48.888 9.21382C51.21 7.13772 52.8763 6.09967 53.8324 6.09967C54.8158 6.09967 55.4168 7.00113 55.4168 8.20308C55.4168 8.96796 55.1709 9.59626 54.6792 10.1153C54.1875 10.607 53.2314 11.2626 51.8383 12.1094C50.4997 12.9016 49.5709 13.5572 49.0519 14.1309C48.5329 14.7045 48.2598 15.4421 48.2598 16.3982C48.2598 17.245 48.5603 17.9826 49.1339 18.6655C49.7348 19.3211 50.609 19.6489 51.729 19.6489C52.7124 19.6489 53.9143 19.048 55.3075 17.8733V19.5124H60.5797V19.4577C59.2958 18.8021 59.1319 17.928 59.1319 16.1797V8.8587ZM53.7778 18.3104C52.8763 18.3104 51.9202 17.0811 51.9202 15.5241V15.2236C51.9475 13.9943 52.248 13.0382 52.767 12.3553C53.0675 11.9728 53.9143 11.208 55.3075 10.088V16.4528C55.3075 17.5728 54.6519 18.3104 53.7778 18.3104Z" fill="black" fill-opacity="0.3"/>
</g>
<defs>
<clipPath id="clip_onda_01">
<rect width="60.9756" height="20" fill="white"/>
</clipPath>
</defs>
</svg>
