<svg viewBox="0 0 480 480" fill="none" xmlns="http://www.w3.org/2000/svg">
<path d="M137.48 72.4603C172.873 -22.8491 307.735 -22.6927 342.907 72.6986V72.6986C353.965 102.689 377.574 126.352 407.538 137.48V137.48C502.848 172.873 502.691 307.735 407.3 342.907V342.907C377.309 353.965 353.646 377.574 342.519 407.539V407.539C307.125 502.848 172.264 502.692 137.091 407.3V407.3C126.033 377.31 102.425 353.647 72.4602 342.519V342.519C-22.8492 307.126 -22.6928 172.264 72.6985 137.091V137.091C102.689 126.033 126.352 102.425 137.48 72.4603V72.4603Z" fill="#FF7DD6"/>
<path d="M163.546 170.5C163.798 170.518 164.055 170.452 164.235 170.296C164.498 170.146 164.599 169.901 164.617 169.65L165.416 158.338C165.451 157.835 165.062 157.387 164.559 157.351C149.561 156.292 134.478 155.227 119.479 154.168C119.144 154.144 118.881 154.294 118.696 154.533C118.51 154.773 118.493 155.024 118.553 155.365L120.485 161.396L117.349 205.806L114.588 211.505C114.487 211.751 114.463 212.086 114.613 212.349C114.763 212.613 115.008 212.714 115.343 212.738L134.448 214.087C134.699 214.105 134.956 214.039 135.142 213.799C135.327 213.559 135.435 213.23 135.285 212.967L133.353 206.936L134.814 186.239L155.837 191.429C156.082 191.531 156.34 191.465 156.603 191.315C156.782 191.159 156.884 190.914 156.902 190.662L157.742 178.764C157.771 178.345 157.466 177.902 156.963 177.867L135.513 176.352L136.311 165.04L163.546 170.5Z" fill="#FFF9F3"/>
<path d="M201.344 211.737L202.758 191.711C204.125 172.355 175.033 171.733 162.343 176.142C162.169 176.214 161.99 176.369 161.888 176.615C161.787 176.86 161.775 177.028 161.841 177.285L164.983 185.254C165.139 185.434 165.295 185.613 165.54 185.715C165.786 185.816 166.043 185.75 166.223 185.594C171.062 182.652 180.215 178.246 185.503 182.072C186.784 183.004 187.085 184.71 187.14 186.314C187.056 186.308 186.972 186.302 186.888 186.296C178.342 185.692 168.809 187.124 162.237 193.144C158.003 197.056 155.303 203.097 157.252 208.876C159.202 214.656 164.914 217.249 170.695 217.657C175.974 218.03 180.845 217.026 185.169 214.216L184.986 216.814C184.951 217.316 185.262 217.675 185.765 217.711L202.439 218.888C202.774 218.912 203.032 218.846 203.217 218.606C203.319 218.361 203.42 218.115 203.354 217.858L201.344 211.737ZM186.134 200.558C185.909 203.742 184.278 206.574 181.472 208.145C179.713 209.199 176.895 209.758 175.146 208.287C174.188 207.546 173.93 206.433 173.929 205.254C173.962 202.393 175.6 199.477 177.597 197.429C180.043 194.991 183.166 193.696 186.625 193.603L186.134 200.558Z" fill="#FFF9F3"/>
<path d="M250.326 214.354C250.098 214.001 249.601 213.882 249.248 214.11C246.287 215.501 242.966 216.024 239.698 215.793C238.693 215.722 237.777 215.573 236.777 215.418C228.403 213.564 223.927 206.595 223.244 198.379C222.972 195.075 223.4 191.4 224.63 188.287C225.442 186.324 226.961 183.905 229.264 183.478C232.753 182.966 235.683 186.794 237.175 189.51C237.918 190.91 238.572 192.388 239.052 193.937C239.196 194.284 239.352 194.464 239.597 194.565C239.932 194.589 240.184 194.607 240.369 194.367L250.854 186.602C251.117 186.453 251.213 186.291 251.231 186.04C251.248 185.788 251.182 185.531 251.027 185.352C246.576 180.406 239.901 178.334 233.365 177.873C220.043 176.932 208.599 183.955 207.689 198.038C206.79 210.775 214.966 219.015 226.428 221.256L226.286 223.267C226.263 223.602 226.496 223.871 226.825 223.979L227.316 224.182C227.4 224.188 227.4 224.188 227.4 224.188C227.646 224.289 227.891 224.391 228.137 224.492C229.759 225.365 231.077 226.974 231.467 228.601C231.582 229.367 231.702 230.049 231.481 230.792C231.165 231.696 230.615 232.33 229.591 232.511C228.652 232.697 227.658 232.458 226.844 232.064C226.197 231.682 225.64 231.221 225.173 230.683C225.173 230.683 225.089 230.677 225.095 230.593C224.311 229.78 223.711 228.727 223.531 227.704L223.405 227.105C223.345 226.764 223.105 226.579 222.686 226.549L215.229 226.023C214.81 225.993 214.457 226.221 214.427 226.64L214.38 227.31C214.327 228.064 214.357 228.824 214.561 229.513C215.156 231.828 216.791 233.712 218.881 235.123C221.216 236.635 224.023 237.423 226.872 237.624C229.721 237.825 232.612 237.44 235.136 236.271C237.404 235.168 239.287 233.532 240.201 231.323C240.416 230.665 240.637 229.922 240.69 229.168C240.738 228.498 240.623 227.732 240.503 227.05C239.903 224.818 238.429 223.03 236.423 221.625C241.599 221.064 246.529 219.223 250.249 215.443C250.524 215.126 250.553 214.707 250.326 214.354Z" fill="#FFF9F3"/>
<path d="M298.356 218.588L299.77 198.562C301.137 179.206 272.044 178.583 259.354 182.992C259.181 183.064 259.001 183.22 258.9 183.465C258.798 183.711 258.786 183.878 258.852 184.136L261.995 192.105C262.151 192.284 262.306 192.464 262.552 192.565C262.797 192.667 263.055 192.601 263.234 192.445C268.073 189.503 277.226 185.096 282.514 188.922C283.795 189.855 284.096 191.56 284.151 193.164C284.067 193.158 283.984 193.152 283.9 193.147C275.353 192.543 265.821 193.975 259.248 199.995C255.014 203.907 252.314 209.947 254.264 215.727C256.213 221.507 261.925 224.099 267.706 224.508C272.985 224.881 277.856 223.877 282.181 221.067L281.997 223.664C281.962 224.167 282.273 224.526 282.776 224.561L299.451 225.739C299.786 225.763 300.043 225.697 300.228 225.457C300.33 225.212 300.432 224.966 300.365 224.709L298.356 218.588ZM283.145 207.409C282.92 210.593 281.289 213.425 278.483 214.995C276.725 216.05 273.906 216.609 272.158 215.138C271.199 214.397 270.941 213.284 270.94 212.105C270.974 209.244 272.611 206.328 274.609 204.28C277.054 201.842 280.177 200.547 283.636 200.454L283.145 207.409Z" fill="#FFF9F3"/>
<path d="M345.704 230.016C359.195 230.968 370.638 223.945 371.638 209.784C372.638 195.624 362.206 187.14 348.799 186.193C335.476 185.252 324.117 192.281 323.123 206.358C322.123 220.519 332.298 229.069 345.704 230.016ZM351.093 195.449C353.477 198.649 354.947 202.879 355.596 206.799C356.162 210.713 356.184 215.177 354.906 218.961C354.16 221.181 352.612 224.019 349.973 224.423C347.334 224.826 345.04 222.727 343.578 220.771C341.194 217.571 339.724 213.341 339.075 209.422C338.503 205.592 338.487 201.043 339.765 197.26C340.511 195.039 342.059 192.201 344.698 191.798C347.337 191.395 349.625 193.577 351.093 195.449Z" fill="#FFF9F3"/>
<path d="M96.9368 294.552C96.7514 294.792 96.8175 295.049 96.9673 295.312C97.1171 295.576 97.3626 295.677 97.614 295.695L116.718 297.044C117.054 297.068 117.311 297.002 117.496 296.762C117.681 296.523 117.699 296.271 117.633 296.014L115.623 289.893L116.984 270.621C117.002 270.37 117.104 270.124 117.121 269.873C117.862 267.736 120.716 266.674 122.756 266.397C125.808 266.107 128.849 267.164 130.784 269.575C131.018 269.844 131.431 269.957 131.778 269.813C132.035 269.747 132.31 269.43 132.334 269.095L133.233 256.358C133.257 256.023 133.029 255.67 132.7 255.563C130.162 254.541 127.373 254.681 124.794 255.425C122.473 256.104 119.858 257.351 117.807 258.974L118.02 255.958C118.038 255.706 117.972 255.449 117.816 255.27C117.576 255.084 117.331 254.983 117.074 255.049L102.473 257.891C102.467 257.975 102.467 257.975 102.467 257.975L99.4693 258.69C99.212 258.756 98.9488 258.906 98.8472 259.151C98.7457 259.396 98.728 259.648 98.8778 259.911L101.395 264.805L99.703 288.769L96.9368 294.552Z" fill="#FFF9F3"/>
<path d="M149.259 283.847L163.733 280.407L173.241 278.131L176.239 277.416C176.586 277.272 176.861 276.955 176.891 276.536C176.929 264.075 170.382 257.803 157.981 256.927C144.658 255.986 133.383 263.021 132.389 277.098C131.389 291.259 141.564 299.809 154.97 300.756C162.176 301.265 169.776 299.78 174.948 294.504C175.223 294.186 175.253 293.767 175.025 293.414C174.797 293.061 174.301 292.942 173.954 293.086C170.986 294.561 167.665 295.084 164.397 294.853C163.392 294.782 162.476 294.633 161.482 294.395C156.173 293.262 150.706 289.592 149.331 284.021C149.337 283.937 149.337 283.937 149.259 283.847ZM148.093 277.702C147.815 274.482 147.98 270.957 149.031 268C149.771 265.863 151.122 263.432 153.365 262.664C153.539 262.592 153.79 262.61 153.964 262.538C158.565 261.768 161.107 266.327 161.846 270.168C162.086 271.532 162.153 272.969 161.975 274.303L148.093 277.702Z" fill="#FFF9F3"/>
<path d="M220.252 321.702L225.531 322.075C226.62 322.152 227.033 322.265 227.415 321.619C233.016 312.667 228.685 300.067 215.687 301.675C209.745 302.35 200.596 304.315 195.671 304.893C189.717 305.736 189.286 298.716 194.48 297.904C200.093 297.121 204.972 298.392 210.328 297.676C216.108 296.905 221.57 294.68 225.343 290.147C230.784 283.457 230.256 274.241 224.386 267.932C226.474 266.985 229.029 266.576 231.309 266.484C231.901 266.442 232.278 265.879 232.062 265.358L228.014 254.715C227.798 254.194 227.307 253.991 226.87 254.213C222.946 256.125 220.1 259.461 218.062 263.275C214.398 261.5 210.25 260.618 206.144 260.328C181.007 258.553 173.693 281.026 187.395 292.098C181.436 294.204 175.429 302.958 178.439 310.413C180.79 316.474 186.777 318.749 192.977 319.187C198.262 319.476 210.038 317.276 215.34 316.135C219.792 315.102 221.954 317.865 219.742 320.572C219.736 320.655 219.652 320.65 219.652 320.65C219.557 320.811 219.545 320.979 219.623 321.069C219.617 321.152 219.611 321.236 219.605 321.32C219.689 321.326 219.683 321.41 219.683 321.41C219.839 321.589 220 321.685 220.252 321.702ZM212.628 278.217C213.127 280.695 213.177 283.561 212.329 286.028C210.401 291.87 205.32 292.269 201.253 287.856C199.144 285.518 197.765 282.389 197.14 279.313C196.647 276.752 196.675 273.975 197.445 271.419C198.197 269.114 199.871 266.875 202.498 266.639C204.868 266.47 207.036 267.97 208.599 269.68C210.708 272.019 212.087 275.148 212.628 278.217Z" fill="#FFF9F3"/>
<path d="M249.971 299.38L252.367 265.445C252.385 265.194 252.319 264.936 252.163 264.757C251.924 264.572 251.678 264.47 251.421 264.536L236.821 267.379C236.815 267.462 236.815 267.462 236.815 267.462L233.817 268.177C233.56 268.243 233.296 268.393 233.195 268.638C233.093 268.884 233.076 269.135 233.225 269.398L235.743 274.292L234.051 298.256L231.284 304.04C231.099 304.279 231.165 304.537 231.315 304.8C231.465 305.063 231.71 305.164 231.962 305.182L251.066 306.531C251.401 306.555 251.658 306.489 251.844 306.249C252.029 306.01 252.047 305.759 251.981 305.501L249.971 299.38ZM236.372 252.273C236.04 256.966 239.628 261.009 244.321 261.34L244.404 261.346L244.488 261.352C249.175 261.767 253.301 258.185 253.633 253.492C253.97 248.716 250.382 244.673 245.689 244.342L245.606 244.336L245.522 244.33C240.829 243.999 236.709 247.497 236.372 252.273Z" fill="#FFF9F3"/>
<path d="M292.655 270.816C292.672 270.565 292.517 270.385 292.277 270.2C287.445 267.08 282.991 265.755 277.21 265.347C272.685 265.027 267.7 265.265 263.818 267.769C262.4 268.764 261.048 270.016 260.026 271.375C258.334 273.866 257.266 277.075 257.556 280.127C257.796 281.491 258.204 282.867 258.965 284.016C260.253 286.044 262.158 287.694 263.996 289.087C265.362 290.025 266.733 290.88 268.104 291.735C269.637 292.685 271.098 293.462 272.637 294.328C274.014 295.099 275.301 295.948 276.589 296.797C277.714 297.55 280.122 299.236 280.009 300.828C279.82 303.509 276.384 303.267 274.559 302.885C273.481 302.641 272.332 302.223 271.451 301.571C267.739 299.288 264.708 295.705 261.904 292.476C261.665 292.291 261.503 292.195 261.252 292.177C261 292.159 260.737 292.309 260.558 292.465L253.282 301.298C253.18 301.544 253.084 301.706 253.15 301.963C253.133 302.214 253.288 302.394 253.444 302.573C258.492 306.214 264.557 308.579 270.841 309.023C280.226 309.685 291.439 307.109 292.238 295.797C292.705 289.177 287.771 285.124 282.514 282.058C280.741 280.922 278.873 279.948 277.005 278.974C275.46 278.191 273.844 277.235 272.484 276.213C270.011 274.27 269.583 270.787 273.605 271.071C277.544 271.349 282.126 276.809 284.624 279.596C284.774 279.86 285.019 279.961 285.277 279.895C285.528 279.913 285.702 279.841 285.887 279.601L292.523 271.481C292.709 271.241 292.721 271.073 292.655 270.816Z" fill="#FFF9F3"/>
<path d="M295.827 298.661C295.253 306.789 299.404 311.208 307.448 311.776C313.397 312.196 317.825 311.498 322.509 308.377C322.772 308.227 322.874 307.981 322.891 307.73L323.335 301.445C323.359 301.11 323.209 300.847 322.886 300.656C322.646 300.471 322.305 300.531 322.036 300.764C317.155 304.293 311.446 304.058 311.954 296.852L313.392 276.491L323.547 281.755C323.792 281.857 324.127 281.881 324.391 281.731C324.654 281.581 324.755 281.336 324.773 281.084L325.513 270.61C325.548 270.108 325.237 269.749 324.734 269.713L313.925 268.95L315.043 253.113C315.061 252.862 314.995 252.605 314.839 252.425C314.6 252.24 314.348 252.222 314.097 252.204L299.49 255.131L296.493 255.845C296.235 255.911 295.972 256.061 295.871 256.307C295.769 256.552 295.751 256.804 295.901 257.067L298.419 261.96L295.827 298.661Z" fill="#FFF9F3"/>
<path d="M349.589 314.499C363.079 315.452 374.522 308.429 375.522 294.268C376.522 280.107 366.09 271.623 352.683 270.676C339.36 269.736 328.001 276.765 327.007 290.842C326.007 305.003 336.182 313.553 349.589 314.499ZM354.977 279.933C357.361 283.133 358.831 287.363 359.481 291.282C360.046 295.196 360.068 299.661 358.79 303.444C358.044 305.665 356.496 308.503 353.857 308.906C351.218 309.309 348.924 307.21 347.463 305.255C345.078 302.055 343.608 297.825 342.959 293.905C342.387 290.075 342.372 285.527 343.649 281.744C344.396 279.523 345.943 276.685 348.582 276.281C351.221 275.878 353.509 278.061 354.977 279.933Z" fill="#FFF9F3"/>
</svg>
