<svg viewBox="0 0 334 333" fill="none" xmlns="http://www.w3.org/2000/svg">
<path d="M86.0094 89.9121C91.352 32.387 165.375 12.5525 198.765 59.6994C209.262 74.5222 225.712 84.0193 243.797 85.699C301.322 91.0417 321.157 165.065 274.01 198.454C259.187 208.952 249.69 225.401 248.01 243.487C242.668 301.012 168.645 320.847 135.255 273.7C124.758 258.877 108.308 249.38 90.2225 247.7C32.6973 242.357 12.8629 168.334 60.0098 134.945C74.8326 124.447 84.3296 107.998 86.0094 89.9121Z" fill="#FF7DD6"/>
<path d="M121.592 141.409C121.71 141.386 121.82 141.324 121.883 141.23C121.986 141.129 122.002 141.003 121.979 140.886L120.946 135.585C120.9 135.35 120.666 135.192 120.43 135.238C113.402 136.607 106.335 137.984 99.3073 139.354C99.1503 139.384 99.0478 139.486 98.9922 139.619C98.9367 139.752 98.9596 139.87 99.0295 140.019L100.664 142.553L104.719 163.362L104.156 166.324C104.139 166.45 104.17 166.607 104.271 166.709C104.373 166.812 104.498 166.828 104.655 166.798L113.607 165.053C113.725 165.03 113.835 164.968 113.89 164.835C113.946 164.702 113.955 164.537 113.853 164.435L112.218 161.901L110.329 152.203L120.638 151.987C120.763 152.003 120.873 151.941 120.976 151.84C121.039 151.746 121.055 151.621 121.032 151.503L119.946 145.928C119.908 145.731 119.712 145.566 119.477 145.612L109.426 147.57L108.393 142.27L121.592 141.409ZM144.077 155.692L142.248 146.309C140.481 137.239 127.026 140.554 121.737 144.152C121.666 144.207 121.603 144.301 121.586 144.426C121.57 144.552 121.585 144.63 121.648 144.74L124.079 148.016C124.173 148.079 124.267 148.142 124.392 148.158C124.517 148.175 124.628 148.112 124.691 148.019C126.552 146.067 130.215 142.908 133.12 144.012C133.825 144.283 134.174 145.03 134.398 145.76C134.359 145.768 134.32 145.775 134.28 145.783C130.276 146.564 126.07 148.402 123.793 151.984C122.33 154.306 121.836 157.418 123.448 159.835C125.06 162.251 128.007 162.736 130.716 162.208C133.19 161.726 135.305 160.662 136.946 158.834L137.183 160.051C137.229 160.287 137.417 160.413 137.652 160.367L145.465 158.845C145.622 158.814 145.732 158.752 145.788 158.619C145.804 158.494 145.821 158.368 145.758 158.258L144.077 155.692ZM135.699 152.435C135.989 153.927 135.59 155.431 134.494 156.5C133.816 157.203 132.589 157.809 131.603 157.349C131.071 157.126 130.814 156.647 130.668 156.105C130.329 154.785 130.721 153.242 131.386 152.052C132.209 150.629 133.485 149.647 135.064 149.176L135.699 152.435ZM166.923 150.833C166.775 150.699 166.532 150.705 166.398 150.854C165.208 151.86 163.746 152.511 162.214 152.81C161.743 152.902 161.304 152.947 160.825 152.999C156.745 153.183 153.824 150.533 152.493 146.839C151.959 145.354 151.701 143.611 151.881 142.027C152.012 141.024 152.41 139.723 153.417 139.242C154.958 138.575 156.779 139.973 157.801 141.037C158.316 141.588 158.8 142.187 159.212 142.84C159.321 142.982 159.415 143.045 159.54 143.061C159.697 143.031 159.815 143.008 159.871 142.875L163.731 138.006C163.833 137.905 163.857 137.819 163.834 137.701C163.811 137.583 163.749 137.473 163.655 137.41C160.997 135.687 157.671 135.56 154.609 136.157C148.366 137.374 143.974 142.02 145.298 148.608C146.461 154.576 151.241 157.353 156.789 156.964L156.973 157.907C157.003 158.064 157.144 158.158 157.309 158.167L157.559 158.2C157.599 158.192 157.599 158.192 157.599 158.192C157.724 158.208 157.85 158.225 157.975 158.241C158.829 158.441 159.634 159.018 160.015 159.718C160.163 160.056 160.302 160.355 160.293 160.724C160.259 161.178 160.085 161.538 159.636 161.748C159.228 161.95 158.741 161.963 158.318 161.883C157.973 161.787 157.66 161.644 157.379 161.454C157.379 161.454 157.339 161.462 157.332 161.423C156.87 161.146 156.464 160.736 156.255 160.288L156.123 160.028C156.053 159.879 155.92 159.823 155.723 159.862L152.229 160.543C152.033 160.581 151.899 160.729 151.937 160.925L151.998 161.24C152.067 161.593 152.175 161.939 152.354 162.23C152.914 163.221 153.899 163.885 155.035 164.275C156.296 164.681 157.684 164.696 159.019 164.436C160.354 164.176 161.635 163.641 162.652 162.791C163.558 162.003 164.221 161.017 164.368 159.889C164.385 159.559 164.395 159.191 164.326 158.837C164.265 158.523 164.118 158.185 163.978 157.886C163.426 156.934 162.527 156.294 161.43 155.897C163.741 154.998 165.78 153.541 167.023 151.343C167.11 151.163 167.072 150.967 166.923 150.833ZM189.532 146.834L187.704 137.451C185.936 128.381 172.482 131.696 167.193 135.294C167.122 135.349 167.059 135.443 167.042 135.568C167.026 135.693 167.041 135.772 167.103 135.882L169.535 139.158C169.629 139.221 169.723 139.284 169.848 139.3C169.973 139.317 170.084 139.254 170.147 139.161C172.008 137.209 175.671 134.05 178.576 135.154C179.281 135.425 179.63 136.171 179.854 136.902C179.815 136.91 179.775 136.917 179.736 136.925C175.732 137.706 171.526 139.544 169.249 143.126C167.786 145.448 167.292 148.56 168.904 150.976C170.516 153.393 173.463 153.878 176.172 153.35C178.646 152.868 180.761 151.804 182.402 149.976L182.639 151.193C182.685 151.429 182.872 151.555 183.108 151.509L190.921 149.987C191.078 149.956 191.188 149.894 191.244 149.761C191.26 149.636 191.276 149.51 191.214 149.4L189.532 146.834ZM181.155 143.577C181.445 145.069 181.046 146.573 179.95 147.642C179.272 148.345 178.045 148.951 177.059 148.491C176.527 148.268 176.27 147.789 176.124 147.247C175.785 145.927 176.177 144.384 176.842 143.194C177.665 141.771 178.94 140.789 180.52 140.318L181.155 143.577ZM212.719 146.228C219.04 144.996 223.433 140.35 222.14 133.715C220.846 127.08 214.999 124.47 208.718 125.694C202.475 126.911 198.122 131.549 199.407 138.145C200.7 144.78 206.437 147.452 212.719 146.228ZM210.918 129.667C212.411 130.843 213.61 132.606 214.394 134.328C215.138 136.058 215.701 138.108 215.582 140.006C215.513 141.119 215.153 142.616 213.989 143.128C212.826 143.64 211.511 142.959 210.597 142.24C209.104 141.064 207.905 139.301 207.121 137.579C206.384 135.889 205.814 133.799 205.933 131.902C206.002 130.788 206.362 129.291 207.526 128.779C208.689 128.267 210.011 128.988 210.918 129.667ZM106.319 206.696C106.263 206.829 106.325 206.939 106.427 207.042C106.528 207.144 106.654 207.161 106.771 207.138L115.723 205.393C115.88 205.363 115.99 205.3 116.046 205.167C116.101 205.034 116.078 204.916 116.016 204.806L114.334 202.241L112.575 193.21C112.552 193.093 112.568 192.967 112.545 192.849C112.621 191.775 113.802 190.934 114.706 190.554C116.073 190.043 117.603 190.152 118.791 191.021C118.931 191.116 119.135 191.117 119.277 191.008C119.387 190.946 119.474 190.766 119.444 190.609L118.281 184.641C118.25 184.484 118.102 184.35 117.937 184.341C116.644 184.186 115.379 184.595 114.285 185.257C113.301 185.856 112.254 186.753 111.511 187.753L111.236 186.34C111.213 186.222 111.151 186.112 111.057 186.049C110.924 185.993 110.798 185.977 110.688 186.039L104.326 189.153C104.334 189.193 104.334 189.193 104.334 189.193L103.044 189.892C102.934 189.954 102.831 190.056 102.815 190.181C102.799 190.307 102.822 190.425 102.923 190.527L104.687 192.466L106.875 203.694L106.319 206.696ZM129.052 195.297L135.282 191.923L139.372 189.7L140.662 189C140.804 188.891 140.891 188.711 140.853 188.515C139.328 182.781 135.541 180.707 129.731 181.839C123.488 183.056 119.174 187.686 120.46 194.282C121.753 200.917 127.49 203.589 133.771 202.365C137.148 201.707 140.459 200.084 142.184 197.017C142.271 196.837 142.233 196.641 142.084 196.507C141.936 196.373 141.693 196.379 141.551 196.489C140.369 197.534 138.907 198.186 137.376 198.484C136.905 198.576 136.465 198.621 135.979 198.634C133.397 198.77 130.429 197.759 129.107 195.368C129.099 195.329 129.099 195.329 129.052 195.297ZM127.756 192.616C127.229 191.17 126.869 189.528 126.986 188.039C127.062 186.964 127.382 185.679 128.319 185.048C128.389 184.994 128.507 184.971 128.578 184.916C130.599 183.993 132.332 185.774 133.147 187.449C133.426 188.047 133.635 188.699 133.718 189.335L127.756 192.616ZM166.382 203.916L168.856 203.434C169.366 203.335 169.57 203.336 169.666 202.991C171.133 198.182 167.582 192.924 161.804 195.272C159.155 196.318 155.192 198.354 152.999 199.23C150.365 200.354 149.298 197.18 151.586 196.163C154.07 195.109 156.471 195.089 158.845 194.097C161.407 193.027 163.644 191.328 164.817 188.776C166.491 185.027 165.107 180.854 161.627 178.68C162.47 177.986 163.594 177.481 164.631 177.157C164.899 177.064 165.002 176.759 164.838 176.546L161.66 172.153C161.496 171.94 161.245 171.908 161.072 172.064C159.504 173.429 158.608 175.315 158.143 177.321C156.239 176.959 154.222 177.066 152.298 177.441C140.52 179.737 139.939 190.975 147.61 194.371C145.13 196.076 143.451 200.846 145.758 203.901C147.59 206.397 150.624 206.702 153.529 206.136C155.995 205.614 161.138 203.145 163.434 201.964C165.353 200.938 166.69 201.941 166.008 203.459C166.015 203.499 165.976 203.506 165.976 203.506C165.952 203.592 165.968 203.671 166.014 203.703C166.022 203.742 166.03 203.781 166.037 203.82C166.077 203.813 166.084 203.852 166.084 203.852C166.178 203.915 166.264 203.939 166.382 203.916ZM157.494 184.865C158.03 185.942 158.408 187.254 158.323 188.493C158.16 191.418 155.873 192.231 153.456 190.705C152.197 189.89 151.176 188.622 150.508 187.285C149.964 186.169 149.633 184.889 149.671 183.618C149.732 182.465 150.224 181.228 151.403 180.794C152.472 180.423 153.654 180.845 154.585 181.438C155.844 182.252 156.865 183.52 157.494 184.865ZM177.285 189.973L174.186 174.073C174.163 173.955 174.101 173.845 174.007 173.781C173.874 173.726 173.749 173.71 173.638 173.772L167.277 176.886C167.284 176.925 167.284 176.925 167.284 176.925L165.994 177.625C165.884 177.687 165.782 177.789 165.765 177.914C165.749 178.04 165.772 178.157 165.873 178.26L167.637 180.198L169.825 191.427L169.269 194.429C169.213 194.562 169.276 194.672 169.377 194.775C169.478 194.877 169.604 194.893 169.722 194.87L178.673 193.126C178.83 193.095 178.94 193.033 178.996 192.9C179.052 192.767 179.029 192.649 178.966 192.539L177.285 189.973ZM165.2 169.996C165.629 172.195 167.779 173.609 169.978 173.181L170.017 173.173L170.056 173.166C172.263 172.777 173.717 170.619 173.288 168.42C172.852 166.182 170.702 164.767 168.503 165.196L168.464 165.203L168.425 165.211C166.226 165.639 164.764 167.758 165.2 169.996ZM193.376 171.556C193.353 171.438 193.259 171.375 193.126 171.319C190.518 170.482 188.306 170.424 185.597 170.952C183.477 171.366 181.214 172.092 179.739 173.724C179.21 174.357 178.744 175.1 178.442 175.851C177.972 177.206 177.878 178.814 178.389 180.181C178.668 180.779 179.026 181.361 179.519 181.795C180.362 182.568 181.442 183.091 182.46 183.504C183.204 183.767 183.94 183.99 184.676 184.213C185.499 184.461 186.267 184.637 187.081 184.845C187.81 185.029 188.507 185.26 189.204 185.491C189.815 185.698 191.131 186.175 191.276 186.921C191.521 188.177 189.911 188.491 189.024 188.542C188.499 188.562 187.918 188.513 187.433 188.322C185.443 187.732 183.606 186.459 181.917 185.321C181.784 185.266 181.698 185.242 181.58 185.265C181.462 185.288 181.36 185.389 181.297 185.483L179.044 190.446C179.028 190.571 179.004 190.657 179.066 190.767C179.089 190.885 179.183 190.948 179.277 191.012C182.049 192.061 185.13 192.398 188.075 191.824C192.472 190.967 197.309 188.394 196.276 183.094C195.672 179.992 192.901 178.739 190.104 177.98C189.149 177.677 188.169 177.461 187.19 177.244C186.382 177.075 185.521 176.836 184.769 176.534C183.391 175.946 182.764 174.398 184.648 174.031C186.493 173.671 189.276 175.615 190.77 176.587C190.872 176.689 190.997 176.706 191.107 176.643C191.225 176.621 191.296 176.566 191.351 176.433L193.398 171.877C193.453 171.744 193.438 171.666 193.376 171.556ZM198.281 183.966C199.023 187.775 201.479 189.293 205.248 188.559C208.036 188.015 209.986 187.146 211.753 185.131C211.855 185.03 211.871 184.904 211.849 184.787L211.275 181.842C211.244 181.685 211.143 181.582 210.97 181.535C210.837 181.479 210.688 181.549 210.593 181.69C208.786 183.916 206.131 184.515 205.473 181.139L203.614 171.598L208.935 172.762C209.06 172.778 209.217 172.748 209.32 172.646C209.422 172.545 209.438 172.419 209.416 172.301L208.459 167.394C208.413 167.158 208.226 167.032 207.99 167.078L202.925 168.065L201.479 160.644C201.456 160.526 201.394 160.416 201.3 160.353C201.167 160.297 201.049 160.32 200.932 160.343L194.578 163.497L193.288 164.197C193.177 164.259 193.075 164.36 193.059 164.486C193.042 164.611 193.065 164.729 193.167 164.831L194.93 166.77L198.281 183.966ZM224.962 184.595C231.284 183.363 235.676 178.717 234.383 172.082C233.09 165.447 227.243 162.837 220.961 164.061C214.718 165.277 210.365 169.916 211.651 176.512C212.944 183.147 218.681 185.819 224.962 184.595ZM223.161 168.033C224.654 169.21 225.853 170.973 226.637 172.695C227.382 174.424 227.944 176.474 227.825 178.372C227.757 179.486 227.396 180.982 226.233 181.494C225.069 182.006 223.755 181.325 222.84 180.607C221.348 179.431 220.149 177.668 219.365 175.946C218.628 174.255 218.058 172.166 218.177 170.268C218.245 169.154 218.605 167.658 219.769 167.146C220.933 166.634 222.255 167.354 223.161 168.033Z" fill="#FFF9F3"/>
</svg>
