<svg width="118" height="20" viewBox="0 0 118 20" fill="none" xmlns="http://www.w3.org/2000/svg">
<path d="M11.9189 6.51351H12.1892L11.9189 1.75676C10.4324 0.945945 8.32432 0.54054 6.67568 0.54054C2.97297 0.54054 0 2.43243 0 6C0 11.8919 9.27027 11.5946 9.27027 16.4865C9.27027 18.8108 7.64865 19.7297 6.10811 19.7297C3.10811 19.7297 1.18919 17.1351 0.297297 13.6216H0.027027L0.297297 18.6486C1.78378 19.4595 4.13514 20 6.08108 20C9.7027 20 13.027 18.1622 13.027 14C13.027 7.86487 3.75676 7.94595 3.75676 3.32432C3.75676 1.54054 5.13513 0.81081 6.7027 0.81081C9.24324 0.81081 11.027 3.59459 11.9189 6.51351Z" fill="black" fill-opacity="0.3"/>
<path d="M23.8201 8.10811V16.8919C23.2796 17.3514 22.4958 17.973 21.2525 17.973C20.2796 17.973 19.7931 17.3243 19.7931 16.2703V5.94595H19.3066L13.685 6.59459V6.86486C15.1174 7 15.2796 7.10811 15.2796 8.10811V15.9459C15.2796 18.9189 16.9823 20 18.9823 20C20.9552 20 22.5769 18.7838 23.8201 17.1622H23.9552L24.0633 20H24.3336L29.9282 19.3514V19.0811C28.4958 18.9459 28.3336 18.8378 28.3336 17.8378V5.94595H27.8471L21.685 6.59459V6.86486C23.6579 7 23.8201 7.10811 23.8201 8.10811Z" fill="black" fill-opacity="0.3"/>
<path d="M36.0182 7.94595H35.883L36.0182 0H35.7479L29.91 0.648648V0.918918C31.3425 1.05405 31.5046 1.16216 31.5046 2.16216V19.8649H31.7749L33.9641 18.3784C35.3425 19.6486 37.0182 20 38.3965 20C42.1803 20 45.1533 17.3243 45.1533 12.973C45.1533 8.91892 43.1263 5.94595 39.7209 5.94595C38.0992 5.94595 36.883 6.72973 36.0182 7.94595ZM37.6398 7.56757C39.1803 7.56757 40.3965 9.24324 40.3965 13.1892C40.3965 16.6216 39.7479 19.6216 38.0182 19.6216C37.2884 19.6216 36.0182 19.3243 36.0182 16.4324V8.21622C36.5317 7.78378 37.0722 7.56757 37.6398 7.56757Z" fill="black" fill-opacity="0.3"/>
<path d="M46.258 8.24324L51.258 19.8649H53.6094L57.8526 8.40541C58.258 7.35135 58.5553 6.72973 59.8526 6.48649V6.21622H54.5553V6.48649C57.4742 6.64865 57.8526 7.43243 57.4742 8.48649L54.5553 16.3514H54.5013L51.3932 8.48649C51.0148 7.54054 51.1229 6.64865 52.6905 6.48649V6.21622H44.6634V6.48649C45.5013 6.59459 45.8796 7.35135 46.258 8.24324Z" fill="black" fill-opacity="0.3"/>
<path d="M61.2766 2.75676C61.2766 4.18919 62.4388 4.91892 63.8712 4.91892C65.3307 4.91892 66.4658 4.18919 66.4658 2.75676C66.4658 1.2973 65.3307 0.54054 63.8712 0.54054C62.4388 0.54054 61.2766 1.2973 61.2766 2.75676ZM66.2496 18.4324V5.94595H65.9793L60.1415 6.59459V6.86486C61.5739 7 61.7361 7.10811 61.7361 8.10811V18.4324C61.7361 19.2162 61.5739 19.3243 60.1415 19.4595V19.7297H67.8442V19.4595C66.4117 19.3243 66.2496 19.2162 66.2496 18.4324Z" fill="black" fill-opacity="0.3"/>
<path d="M77.8891 10.2703H78.1594L77.8891 6.78378C76.8081 6.27027 75.0783 5.94595 73.8081 5.94595C70.1864 5.94595 68.5918 7.72973 68.5918 9.89189C68.5918 14.8108 75.7 14.6487 75.7 17.8378C75.7 19.027 74.8351 19.7297 73.4567 19.7297C71.4027 19.7297 69.6189 18.3243 68.727 15.4054H68.4567L68.754 19.0541C69.8351 19.5946 71.9162 20 73.3216 20C76.781 20 78.9162 18.3243 78.9162 15.7568C78.9162 11.1351 71.9973 11.2973 71.9973 7.86487C71.9973 6.81081 72.6189 6.21622 73.754 6.21622C75.5108 6.21622 77.1594 8.35135 77.8891 10.2703Z" fill="black" fill-opacity="0.3"/>
<path d="M89.4609 8.10811V16.8919C88.9204 17.3514 88.1366 17.973 86.8934 17.973C85.9204 17.973 85.4339 17.3243 85.4339 16.2703V5.94595H84.9474L79.3258 6.59459V6.86486C80.7582 7 80.9204 7.10811 80.9204 8.10811V15.9459C80.9204 18.9189 82.6231 20 84.6231 20C86.5961 20 88.2177 18.7838 89.4609 17.1622H89.5961L89.7042 20H89.9744L95.569 19.3514V19.0811C94.1366 18.9459 93.9744 18.8378 93.9744 17.8378V5.94595H93.488L87.3258 6.59459V6.86486C89.2988 7 89.4609 7.10811 89.4609 8.10811Z" fill="black" fill-opacity="0.3"/>
<path d="M107.875 18.027V10.0811C107.929 7.78378 106.037 5.94595 102.686 5.94595C98.7941 5.94595 96.6049 8.83784 96.6049 10.3784C96.6049 11.4054 97.4428 11.7838 98.3347 11.7838C99.3347 11.7838 100.037 11.2703 100.037 10.6486C100.037 9.86487 98.4428 9.59459 98.4428 8.51351C98.4428 7.45946 99.5779 6.81081 100.713 6.81081C102.632 6.81081 103.362 8.27027 103.362 9.78378V12.5135C97.4968 12.8649 96.1995 15.1351 96.1995 16.8108C96.1995 18.5946 97.3617 20 99.4157 20C101.037 20 102.389 19.1892 103.308 17.8378H103.362V18.1622C103.362 19.1622 104.064 20 105.605 20C107.145 20 108.524 19.2973 109.632 18.4054L109.605 18.1892C109.254 18.4054 108.821 18.6486 108.497 18.6486C108.091 18.6486 107.875 18.4054 107.875 18.027ZM103.362 12.7838V17.5676C103.01 17.7838 102.686 18 102.2 18C101.335 18 100.794 17.3784 100.794 15.7838C100.794 13.7568 101.713 13 103.362 12.7838Z" fill="black" fill-opacity="0.3"/>
<path d="M116.054 18.4324V0H115.784L109.946 0.648648V0.918918C111.379 1.05405 111.541 1.16216 111.541 2.16216V18.4324C111.541 19.2162 111.379 19.3243 109.946 19.4595V19.7297H117.649V19.4595C116.216 19.3243 116.054 19.2162 116.054 18.4324Z" fill="black" fill-opacity="0.3"/>
</svg>
