<svg viewBox="0 0 471 479" fill="none" xmlns="http://www.w3.org/2000/svg">
<path d="M16.6717 288.817C-4.63052 259.58 -4.68392 219.951 16.5395 190.656L129.358 34.935C150.581 5.64061 188.254 -6.65614 222.673 4.47604L405.635 63.6519C440.054 74.7841 463.391 106.813 463.439 142.987L463.698 335.282C463.747 371.456 440.497 403.548 406.108 414.773L223.306 474.441C188.917 485.666 151.211 473.471 129.909 444.234L16.6717 288.817Z" fill="#4355FF"/>
<path d="M153.736 237.524C189.077 210.587 151.753 161.617 116.412 188.554C82.1396 214.676 119.464 263.645 153.736 237.524ZM140.13 231.312C134.075 230.435 128.172 227.541 123.488 223.612C119.784 220.415 116.493 216.375 114.777 211.768C113.507 208.3 113.09 204.288 114.642 200.782C115.236 199.483 116.102 198.401 117.069 197.453C120.756 194.115 126.161 193.586 130.871 194.221C136.925 195.098 142.828 197.993 147.512 201.921C151.216 205.118 154.507 209.158 156.223 213.765C157.56 217.182 157.977 221.194 156.358 224.752C155.713 225.983 154.898 227.132 153.931 228.08C150.244 231.418 144.839 231.948 140.13 231.312ZM201.912 197.636C201.931 197.938 202.15 198.088 202.437 198.186C202.723 198.285 202.974 198.199 203.175 198.046L218.407 186.437C218.674 186.233 218.824 186.013 218.738 185.762C218.719 185.46 218.633 185.208 218.346 185.11L212.86 181.792L198.399 162.819C193.918 156.94 187.577 155.964 181.765 160.394C179.309 162.161 177.327 164.41 176.055 167.176C175.082 169.502 174.395 171.926 173.708 174.351L171.06 170.877C170.907 170.676 170.688 170.527 170.386 170.546C170.15 170.514 169.899 170.6 169.749 170.82L158.94 185.184C158.791 185.404 158.692 185.69 158.778 185.941C158.864 186.193 159.017 186.393 159.303 186.492L164.089 188.336L179.11 208.044L180.734 213.778C180.753 214.08 180.972 214.229 181.259 214.328C181.545 214.426 181.797 214.341 181.997 214.188L197.229 202.578C197.496 202.374 197.646 202.155 197.627 201.853C197.607 201.55 197.455 201.35 197.235 201.2L191.682 197.934L178.8 181.032C179.191 179.466 179.7 177.916 180.31 176.501C180.905 175.202 182.295 172.453 183.956 172.138C185.063 171.928 186.215 173.162 186.826 173.964L200.167 191.467L201.912 197.636ZM222.971 134.585C218.583 134.233 214.613 135.675 210.919 138.173C209.214 139.262 207.83 140.633 206.548 142.138C203.67 145.706 202.057 150.103 201.924 154.64C201.779 159.715 203.53 164.506 206.636 168.582C212.542 176.331 223.606 179.622 232.667 175.991C235.699 174.841 238.304 172.856 240.385 170.319C242.28 167.818 243.333 164.903 243.797 161.909L245.783 164.515C246.089 164.916 246.626 164.928 246.96 164.674L260.322 154.49C260.522 154.337 260.672 154.118 260.652 153.815C260.633 153.513 260.481 153.313 260.261 153.163L254.775 149.846L224.02 109.494C223.867 109.294 223.581 109.195 223.345 109.163C223.043 109.182 222.843 109.335 222.642 109.488L213.678 121.284L213.611 121.335L211.833 123.852C211.684 124.072 211.652 124.307 211.738 124.558C211.757 124.861 211.977 125.01 212.196 125.16L217.319 127.17L222.971 134.585ZM236.831 154.017C237.636 156.043 238.009 158.611 236.883 160.737C236.784 161.023 236.568 161.293 236.352 161.564C236.136 161.834 235.868 162.038 235.534 162.293C233.781 163.734 231.195 163.805 229.025 163.452C225.811 162.838 222.807 161.115 220.389 159.05C217.684 156.887 215.023 153.951 213.973 150.632C213.301 148.504 213.418 146.302 214.681 144.495C216.144 142.534 218.709 141.742 221.028 141.875C224.726 142.014 228.133 143.853 230.94 146.149C233.359 148.214 235.631 150.918 236.831 154.017ZM266.714 130.184L275.306 118.038L280.939 110.048L282.717 107.531C282.882 107.193 282.879 106.774 282.625 106.439C274.42 97.0612 265.362 96.6778 255.475 104.214C244.852 112.31 241.036 125.041 249.591 136.264C258.196 147.555 271.483 147.25 282.172 139.103C287.918 134.724 292.641 128.589 293.038 121.21C293.035 120.79 292.78 120.456 292.376 120.342C291.972 120.227 291.52 120.466 291.355 120.803C290.102 123.871 287.954 126.458 285.349 128.444C284.547 129.055 283.761 129.548 282.858 130.026C278.124 132.683 271.595 133.54 266.882 130.267C266.832 130.2 266.832 130.2 266.714 130.184ZM261.778 126.342C259.443 124.109 257.237 121.354 256.072 118.439C255.216 116.346 254.624 113.629 255.8 111.57C255.883 111.401 256.084 111.249 256.166 111.08C259.112 107.462 264.031 109.205 267.124 111.6C268.206 112.465 269.205 113.499 269.953 114.619L261.778 126.342ZM195.124 305.469C199.579 305.771 203.534 304.446 207.243 301.83C208.948 300.742 210.383 299.437 211.614 297.865C214.426 294.349 216.156 289.967 216.238 285.363C216.383 280.288 214.633 275.497 211.527 271.422C205.671 263.739 194.556 260.381 185.496 264.013C182.397 265.213 179.791 267.199 177.829 269.751C175.882 272.185 174.829 275.1 174.298 278.145L172.313 275.54C172.007 275.139 171.536 275.075 171.135 275.381L170.868 275.584C170.801 275.635 170.734 275.686 170.652 275.855L170.353 276.294L161.92 287.263C161.971 287.33 161.971 287.33 161.971 287.33L160.193 289.847C160.043 290.066 159.945 290.353 160.031 290.604C160.116 290.855 160.269 291.056 160.556 291.154L165.679 293.164L194.143 330.51C194.295 330.71 194.515 330.859 194.817 330.84C195.053 330.872 195.371 330.735 195.52 330.516L204.484 318.719L206.329 316.151C206.479 315.932 206.51 315.696 206.425 315.445C206.339 315.194 206.186 314.993 205.899 314.895L200.777 312.885L195.124 305.469ZM181.316 286.104C180.526 283.96 180.153 281.393 181.279 279.267C181.429 279.047 181.594 278.71 181.744 278.491C182.027 278.169 182.294 277.965 182.628 277.711C184.381 276.269 186.968 276.199 189.138 276.552C192.285 277.216 195.355 278.889 197.774 280.954C200.412 283.168 203.19 286.12 204.24 289.438C204.861 291.5 204.795 293.768 203.481 295.509C201.951 297.52 199.454 298.262 197.067 298.18C193.488 298.056 189.962 296.202 187.222 293.854C184.737 291.841 182.465 289.136 181.316 286.104ZM246.219 272.124C256.975 263.926 260.924 251.093 252.319 239.803C243.713 228.512 230.277 229.036 219.588 237.183C208.966 245.28 205.083 258.061 213.637 269.285C222.243 280.575 235.53 280.271 246.219 272.124ZM227.425 242.616C231.33 243.443 235.228 245.647 238.305 248.16C241.315 250.724 244.281 254.061 245.822 257.745C246.729 259.906 247.442 263.059 245.728 265.105C244.013 267.151 240.904 267.091 238.515 266.589C234.611 265.762 230.713 263.558 227.636 261.045C224.676 258.548 221.659 255.144 220.119 251.46C219.211 249.299 218.498 246.147 220.213 244.1C221.927 242.054 225.087 242.181 227.425 242.616ZM269.846 204.476C265.458 204.123 261.487 205.565 257.794 208.063C256.089 209.152 254.705 210.523 253.423 212.029C250.544 215.596 248.932 219.993 248.799 224.53C248.653 229.605 250.404 234.397 253.51 238.472C259.417 246.222 270.48 249.513 279.541 245.881C282.573 244.732 285.179 242.746 287.259 240.21C289.155 237.708 290.208 234.794 290.672 231.8L292.657 234.405C292.963 234.806 293.501 234.819 293.835 234.564L307.196 224.38C307.397 224.227 307.546 224.008 307.527 223.706C307.508 223.403 307.355 223.203 307.136 223.053L301.65 219.736L270.894 179.384C270.742 179.184 270.455 179.085 270.22 179.053C269.917 179.073 269.717 179.225 269.517 179.378L260.553 191.174L260.486 191.225L258.708 193.742C258.558 193.962 258.526 194.197 258.612 194.449C258.631 194.751 258.851 194.9 259.071 195.05L264.194 197.06L269.846 204.476ZM283.705 223.907C284.511 225.934 284.883 228.501 283.758 230.627C283.659 230.913 283.443 231.184 283.226 231.454C283.01 231.725 282.743 231.928 282.409 232.183C280.656 233.625 278.069 233.695 275.899 233.342C272.685 232.729 269.682 231.005 267.263 228.94C264.558 226.777 261.898 223.841 260.847 220.523C260.176 218.394 260.293 216.192 261.556 214.385C263.019 212.425 265.583 211.632 267.903 211.765C271.6 211.905 275.008 213.743 277.815 216.04C280.233 218.104 282.505 220.808 283.705 223.907ZM313.588 200.075L322.18 187.928L327.813 179.938L329.592 177.421C329.757 177.084 329.754 176.664 329.499 176.33C321.295 166.951 312.237 166.568 302.349 174.104C291.727 182.2 287.911 194.931 296.465 206.155C305.071 217.445 318.358 217.141 329.047 208.993C334.792 204.614 339.516 198.479 339.912 191.101C339.909 190.681 339.654 190.347 339.25 190.232C338.846 190.118 338.395 190.356 338.229 190.694C336.976 193.761 334.829 196.348 332.223 198.334C331.422 198.945 330.636 199.438 329.732 199.916C324.998 202.573 318.47 203.43 313.757 200.157C313.706 200.09 313.706 200.09 313.588 200.075ZM308.653 196.232C306.317 193.999 304.112 191.244 302.947 188.33C302.09 186.236 301.498 183.519 302.675 181.46C302.758 181.292 302.958 181.139 303.041 180.97C305.986 177.352 310.906 179.095 313.999 181.49C315.081 182.355 316.08 183.389 316.828 184.509L308.653 196.232ZM243.094 369.983L230.924 354.016C219.162 338.584 196.912 357.338 190.3 369.032C190.217 369.2 190.185 369.436 190.271 369.687C190.357 369.938 190.459 370.072 190.678 370.221L198.303 374.127C198.538 374.159 198.773 374.191 199.025 374.105C199.276 374.019 199.426 373.799 199.457 373.564C201.146 368.158 205.106 358.803 211.603 358.181C213.181 358.035 214.533 359.116 215.634 360.284C215.567 360.335 215.501 360.386 215.434 360.436C208.619 365.63 202.41 373.003 201.454 381.865C200.86 387.598 202.824 393.917 208.106 396.967C213.389 400.018 219.389 398.19 223.999 394.677C228.207 391.469 231.201 387.497 232.59 382.531L234.169 384.602C234.474 385.002 234.945 385.066 235.346 384.76L248.641 374.627C248.908 374.424 249.057 374.204 249.038 373.902C248.952 373.651 248.866 373.399 248.647 373.25L243.094 369.983ZM224.29 371.641C226.225 374.18 226.872 377.384 225.803 380.416C225.18 382.37 223.434 384.651 221.149 384.703C219.94 384.779 219.011 384.114 218.231 383.23C216.366 381.06 215.669 377.79 215.815 374.932C216.04 371.487 217.529 368.451 220.064 366.096L224.29 371.641ZM232.54 347.821L253.01 374.677L255.81 378.352C255.861 378.418 255.861 378.418 255.912 378.485C257.694 380.823 258.338 383.607 257.705 386.519C257.606 386.805 257.743 387.123 258.014 387.34C258.284 387.556 258.586 387.537 258.905 387.4C260.511 386.598 262.216 385.509 263.584 384.256C268.891 379.577 271.371 372.3 266.737 366.221L239.241 330.145C239.088 329.945 238.802 329.846 238.566 329.814C238.264 329.833 238.013 329.919 237.863 330.139L228.848 341.868C228.832 341.986 228.832 341.986 228.832 341.986L227.054 344.503C226.905 344.723 226.873 344.958 226.892 345.26C226.978 345.512 227.198 345.661 227.417 345.811L232.54 347.821ZM232.494 320.184C229.591 316.376 224.294 315.661 220.486 318.564L220.419 318.615C216.611 321.517 215.896 326.815 218.798 330.623C221.65 334.364 226.948 335.079 230.689 332.227L230.756 332.176L230.822 332.126C234.681 329.29 235.345 323.925 232.494 320.184ZM273.007 337.362L265.114 327.007L257.12 316.518C256.967 316.318 256.747 316.168 256.512 316.136C256.21 316.156 255.958 316.241 255.809 316.461L246.727 328.241C246.778 328.308 246.778 328.308 246.778 328.308L245 330.825C244.85 331.045 244.752 331.331 244.838 331.583C244.924 331.834 245.076 332.034 245.363 332.133L250.486 334.143L262.655 350.11C267.187 356.056 273.595 356.98 279.424 352.433C281.829 350.6 283.795 348.467 285 345.753C286.091 343.443 286.66 341.003 287.347 338.578L289.995 342.052C290.3 342.453 290.771 342.516 291.172 342.211L304.6 331.976C304.867 331.772 305.017 331.553 304.998 331.251C304.912 330.999 304.826 330.748 304.606 330.598L299.054 327.332L278.431 300.275C278.278 300.074 278.059 299.925 277.757 299.944C277.521 299.912 277.27 299.998 277.12 300.218L268.039 311.998C268.09 312.065 268.09 312.065 268.09 312.065L266.311 314.582C266.095 314.852 266.063 315.088 266.149 315.339C266.235 315.591 266.388 315.791 266.674 315.89L271.797 317.9L282.388 331.795C281.997 333.361 281.355 335.012 280.744 336.428C280.15 337.727 278.811 340.543 277.166 340.74C275.992 341.001 274.84 339.767 274.229 338.965L273.007 337.362ZM309.161 280.127C304.774 279.775 300.803 281.217 297.109 283.715C295.404 284.803 294.02 286.175 292.738 287.68C289.86 291.247 288.247 295.645 288.114 300.182C287.969 305.257 289.72 310.048 292.826 314.123C298.732 321.873 309.796 325.164 318.857 321.532C321.889 320.383 324.494 318.397 326.575 315.861C328.471 313.36 329.523 310.445 329.987 307.451L331.973 310.057C332.279 310.458 332.816 310.47 333.15 310.216L346.512 300.032C346.712 299.879 346.862 299.659 346.843 299.357C346.823 299.055 346.671 298.854 346.451 298.705L340.965 295.387L310.21 255.036C310.057 254.835 309.771 254.737 309.535 254.705C309.233 254.724 309.033 254.877 308.832 255.03L299.868 266.826L299.801 266.877L298.023 269.394C297.874 269.613 297.842 269.849 297.928 270.1C297.947 270.402 298.167 270.552 298.386 270.701L303.509 272.711L309.161 280.127ZM323.021 299.559C323.826 301.585 324.199 304.153 323.073 306.278C322.975 306.565 322.758 306.835 322.542 307.106C322.326 307.376 322.058 307.58 321.724 307.834C319.971 309.276 317.385 309.347 315.215 308.994C312.001 308.38 308.997 306.656 306.579 304.592C303.874 302.429 301.213 299.492 300.163 296.174C299.491 294.046 299.609 291.844 300.871 290.036C302.335 288.076 304.899 287.283 307.218 287.417C310.916 287.556 314.324 289.394 317.13 291.691C319.549 293.756 321.821 296.46 323.021 299.559ZM380.174 265.503L368.005 249.536C356.242 234.103 333.992 252.857 327.38 264.551C327.297 264.72 327.265 264.955 327.351 265.207C327.437 265.458 327.539 265.592 327.759 265.741L335.383 269.647C335.618 269.679 335.854 269.711 336.105 269.625C336.356 269.539 336.506 269.319 336.538 269.084C338.226 263.678 342.186 254.323 348.683 253.701C350.261 253.554 351.613 254.636 352.714 255.803C352.647 255.854 352.581 255.905 352.514 255.956C345.7 261.15 339.49 268.523 338.534 277.384C337.94 283.118 339.904 289.436 345.186 292.487C350.469 295.537 356.469 293.71 361.079 290.196C365.288 286.988 368.281 283.017 369.67 278.05L371.249 280.121C371.554 280.522 372.025 280.586 372.426 280.28L385.721 270.147C385.988 269.943 386.138 269.724 386.118 269.422C386.033 269.17 385.947 268.919 385.727 268.769L380.174 265.503ZM361.371 267.161C363.306 269.699 363.952 272.903 362.883 275.936C362.26 277.889 360.514 280.171 358.229 280.222C357.02 280.299 356.091 279.634 355.311 278.75C353.447 276.58 352.749 273.309 352.895 270.452C353.12 267.006 354.609 263.971 357.144 261.616L361.371 267.161ZM387.675 267.284C387.695 267.587 387.914 267.736 388.2 267.835C388.487 267.933 388.738 267.847 388.939 267.695L404.171 256.085C404.438 255.881 404.587 255.662 404.568 255.36C404.549 255.057 404.396 254.857 404.177 254.707L398.624 251.441L386.913 236.075C386.76 235.875 386.674 235.623 386.521 235.423C385.665 233.329 387.106 230.647 388.454 229.091C390.554 226.857 393.535 225.641 396.58 226.172C396.933 226.219 397.318 226.032 397.484 225.694C397.633 225.475 397.63 225.055 397.426 224.788L389.686 214.633C389.483 214.366 389.079 214.251 388.761 214.388C386.18 215.298 384.179 217.246 382.735 219.508C381.441 221.551 380.302 224.215 379.835 226.789L378.002 224.384C377.849 224.183 377.629 224.034 377.394 224.002C377.092 224.021 376.84 224.107 376.691 224.327L367.609 236.107C367.66 236.174 367.66 236.174 367.66 236.174L365.882 238.691C365.732 238.91 365.634 239.197 365.72 239.448C365.806 239.7 365.958 239.9 366.245 239.999L371.368 242.008L385.931 261.115L387.675 267.284Z" fill="#FFF9F3"/>
</svg>
