<svg width="665" height="666" viewBox="0 0 665 666" fill="none" xmlns="http://www.w3.org/2000/svg">
<path d="M138.87 225.694C142.572 189.71 169.024 160.201 204.392 152.603L392.396 112.209C427.763 104.61 464.001 120.649 482.157 151.937L578.67 318.257C596.826 349.545 592.771 388.965 568.625 415.901L440.269 559.087C416.123 586.023 377.378 594.347 344.299 579.707L168.458 501.88C135.379 487.239 115.489 452.963 119.191 416.979L138.87 225.694Z" fill="#4355FF"/>
<path d="M275.096 279.174C319.387 282.766 324.364 221.396 280.074 217.803C237.123 214.319 232.145 275.69 275.096 279.174ZM269.129 265.458C265.212 260.758 262.757 254.66 261.9 248.607C261.282 243.753 261.536 238.548 263.34 233.975C264.713 230.547 267.085 227.284 270.583 225.714C271.893 225.146 273.26 224.92 274.613 224.861C279.587 224.843 283.961 228.063 287.038 231.684C290.955 236.384 293.41 242.482 294.268 248.535C294.885 253.389 294.632 258.594 292.828 263.167C291.538 266.602 289.167 269.865 285.585 271.428C284.281 271.912 282.908 272.222 281.554 272.281C276.581 272.299 272.207 269.079 269.129 265.458ZM337.59 281.714C337.402 281.952 337.465 282.21 337.613 282.474C337.76 282.739 338.004 282.843 338.255 282.864L357.344 284.412C357.679 284.439 357.937 284.376 358.041 284.131C358.229 283.894 358.333 283.649 358.186 283.385L356.324 277.25L358.253 253.472C358.85 246.104 354.786 241.14 347.502 240.549C344.495 240.221 341.517 240.569 338.722 241.775C336.444 242.854 334.312 244.198 332.18 245.542L332.534 241.189C332.554 240.938 332.491 240.68 332.253 240.492C332.099 240.311 331.855 240.207 331.597 240.27L313.956 243.727C313.698 243.791 313.433 243.938 313.329 244.182C313.225 244.426 313.204 244.678 313.351 244.942L315.677 249.513L313.674 274.212L311.049 279.561C310.861 279.799 310.925 280.057 311.072 280.322C311.219 280.587 311.463 280.691 311.714 280.711L330.804 282.259C331.139 282.287 331.396 282.223 331.584 281.986C331.772 281.748 331.793 281.497 331.729 281.239L329.783 275.097L331.501 253.915C332.839 253.012 334.253 252.2 335.654 251.555C336.964 250.987 339.836 249.871 341.281 250.747C342.245 251.331 342.277 253.019 342.196 254.024L340.416 275.96L337.59 281.714ZM395.401 248.9C392.374 245.705 388.457 244.123 384.04 243.512C382.044 243.182 380.098 243.277 378.138 243.539C373.613 244.268 369.474 246.46 366.342 249.746C362.841 253.423 360.94 258.157 360.526 263.264C359.738 272.976 365.766 282.82 374.933 286.176C377.956 287.348 381.221 287.613 384.464 287.117C387.546 286.525 390.277 285.061 392.624 283.144L392.359 286.409C392.318 286.912 392.71 287.28 393.128 287.314L409.873 288.673C410.125 288.693 410.383 288.63 410.57 288.392C410.758 288.154 410.779 287.903 410.715 287.645L408.853 281.511L412.955 230.941C412.975 230.69 412.828 230.425 412.674 230.244C412.437 230.056 412.185 230.036 411.934 230.015L397.382 232.796L397.298 232.789L394.293 233.472C394.035 233.536 393.854 233.69 393.75 233.934C393.562 234.172 393.625 234.43 393.689 234.687L396.155 239.607L395.401 248.9ZM392.719 272.617C391.963 274.663 390.524 276.822 388.266 277.65C388.001 277.797 387.659 277.853 387.318 277.91C386.976 277.966 386.641 277.939 386.222 277.905C383.955 277.806 381.984 276.129 380.606 274.416C378.626 271.811 377.545 268.521 377.126 265.369C376.561 261.952 376.545 257.99 377.982 254.82C378.905 252.788 380.464 251.229 382.612 250.728C385.01 250.249 387.447 251.374 389.083 253.023C391.74 255.598 393.045 259.244 393.598 262.828C394.016 265.98 393.898 269.51 392.719 272.617ZM430.876 274.869L445.385 271.58L454.916 269.403L457.921 268.72C458.27 268.579 458.548 268.265 458.582 267.846C458.75 255.387 452.269 249.046 439.878 248.041C426.566 246.962 415.217 253.879 414.076 267.945C412.929 282.094 423.014 290.75 436.41 291.836C443.61 292.42 451.225 291.015 456.452 285.793C456.73 285.478 456.764 285.06 456.54 284.704C456.316 284.349 455.821 284.225 455.472 284.365C452.49 285.808 449.164 286.297 445.898 286.032C444.894 285.951 443.979 285.792 442.988 285.543C437.691 284.355 432.262 280.628 430.946 275.044C430.952 274.96 430.952 274.96 430.876 274.869ZM429.774 268.712C429.529 265.49 429.731 261.967 430.813 259.02C431.575 256.891 432.951 254.474 435.203 253.73C435.377 253.66 435.628 253.68 435.802 253.61C440.412 252.888 442.905 257.473 443.604 261.322C443.831 262.689 443.883 264.126 443.69 265.458L429.774 268.712ZM244.769 344.05L259.279 340.76L268.81 338.584L271.815 337.901C272.163 337.76 272.442 337.446 272.476 337.027C272.643 324.568 266.163 318.227 253.771 317.222C240.459 316.142 229.111 323.06 227.97 337.126C226.822 351.275 236.908 359.931 250.304 361.017C257.504 361.601 265.118 360.196 270.346 354.974C270.624 354.659 270.658 354.241 270.434 353.885C270.21 353.53 269.715 353.406 269.366 353.546C266.384 354.989 263.057 355.478 259.792 355.213C258.787 355.132 257.873 354.973 256.882 354.724C251.585 353.536 246.156 349.809 244.839 344.225C244.846 344.141 244.846 344.141 244.769 344.05ZM243.667 337.893C243.423 334.671 243.625 331.148 244.706 328.201C245.469 326.072 246.845 323.655 249.096 322.911C249.271 322.841 249.522 322.861 249.696 322.791C254.305 322.069 256.799 326.654 257.498 330.503C257.724 331.87 257.776 333.307 257.584 334.639L243.667 337.893ZM310.164 326.178C310.184 325.927 310.03 325.746 309.793 325.558C304.993 322.388 300.554 321.017 294.776 320.548C290.255 320.181 285.268 320.367 281.36 322.831C279.932 323.811 278.568 325.048 277.531 326.397C275.814 328.87 274.712 332.068 274.969 335.123C275.196 336.489 275.589 337.87 276.338 339.026C277.605 341.067 279.493 342.737 281.316 344.149C282.672 345.102 284.034 345.971 285.396 346.84C286.919 347.806 288.372 348.598 289.902 349.481C291.271 350.266 292.549 351.128 293.827 351.99C294.945 352.755 297.335 354.466 297.206 356.057C296.989 358.736 293.556 358.458 291.734 358.057C290.659 357.801 289.514 357.371 288.641 356.71C284.953 354.389 281.959 350.775 279.189 347.516C278.952 347.328 278.791 347.231 278.54 347.211C278.289 347.19 278.024 347.337 277.843 347.491L270.475 356.248C270.371 356.493 270.273 356.653 270.337 356.911C270.316 357.163 270.47 357.344 270.624 357.525C275.634 361.218 281.673 363.646 287.953 364.155C297.33 364.916 308.57 362.456 309.486 351.153C310.023 344.539 305.131 340.434 299.906 337.314C298.145 336.16 296.288 335.166 294.43 334.173C292.893 333.374 291.287 332.401 289.938 331.364C287.485 329.396 287.094 325.909 291.113 326.235C295.048 326.554 299.573 332.062 302.042 334.874C302.189 335.139 302.434 335.243 302.692 335.18C302.943 335.2 303.117 335.13 303.305 334.893L310.026 326.841C310.213 326.604 310.227 326.436 310.164 326.178ZM313.045 354.055C312.387 362.176 316.491 366.638 324.529 367.29C330.474 367.773 334.909 367.121 339.625 364.048C339.889 363.901 339.993 363.657 340.014 363.406L340.523 357.126C340.55 356.791 340.403 356.526 340.082 356.332C339.844 356.144 339.503 356.201 339.231 356.431C334.314 359.909 328.607 359.615 329.191 352.415L330.841 332.069L340.94 337.439C341.184 337.544 341.519 337.571 341.784 337.424C342.049 337.277 342.153 337.032 342.173 336.781L343.022 326.315C343.063 325.813 342.755 325.451 342.253 325.41L331.452 324.534L332.736 308.71C332.756 308.459 332.693 308.201 332.539 308.02C332.301 307.832 332.05 307.812 331.799 307.791L317.163 310.565L314.158 311.249C313.9 311.312 313.635 311.459 313.531 311.703C313.427 311.948 313.406 312.199 313.554 312.464L316.02 317.383L313.045 354.055ZM363.506 322.836L370.037 323.366C370.288 323.386 370.559 323.155 370.754 322.834L377.937 312.208C378.124 311.97 378.145 311.719 377.991 311.538C377.921 311.364 377.767 311.183 377.6 311.169L368.306 310.415C367.971 310.388 367.7 310.619 367.498 311.024L363.079 321.874C362.974 322.119 362.961 322.286 363.024 322.544C363.178 322.725 363.339 322.822 363.506 322.836ZM390.091 370.164L388.138 364.106L389.768 344.012C391.33 324.756 362.246 323.829 349.51 328.106C349.336 328.176 349.155 328.33 349.051 328.574C348.947 328.818 348.933 328.986 348.997 329.244L352.063 337.162C352.21 337.426 352.364 337.607 352.608 337.712C352.852 337.816 353.11 337.752 353.291 337.598C358.161 334.707 367.36 330.396 372.607 334.277C373.879 335.223 374.162 336.931 374.116 338.529C374.116 338.529 374.033 338.522 373.949 338.515C365.409 337.823 355.862 339.155 349.227 345.106C344.952 348.974 342.189 354.986 344.079 360.786C345.968 366.585 351.652 369.237 357.429 369.706C362.704 370.134 367.585 369.181 371.939 366.416L371.728 369.012C371.687 369.514 371.995 369.876 372.497 369.917L389.159 371.268C389.494 371.295 389.752 371.232 389.939 370.995C390.044 370.75 390.148 370.506 390.091 370.164ZM373.046 352.769C372.787 355.951 371.126 358.766 368.305 360.307C366.542 361.259 363.711 361.872 361.978 360.383C361.027 359.632 360.781 358.516 360.792 357.337C360.856 354.477 362.523 351.579 364.542 349.551C367.013 347.139 370.149 345.876 373.609 345.82L373.046 352.769ZM435.365 376.027C448.845 377.121 460.361 370.217 461.509 356.068C462.656 341.918 452.313 333.326 438.917 332.239C425.605 331.159 414.173 338.07 413.032 352.136C411.884 366.285 421.969 374.941 435.365 376.027ZM441.114 341.519C443.465 344.744 444.89 348.989 445.499 352.915C446.024 356.834 445.999 361.299 444.682 365.069C443.912 367.282 442.335 370.103 439.692 370.479C437.049 370.855 434.777 368.732 433.336 366.761C430.985 363.536 429.559 359.291 428.951 355.365C428.419 351.53 428.451 346.981 429.768 343.211C430.537 340.998 432.115 338.177 434.758 337.801C437.401 337.426 439.666 339.632 441.114 341.519ZM203.975 457.885L209.25 458.313C210.338 458.401 210.75 458.519 211.139 457.876C216.833 448.983 212.633 436.338 199.619 437.811C193.67 438.424 184.501 440.293 179.571 440.82C173.608 441.601 173.251 434.577 178.453 433.819C184.074 433.095 188.939 434.417 194.302 433.756C200.09 433.046 205.575 430.878 209.395 426.384C214.905 419.752 214.474 410.531 208.669 404.161C210.767 403.235 213.326 402.853 215.607 402.785C216.2 402.749 216.583 402.19 216.372 401.667L212.435 390.982C212.225 390.459 211.736 390.251 211.297 390.468C207.353 392.339 204.472 395.645 202.395 399.438C198.749 397.625 194.611 396.7 190.508 396.367C165.391 394.33 157.843 416.725 171.429 427.94C165.448 429.983 159.35 438.674 162.282 446.16C164.57 452.245 170.532 454.583 176.728 455.085C182.009 455.429 193.808 453.352 199.121 452.266C203.584 451.28 205.717 454.065 203.477 456.749C203.47 456.833 203.387 456.826 203.387 456.826C203.289 456.987 203.276 457.154 203.353 457.245C203.346 457.328 203.339 457.412 203.332 457.496C203.416 457.502 203.409 457.586 203.409 457.586C203.563 457.767 203.724 457.865 203.975 457.885ZM196.805 414.323C197.278 416.805 197.298 419.672 196.425 422.13C194.436 427.952 189.351 428.298 185.33 423.842C183.246 421.482 181.9 418.339 181.307 415.257C180.841 412.691 180.897 409.914 181.694 407.366C182.47 405.07 184.167 402.847 186.797 402.639C189.168 402.495 191.32 404.018 192.866 405.744C194.95 408.104 196.296 411.247 196.805 414.323ZM259.393 437.94L261.017 417.93C262.585 398.589 233.501 397.663 220.765 401.939C220.591 402.009 220.41 402.163 220.306 402.408C220.202 402.652 220.188 402.819 220.252 403.077L223.311 411.079C223.465 411.26 223.619 411.441 223.863 411.545C224.107 411.649 224.365 411.586 224.546 411.432C229.416 408.54 238.615 404.23 243.862 408.111C245.134 409.057 245.417 410.765 245.455 412.369C245.371 412.363 245.288 412.356 245.204 412.349C236.664 411.656 227.117 412.989 220.482 418.94C216.208 422.807 213.444 428.819 215.334 434.619C217.223 440.419 222.907 443.071 228.684 443.54C233.959 443.967 238.84 443.015 243.194 440.25L242.983 442.845C242.942 443.348 243.25 443.71 243.753 443.75L260.414 445.102C260.749 445.129 261.007 445.066 261.195 444.828C261.299 444.584 261.403 444.339 261.339 444.081L259.393 437.94ZM244.301 426.603C244.043 429.784 242.382 432.599 239.56 434.14C237.79 435.176 234.966 435.706 233.233 434.217C232.282 433.465 232.036 432.35 232.047 431.171C232.111 428.311 233.778 425.412 235.797 423.385C238.268 420.972 241.404 419.71 244.864 419.653L244.301 426.603ZM290.322 446.432C290.134 446.67 290.198 446.928 290.345 447.192C290.492 447.457 290.736 447.561 290.987 447.582L310.077 449.13C310.411 449.157 310.669 449.094 310.773 448.849C310.961 448.612 311.065 448.367 310.918 448.103L309.056 441.968L310.985 418.19C311.582 410.822 307.518 405.857 300.234 405.267C297.227 404.938 294.249 405.287 291.454 406.493C289.176 407.572 287.044 408.916 284.913 410.26L285.266 405.907C285.286 405.655 285.223 405.397 284.985 405.21C284.831 405.029 284.587 404.925 284.329 404.988L266.688 408.445C266.43 408.508 266.165 408.655 266.061 408.9C265.957 409.144 265.936 409.395 266.083 409.66L268.409 414.231L266.406 438.93L263.781 444.279C263.593 444.517 263.657 444.775 263.804 445.04C263.951 445.304 264.195 445.409 264.446 445.429L283.536 446.977C283.871 447.004 284.129 446.941 284.316 446.703C284.504 446.466 284.525 446.215 284.461 445.957L282.515 439.815L284.233 418.633C285.571 417.73 286.985 416.918 288.386 416.273C289.696 415.705 292.568 414.589 294.014 415.465C294.977 416.049 295.009 417.737 294.928 418.742L293.148 440.678L290.322 446.432ZM358.04 416.866C358.06 416.615 357.997 416.357 357.843 416.176C353.444 411.184 346.791 409.043 340.261 408.513C326.949 407.433 315.516 414.344 314.376 428.41C313.228 442.559 323.313 451.215 336.709 452.301C343.91 452.885 351.524 451.48 356.751 446.258C357.03 445.943 357.064 445.525 356.84 445.169C356.616 444.814 356.12 444.69 355.772 444.83C352.789 446.274 349.463 446.762 346.197 446.497C345.193 446.416 344.279 446.257 343.287 446.009C334.926 444.151 330.53 437.052 329.926 428.912C329.688 425.606 330.161 421.852 331.417 418.836C332.25 416.881 333.8 414.394 336.102 414.075C339.602 413.516 342.485 417.458 343.956 420.106C344.678 421.597 345.316 423.081 345.779 424.636C345.927 424.901 346.074 425.166 346.325 425.186C346.653 425.297 346.911 425.233 347.092 425.08L357.657 417.425C357.922 417.278 358.019 417.117 358.04 416.866ZM384.231 454.049C384.044 454.287 384.107 454.544 384.254 454.809C384.401 455.074 384.645 455.178 384.897 455.198L403.986 456.747C404.321 456.774 404.579 456.711 404.683 456.466C404.871 456.229 404.975 455.984 404.911 455.726L402.966 449.585L404.894 425.807C405.492 418.439 401.428 413.474 394.144 412.884C391.136 412.555 388.159 412.904 385.364 414.11C383.085 415.189 380.954 416.533 378.822 417.877L380.547 396.611C380.567 396.36 380.504 396.102 380.266 395.914C380.112 395.733 379.868 395.629 379.61 395.692L361.969 399.149C361.711 399.213 361.446 399.36 361.342 399.604C361.238 399.849 361.217 400.1 361.365 400.365L363.684 405.019L360.316 446.547L357.691 451.896C357.503 452.134 357.566 452.392 357.713 452.657C357.86 452.921 358.105 453.025 358.356 453.046L377.445 454.594C377.78 454.621 378.038 454.558 378.226 454.32C378.414 454.083 378.434 453.832 378.371 453.574L376.425 447.432L378.143 426.25C379.48 425.347 380.895 424.535 382.295 423.89C383.605 423.322 386.477 422.206 387.923 423.082C388.887 423.666 388.919 425.354 388.837 426.359L387.058 448.295L384.231 454.049ZM430.7 459.925C444.18 461.018 455.696 454.115 456.844 439.965C457.991 425.815 447.648 417.223 434.252 416.137C420.94 415.057 409.508 421.967 408.367 436.033C407.219 450.183 417.304 458.838 430.7 459.925ZM436.449 425.417C438.8 428.641 440.225 432.886 440.834 436.812C441.359 440.732 441.334 445.196 440.017 448.966C439.247 451.179 437.67 454.001 435.027 454.376C432.384 454.752 430.112 452.629 428.671 450.658C426.32 447.434 424.894 443.189 424.286 439.263C423.754 435.427 423.786 430.879 425.103 427.109C425.872 424.896 427.45 422.074 430.093 421.699C432.736 421.323 435.001 423.529 436.449 425.417ZM483.829 447.632L483.661 447.618C478.889 447.231 474.809 450.777 474.429 455.465C474.048 460.154 477.504 464.311 482.276 464.698L482.36 464.705L482.443 464.712C487.132 465.092 491.296 461.553 491.676 456.864C492.056 452.176 488.517 448.012 483.829 447.632ZM508.569 411.714C508.038 410.997 507.499 410.363 506.87 409.807C502.012 405.283 494.454 403.912 488.091 403.395C479.467 402.696 470.223 405.486 462.586 409.249C462.147 409.466 461.939 409.955 462.156 410.394L467.569 422.631C467.716 422.896 467.87 423.077 468.204 423.104C468.456 423.125 468.714 423.061 468.978 422.914C474.242 418.285 481.236 414.132 488.455 413.454C490.491 413.282 492.926 413.395 494.888 414.144C496.026 414.658 497.312 415.436 497.628 416.726C498.156 418.539 496.492 420.342 495.225 421.419C492.6 423.65 489.758 425.442 486.608 426.872C483.807 428.162 480.949 429.11 478.091 430.058C477.742 430.199 477.471 430.429 477.437 430.848L476.554 441.732C476.52 442.151 476.828 442.513 477.156 442.624L491.07 447.713C491.398 447.824 491.656 447.761 491.837 447.607C492.102 447.46 492.206 447.216 492.226 446.964L492.898 438.676C496.886 437.313 500.719 435.77 504.278 433.446C508.019 430.969 510.759 427.314 511.377 422.814C511.948 418.899 510.927 414.855 508.569 411.714Z" fill="#FFF9F3"/>
</svg>
