<svg viewBox="0 0 464 480" fill="none" xmlns="http://www.w3.org/2000/svg">
<path d="M16.5615 288.936C-4.68182 259.656 -4.65552 220.028 16.6267 190.776L129.758 35.2817C151.04 6.03005 188.737 -6.19092 223.134 5.01044L405.977 64.5541C440.374 75.7555 463.646 107.831 463.622 144.006L463.494 336.3C463.47 372.474 440.155 404.519 405.744 415.675L222.822 474.976C188.41 486.131 150.729 473.86 129.486 444.581L16.5615 288.936Z" fill="#4355FF"/>
<path d="M153.729 237.918C189.124 211.053 151.899 162.008 116.504 188.874C82.179 214.926 119.404 263.971 153.729 237.918ZM140.135 231.679C134.082 230.79 128.185 227.884 123.509 223.946C119.811 220.742 116.529 216.695 114.822 212.084C113.559 208.614 113.15 204.601 114.709 201.098C115.306 199.801 116.174 198.72 117.143 197.774C120.836 194.443 126.243 193.925 130.951 194.57C137.004 195.459 142.901 198.365 147.577 202.303C151.275 205.508 154.557 209.555 156.264 214.165C157.594 217.585 158.003 221.597 156.377 225.152C155.729 226.382 154.913 227.529 153.944 228.475C150.25 231.806 144.843 232.324 140.135 231.679Z" fill="#FFF9F3"/>
<path d="M201.985 198.128C202.004 198.43 202.223 198.58 202.509 198.679C202.795 198.778 203.047 198.693 203.247 198.541L218.503 186.962C218.77 186.758 218.92 186.539 218.835 186.288C218.816 185.985 218.731 185.734 218.445 185.635L212.966 182.306L198.543 163.304C194.074 157.416 187.734 156.427 181.913 160.846C179.454 162.607 177.467 164.853 176.189 167.615C175.212 169.939 174.52 172.363 173.828 174.786L171.187 171.307C171.035 171.106 170.816 170.956 170.513 170.974C170.278 170.942 170.027 171.028 169.877 171.247L159.039 185.589C158.889 185.809 158.79 186.095 158.875 186.346C158.961 186.598 159.113 186.799 159.399 186.898L164.181 188.752L179.163 208.49L180.775 214.227C180.793 214.529 181.013 214.679 181.299 214.778C181.585 214.877 181.836 214.792 182.037 214.639L197.292 203.06C197.56 202.857 197.71 202.638 197.692 202.336C197.673 202.033 197.521 201.833 197.301 201.683L191.755 198.405L178.907 181.477C179.301 179.912 179.813 178.364 180.426 176.949C181.024 175.652 182.419 172.905 184.081 172.593C185.188 172.385 186.338 173.622 186.947 174.425L200.253 191.955L201.985 198.128Z" fill="#FFF9F3"/>
<path d="M223.171 135.119C218.784 134.758 214.811 136.192 211.112 138.683C209.405 139.768 208.018 141.137 206.733 142.639C203.847 146.201 202.226 150.595 202.084 155.132C201.928 160.207 203.67 165.001 206.768 169.083C212.659 176.844 223.715 180.158 232.784 176.544C235.818 175.401 238.427 173.42 240.513 170.888C242.414 168.391 243.472 165.479 243.942 162.485L245.923 165.095C246.228 165.496 246.765 165.51 247.1 165.256L260.482 155.099C260.682 154.947 260.832 154.727 260.814 154.425C260.795 154.123 260.643 153.922 260.424 153.772L254.944 150.444L224.27 110.03C224.118 109.83 223.832 109.73 223.596 109.698C223.294 109.717 223.093 109.869 222.893 110.021L213.905 121.8L213.838 121.85L212.055 124.364C211.905 124.583 211.873 124.818 211.958 125.07C211.977 125.372 212.196 125.522 212.415 125.672L217.534 127.692L223.171 135.119ZM236.992 154.579C237.793 156.607 238.161 159.175 237.031 161.299C236.931 161.585 236.715 161.855 236.498 162.125C236.281 162.395 236.013 162.598 235.679 162.852C233.923 164.29 231.336 164.355 229.167 163.998C225.954 163.378 222.954 161.648 220.54 159.579C217.839 157.41 215.185 154.469 214.141 151.148C213.473 149.018 213.595 146.817 214.861 145.012C216.329 143.055 218.895 142.267 221.214 142.405C224.911 142.552 228.315 144.397 231.117 146.7C233.531 148.769 235.798 151.478 236.992 154.579Z" fill="#FFF9F3"/>
<path d="M266.923 130.806L275.539 118.678L281.188 110.699L282.971 108.185C283.138 107.848 283.135 107.428 282.881 107.094C274.696 97.6989 265.638 97.2973 255.736 104.813C245.097 112.888 241.256 125.611 249.788 136.852C258.37 148.16 271.658 147.882 282.363 139.756C288.117 135.389 292.853 129.263 293.265 121.885C293.262 121.465 293.008 121.131 292.604 121.016C292.201 120.9 291.748 121.138 291.582 121.475C290.323 124.54 288.171 127.123 285.561 129.103C284.758 129.713 283.972 130.205 283.067 130.68C278.328 133.328 271.797 134.172 267.091 130.889C267.04 130.823 267.04 130.823 266.923 130.806ZM261.995 126.954C259.664 124.716 257.464 121.957 256.305 119.04C255.453 116.945 254.866 114.227 256.047 112.17C256.13 112.002 256.33 111.849 256.413 111.681C259.366 108.069 264.282 109.821 267.37 112.223C268.451 113.09 269.448 114.126 270.193 115.247L261.995 126.954Z" fill="#FFF9F3"/>
<path d="M174.406 306.483L183.022 294.354L188.672 286.375L190.455 283.862C190.621 283.525 190.619 283.105 190.365 282.77C182.18 273.376 173.122 272.974 163.219 280.49C152.581 288.565 148.739 301.288 157.271 312.529C165.854 323.837 179.141 323.559 189.847 315.433C195.601 311.066 200.337 304.94 200.748 297.562C200.746 297.142 200.492 296.808 200.088 296.692C199.684 296.577 199.232 296.815 199.066 297.152C197.807 300.217 195.654 302.799 193.045 304.78C192.242 305.39 191.455 305.881 190.551 306.357C185.811 309.005 179.281 309.849 174.575 306.566C174.524 306.499 174.524 306.499 174.406 306.483ZM169.479 302.631C167.147 300.393 164.947 297.633 163.788 294.717C162.936 292.622 162.349 289.903 163.53 287.847C163.613 287.678 163.814 287.526 163.897 287.358C166.85 283.745 171.766 285.498 174.854 287.899C175.934 288.767 176.931 289.803 177.677 290.924L169.479 302.631Z" fill="#FFF9F3"/>
<path d="M211.209 249.55C211.056 249.349 210.821 249.317 210.519 249.335C204.828 250.174 200.606 252.114 195.989 255.618C192.376 258.36 188.783 261.825 187.515 266.267C187.105 267.95 186.914 269.782 187.041 271.478C187.411 274.467 188.723 277.584 190.952 279.688C192.033 280.555 193.247 281.321 194.576 281.683C196.882 282.359 199.401 282.344 201.702 282.18C203.347 281.986 204.942 281.724 206.537 281.463C208.316 281.167 209.926 280.789 211.655 280.426C213.198 280.098 214.726 279.887 216.254 279.677C217.597 279.501 220.518 279.182 221.483 280.453C223.108 282.595 220.365 284.677 218.74 285.593C217.769 286.12 216.629 286.563 215.538 286.653C211.241 287.384 206.6 286.688 202.363 286.107C202.061 286.126 201.876 286.161 201.675 286.313C201.475 286.465 201.376 286.751 201.343 286.987L201.695 298.426C201.78 298.677 201.815 298.862 202.034 299.012C202.186 299.213 202.422 299.245 202.657 299.277C208.853 298.687 214.972 296.468 219.991 292.659C227.484 286.971 234.218 277.642 227.362 268.609C223.35 263.323 216.967 263.528 210.993 264.688C208.912 265.002 206.865 265.501 204.818 266C203.141 266.43 201.295 266.776 199.598 266.904C196.458 267.073 193.84 264.736 197.052 262.298C200.197 259.911 207.242 260.996 210.958 261.446C211.244 261.545 211.495 261.459 211.645 261.24C211.846 261.088 211.929 260.919 211.911 260.617L211.548 250.136C211.529 249.833 211.428 249.699 211.209 249.55Z" fill="#FFF9F3"/>
<path d="M231.949 268.397C236.875 274.887 242.91 275.474 249.333 270.599C254.084 266.993 256.954 263.549 258.418 258.114C258.517 257.828 258.431 257.577 258.279 257.376L254.47 252.358C254.267 252.09 253.981 251.991 253.612 252.06C253.309 252.079 253.093 252.349 253.044 252.702C251.7 258.573 247.252 262.16 242.884 256.406L230.544 240.147L241.65 237.412C241.901 237.326 242.169 237.123 242.268 236.837C242.367 236.551 242.282 236.299 242.129 236.099L235.781 227.735C235.477 227.333 235.006 227.269 234.604 227.574L225.973 234.125L216.375 221.479C216.222 221.278 216.003 221.128 215.768 221.096C215.465 221.115 215.265 221.267 215.064 221.419L206.009 233.248L204.226 235.762C204.076 235.981 203.977 236.267 204.062 236.519C204.148 236.77 204.3 236.971 204.586 237.07L209.705 239.09L231.949 268.397Z" fill="#FFF9F3"/>
<path d="M248.722 211.48L253.941 207.518C254.142 207.366 254.19 207.013 254.121 206.644L252.385 193.936C252.366 193.634 252.214 193.433 251.979 193.401C251.81 193.318 251.575 193.285 251.441 193.387L244.014 199.024C243.746 199.227 243.698 199.58 243.818 200.016L247.762 211.048C247.848 211.3 247.949 211.434 248.169 211.584C248.404 211.616 248.589 211.581 248.722 211.48ZM300.097 229.01L294.602 225.799L282.414 209.741C270.733 194.351 248.446 213.061 241.81 224.741C241.727 224.91 241.694 225.145 241.78 225.397C241.865 225.648 241.967 225.782 242.186 225.932L249.751 229.786C250.038 229.885 250.273 229.917 250.525 229.832C250.776 229.747 250.926 229.527 250.958 229.292C252.658 223.889 256.636 214.542 263.134 213.934C264.713 213.79 266.063 214.875 267.095 216.095C267.095 216.095 267.028 216.146 266.961 216.197C260.136 221.377 253.912 228.737 252.938 237.597C252.332 243.329 254.284 249.652 259.56 252.713C264.836 255.773 270.84 253.958 275.457 250.454C279.672 247.255 282.674 243.289 284.073 238.325L285.647 240.399C285.952 240.801 286.423 240.865 286.824 240.561L300.139 230.454C300.407 230.251 300.557 230.032 300.538 229.73C300.453 229.478 300.368 229.227 300.097 229.01ZM275.795 227.419C277.725 229.961 278.365 233.167 277.29 236.197C276.612 238.082 274.912 240.427 272.628 240.474C271.418 240.548 270.491 239.882 269.713 238.996C267.852 236.822 267.161 233.55 267.313 230.693C267.545 227.248 269.04 224.215 271.58 221.865L275.795 227.419Z" fill="#FFF9F3"/>
<path d="M337.74 203.18C348.513 195.004 352.488 182.179 343.905 170.872C335.323 159.564 321.885 160.061 311.18 168.187C300.541 176.261 296.633 189.035 305.165 200.276C313.747 211.584 327.035 211.306 337.74 203.18ZM319.006 173.635C322.909 174.47 326.802 176.682 329.875 179.201C332.88 181.771 335.839 185.114 337.372 188.801C338.275 190.963 338.982 194.118 337.263 196.161C335.545 198.203 332.436 198.137 330.048 197.63C326.145 196.796 322.251 194.584 319.179 192.064C316.225 189.561 313.215 186.151 311.682 182.464C310.779 180.302 310.072 177.148 311.791 175.105C313.509 173.062 316.669 173.195 319.006 173.635Z" fill="#FFF9F3"/>
<path d="M219.94 418.506L224.155 415.307C225.025 414.647 225.41 414.46 225.272 413.721C223.582 403.298 212.019 396.678 203.306 406.455C199.282 410.88 193.697 418.388 190.375 422.07C186.453 426.628 181.502 421.634 184.873 417.599C188.578 413.31 193.084 411.05 196.639 406.981C200.478 402.591 203.119 397.317 202.967 391.421C202.649 382.804 196.177 376.222 187.604 375.347C188.549 373.259 190.201 371.267 191.855 369.695C192.273 369.272 192.185 368.601 191.679 368.352L181.619 363.017C181.114 362.768 180.611 362.938 180.428 363.393C178.738 367.418 178.797 371.803 179.778 376.014C175.853 377.095 172.152 379.166 168.874 381.654C148.801 396.89 158.115 418.609 175.718 417.903C172.625 423.415 173.878 433.958 181.056 437.58C186.819 440.587 192.821 438.352 197.772 434.594C201.936 431.328 209.342 421.91 212.576 417.557C215.243 413.846 218.69 414.498 218.811 417.992C218.862 418.059 218.795 418.11 218.795 418.11C218.83 418.294 218.931 418.428 219.049 418.444C219.1 418.511 219.151 418.578 219.201 418.645C219.268 418.594 219.319 418.661 219.319 418.661C219.555 418.693 219.739 418.659 219.94 418.506ZM185.542 390.832C187.55 392.366 189.477 394.489 190.466 396.902C192.867 402.567 189.31 406.216 183.342 405.579C180.215 405.21 177.115 403.766 174.618 401.866C172.559 400.265 170.749 398.158 169.643 395.728C168.69 393.499 168.472 390.712 170.293 388.803C171.963 387.113 174.582 386.813 176.885 387.068C180.012 387.437 183.112 388.881 185.542 390.832Z" fill="#FFF9F3"/>
<path d="M247.927 366.682L235.789 350.691C224.058 335.234 201.77 353.944 195.134 365.624C195.051 365.793 195.019 366.028 195.104 366.28C195.19 366.531 195.291 366.665 195.511 366.815L203.127 370.736C203.362 370.768 203.598 370.801 203.849 370.715C204.101 370.63 204.251 370.41 204.283 370.175C205.982 364.772 209.961 355.425 216.459 354.817C218.037 354.673 219.387 355.758 220.486 356.927C220.419 356.978 220.352 357.029 220.285 357.08C213.461 362.26 207.236 369.62 206.262 378.48C205.657 384.212 207.609 390.535 212.885 393.596C218.161 396.657 224.165 394.841 228.781 391.337C232.997 388.138 235.998 384.172 237.398 379.208L238.972 381.282C239.277 381.684 239.747 381.748 240.149 381.444L253.464 371.337C253.731 371.134 253.881 370.915 253.863 370.613C253.777 370.361 253.692 370.11 253.473 369.96L247.927 366.682ZM229.12 368.302C231.049 370.845 231.689 374.05 230.615 377.08C229.988 379.032 228.237 381.31 225.952 381.357C224.743 381.431 223.815 380.765 223.037 379.879C221.177 377.705 220.486 374.433 220.637 371.576C220.87 368.131 222.364 365.098 224.904 362.748L229.12 368.302Z" fill="#FFF9F3"/>
<path d="M276.634 352.38C276.653 352.682 276.872 352.832 277.158 352.931C277.445 353.03 277.696 352.945 277.897 352.793L293.152 341.214C293.42 341.01 293.57 340.791 293.484 340.54C293.466 340.237 293.38 339.986 293.094 339.887L287.615 336.558L273.192 317.556C268.723 311.668 262.384 310.679 256.562 315.098C254.103 316.859 252.117 319.105 250.839 321.867C249.861 324.191 249.169 326.615 248.478 329.038L245.837 325.559C245.684 325.358 245.465 325.208 245.163 325.226C244.927 325.194 244.676 325.28 244.526 325.499L233.688 339.841C233.538 340.061 233.439 340.347 233.524 340.598C233.61 340.85 233.762 341.051 234.048 341.15L238.83 343.004L253.812 362.742L255.424 368.479C255.443 368.781 255.662 368.931 255.948 369.03C256.234 369.129 256.486 369.044 256.686 368.891L271.942 357.312C272.209 357.109 272.359 356.89 272.341 356.588C272.322 356.285 272.17 356.085 271.951 355.935L266.405 352.657L253.556 335.729C253.95 334.164 254.462 332.616 255.076 331.201C255.673 329.904 257.068 327.157 258.73 326.845C259.838 326.637 260.987 327.874 261.596 328.677L274.902 346.207L276.634 352.38Z" fill="#FFF9F3"/>
<path d="M307.367 285.183C307.215 284.983 306.996 284.833 306.76 284.801C300.153 284.015 293.769 286.858 288.55 290.819C277.911 298.894 274.003 311.667 282.535 322.908C291.118 334.216 304.405 333.938 315.11 325.812C320.865 321.445 325.601 315.319 326.012 307.942C326.01 307.522 325.756 307.187 325.352 307.072C324.948 306.957 324.496 307.194 324.33 307.531C323.07 310.596 320.918 313.179 318.309 315.16C317.506 315.769 316.719 316.261 315.814 316.736C308.345 320.929 300.335 318.572 294.456 312.911C292.074 310.606 289.922 307.494 288.846 304.409C288.163 302.396 287.659 299.51 289.161 297.737C291.396 294.986 296.173 296 299.035 296.992C300.568 297.621 302.033 298.302 303.416 299.15C303.702 299.25 303.988 299.349 304.189 299.196C304.507 299.06 304.657 298.841 304.689 298.605L307.455 285.855C307.554 285.569 307.52 285.384 307.367 285.183Z" fill="#FFF9F3"/>
<path d="M351.683 295.417C351.701 295.72 351.921 295.87 352.207 295.969C352.493 296.068 352.745 295.982 352.945 295.83L368.201 284.251C368.468 284.048 368.618 283.829 368.533 283.577C368.514 283.275 368.429 283.023 368.21 282.873L362.663 279.596L348.24 260.593C343.771 254.705 337.432 253.717 331.611 258.135C329.151 259.896 327.165 262.142 325.887 264.905C324.909 267.229 324.218 269.652 323.526 272.075L310.627 255.08C310.474 254.88 310.255 254.73 309.953 254.748C309.717 254.716 309.466 254.801 309.316 255.021L298.478 269.363C298.328 269.582 298.229 269.869 298.314 270.12C298.4 270.372 298.552 270.572 298.838 270.671L303.671 272.593L328.86 305.78L330.473 311.516C330.491 311.818 330.71 311.968 330.997 312.068C331.283 312.167 331.534 312.081 331.735 311.929L346.99 300.35C347.258 300.147 347.408 299.927 347.389 299.625C347.371 299.323 347.218 299.122 346.999 298.972L341.453 295.694L328.604 278.766C328.999 277.202 329.511 275.653 330.124 274.238C330.721 272.941 332.117 270.195 333.778 269.883C334.886 269.675 336.035 270.912 336.645 271.714L349.951 289.245L351.683 295.417Z" fill="#FFF9F3"/>
<path d="M390.224 268.8C400.997 260.624 404.972 247.799 396.389 236.492C387.807 225.184 374.369 225.681 363.664 233.807C353.025 241.882 349.117 254.655 357.649 265.896C366.231 277.204 379.519 276.926 390.224 268.8ZM371.49 239.255C375.393 240.09 379.286 242.302 382.358 244.821C385.364 247.391 388.323 250.734 389.856 254.421C390.759 256.584 391.466 259.738 389.747 261.781C388.028 263.823 384.92 263.757 382.531 263.25C378.629 262.416 374.735 260.204 371.663 257.684C368.709 255.181 365.699 251.771 364.166 248.084C363.263 245.922 362.556 242.768 364.275 240.725C365.993 238.682 369.152 238.815 371.49 239.255Z" fill="#FFF9F3"/>
<path d="M421.608 224.205L421.475 224.306C417.661 227.201 416.986 232.564 419.83 236.311C422.674 240.058 428.021 240.851 431.835 237.956L431.902 237.905L431.968 237.854C435.715 235.01 436.457 229.596 433.613 225.849C430.769 222.102 425.355 221.361 421.608 224.205ZM416.085 180.942C415.21 180.762 414.386 180.649 413.546 180.654C406.909 180.524 400.363 184.544 395.278 188.403C388.387 193.634 383.36 201.878 380.18 209.776C379.998 210.231 380.169 210.734 380.623 210.916L392.818 216.423C393.105 216.523 393.34 216.555 393.608 216.352C393.808 216.199 393.958 215.98 394.057 215.694C394.891 208.734 397.333 200.975 402.258 195.655C403.661 194.168 405.551 192.628 407.512 191.878C408.703 191.501 410.18 191.224 411.276 191.974C412.878 192.973 412.841 195.426 412.616 197.073C412.148 200.487 411.226 203.718 409.833 206.884C408.606 209.714 407.109 212.326 405.612 214.939C405.446 215.276 405.397 215.629 405.651 215.963L412.253 224.662C412.507 224.996 412.978 225.061 413.296 224.924L427.058 219.436C427.376 219.3 427.526 219.08 427.558 218.845C427.658 218.559 427.572 218.307 427.42 218.106L422.392 211.482C424.454 207.808 426.281 204.102 427.383 199.996C428.517 195.655 428.122 191.104 425.58 187.339C423.394 184.042 419.936 181.71 416.085 180.942Z" fill="#FFF9F3"/>
</svg>
