<svg width="229" height="23" viewBox="0 0 229 23" fill="none" xmlns="http://www.w3.org/2000/svg">
<g opacity="0.3">
<path d="M223.894 5.25428C222.825 5.25428 221.953 5.52135 221.275 6.05536C220.597 6.58965 220.139 7.36685 219.9 8.3868C219.629 7.38257 219.143 6.60946 218.442 6.0673C217.74 5.52558 216.863 5.25428 215.811 5.25428C214.775 5.25428 213.918 5.54946 213.24 6.13909C212.563 6.72901 212.112 7.56591 211.889 8.64994L211.961 5.56519H209.737V17.4978H211.961V11.3521C211.961 9.96507 212.232 8.90507 212.774 8.17156C213.316 7.43849 214.089 7.07167 215.094 7.07167C215.986 7.07167 216.676 7.36685 217.162 7.95648C217.648 8.5464 217.892 9.39116 217.892 10.4912V17.4978H220.115V11.3521C220.115 9.96507 220.379 8.90507 220.904 8.17156C221.431 7.43849 222.188 7.07167 223.176 7.07167C224.037 7.07167 224.703 7.36685 225.173 7.95648C225.643 8.5464 225.878 9.39116 225.878 10.4912V17.4978H228.102V10.1803C228.102 8.64994 227.723 7.44636 226.967 6.56941C226.209 5.6929 225.185 5.25428 223.894 5.25428ZM197.996 10.7064C198.044 9.57465 198.406 8.65402 199.084 7.94439C199.762 7.23535 200.61 6.88032 201.631 6.88032C202.316 6.88032 202.926 7.04778 203.46 7.38257C203.994 7.71722 204.413 8.17579 204.716 8.75755C205.018 9.33961 205.17 9.9891 205.17 10.7064H197.996ZM207.346 11.376C207.346 10.1803 207.099 9.11623 206.605 8.18365C206.111 7.25093 205.433 6.52164 204.572 5.9955C203.711 5.46951 202.739 5.20637 201.655 5.20637C200.507 5.20637 199.487 5.48145 198.594 6.03147C197.701 6.58135 197.004 7.33466 196.502 8.29127C195.999 9.24772 195.748 10.3237 195.748 11.5195C195.748 12.7472 196.007 13.8432 196.526 14.8075C197.043 15.7723 197.757 16.5214 198.666 17.0554C199.575 17.5892 200.603 17.8564 201.751 17.8564C202.691 17.8564 203.552 17.6849 204.333 17.3422C205.114 16.9997 205.748 16.5214 206.234 15.9075C206.72 15.294 207.003 14.6125 207.083 13.863L205.122 13.6955C205.01 14.413 204.636 15.0029 203.998 15.4651C203.361 15.9276 202.611 16.1586 201.751 16.1586C201.033 16.1586 200.391 15.9792 199.826 15.6205C199.26 15.2619 198.813 14.7758 198.486 14.1618C198.159 13.5483 197.996 12.8668 197.996 12.1172H207.298C207.33 11.9421 207.346 11.6951 207.346 11.376ZM192.807 17.6173C193.11 17.6173 193.477 17.5694 193.907 17.4739L194.194 15.6804C193.923 15.7603 193.652 15.7999 193.381 15.7999C192.791 15.7999 192.321 15.6288 191.97 15.2857C191.619 14.9431 191.444 14.4847 191.444 13.9108C191.444 13.4803 191.524 12.9624 191.683 12.3564L194.409 0.830367L192.281 0.399902L189.555 11.926C189.332 12.8985 189.22 13.6798 189.22 14.2694C189.22 15.2581 189.551 16.0629 190.213 16.6847C190.874 17.3064 191.739 17.6173 192.807 17.6173ZM180.827 15.9673C180.062 15.9673 179.376 15.7842 178.77 15.4172C178.164 15.0507 177.694 14.5326 177.359 13.863C177.025 13.1934 176.857 12.4363 176.857 11.5913C176.857 10.7146 177.025 9.9374 177.359 9.25967C177.694 8.58222 178.164 8.05201 178.77 7.66945C179.376 7.2869 180.062 7.09555 180.827 7.09555C181.608 7.09555 182.301 7.28311 182.907 7.65751C183.513 8.0322 183.983 8.56242 184.318 9.24773C184.653 9.93332 184.82 10.7146 184.82 11.5913C184.82 12.4363 184.649 13.1934 184.306 13.863C183.963 14.5326 183.489 15.0507 182.883 15.4172C182.277 15.7842 181.592 15.9673 180.827 15.9673ZM181.281 5.25428C180.34 5.25428 179.508 5.46165 178.782 5.87595C178.057 6.29068 177.463 6.88862 177.001 7.66945V0.758574H174.777V14.9629V17.4978H177.001V15.4413C177.463 16.2064 178.057 16.7922 178.782 17.1988C179.508 17.6054 180.34 17.8085 181.281 17.8085C182.413 17.8085 183.413 17.5455 184.282 17.0195C185.151 16.4934 185.828 15.7603 186.315 14.8194C186.801 13.879 187.044 12.803 187.044 11.5913C187.044 10.3638 186.801 9.26797 186.315 8.30321C185.828 7.33874 185.151 6.58965 184.282 6.05536C183.413 5.52135 182.413 5.25428 181.281 5.25428ZM166.24 15.9673C165.475 15.9673 164.793 15.7801 164.196 15.4053C163.598 15.0309 163.135 14.5049 162.809 13.827C162.482 13.1497 162.318 12.3804 162.318 11.5195C162.318 10.6585 162.486 9.88964 162.821 9.2119C163.155 8.53446 163.618 8.00832 164.208 7.63363C164.797 7.25923 165.475 7.07167 166.24 7.07167C167.005 7.07167 167.683 7.25923 168.273 7.63363C168.862 8.00832 169.325 8.53446 169.66 9.2119C169.994 9.88964 170.162 10.6585 170.162 11.5195C170.162 12.3804 169.998 13.1497 169.672 13.827C169.345 14.5049 168.883 15.0309 168.285 15.4053C167.687 15.7801 167.005 15.9673 166.24 15.9673ZM166.24 17.8564C167.404 17.8564 168.456 17.5814 169.397 17.0315C170.337 16.4815 171.074 15.7244 171.609 14.7597C172.143 13.7953 172.41 12.7152 172.41 11.5195C172.41 10.3237 172.143 9.24772 171.609 8.29127C171.074 7.33466 170.337 6.58135 169.397 6.03147C168.456 5.48145 167.404 5.20637 166.24 5.20637C165.076 5.20637 164.024 5.47767 163.084 6.01953C162.143 6.56154 161.406 7.31486 160.872 8.27918C160.337 9.24394 160.071 10.3237 160.071 11.5195C160.071 12.7152 160.337 13.7953 160.872 14.7597C161.406 15.7244 162.139 16.4815 163.072 17.0315C164.004 17.5814 165.06 17.8564 166.24 17.8564ZM152.897 5.56519V17.4978H155.121V11.8065C155.121 10.4038 155.44 9.33554 156.077 8.60203C156.715 7.86896 157.576 7.50213 158.66 7.50213C159.027 7.50213 159.369 7.53417 159.688 7.59766V5.51727C159.433 5.45378 159.178 5.4216 158.923 5.4216C157.934 5.4216 157.102 5.72872 156.424 6.34224C155.746 6.95619 155.304 7.80503 155.097 8.88905H155.025L155.121 5.56519H152.897ZM144.264 15.9673C143.499 15.9673 142.814 15.7842 142.208 15.4172C141.602 15.0507 141.132 14.5326 140.797 13.863C140.462 13.1934 140.295 12.4363 140.295 11.5913C140.295 10.7146 140.462 9.9374 140.797 9.25967C141.132 8.58222 141.602 8.05201 142.208 7.66945C142.814 7.2869 143.499 7.09555 144.264 7.09555C145.045 7.09555 145.739 7.28311 146.345 7.65751C146.951 8.0322 147.421 8.56242 147.756 9.24773C148.091 9.93332 148.258 10.7146 148.258 11.5913C148.258 12.4363 148.086 13.1934 147.744 13.863C147.401 14.5326 146.927 15.0507 146.321 15.4172C145.715 15.7842 145.03 15.9673 144.264 15.9673ZM144.719 5.25428C143.778 5.25428 142.945 5.46165 142.22 5.87595C141.494 6.29068 140.901 6.88862 140.438 7.66945V5.56519H138.215V8.09992V22.0412H140.438V15.4413C140.901 16.2064 141.494 16.7922 142.22 17.1988C142.945 17.6054 143.778 17.8085 144.719 17.8085C145.851 17.8085 146.851 17.5455 147.72 17.0195C148.589 16.4934 149.266 15.7603 149.752 14.8194C150.239 13.879 150.482 12.803 150.482 11.5913C150.482 10.3638 150.239 9.26797 149.752 8.30321C149.266 7.33874 148.589 6.58965 147.72 6.05536C146.851 5.52135 145.851 5.25428 144.719 5.25428ZM125.159 16.2543C124.441 16.2543 123.867 16.0789 123.437 15.7281C123.006 15.3776 122.791 14.9073 122.791 14.3173C122.791 13.616 123.086 13.054 123.676 12.6314C124.265 12.2091 125.111 11.9499 126.211 11.8542L128.387 11.6629V12.6673C128.387 13.7194 128.088 14.5803 127.49 15.2499C126.892 15.9195 126.115 16.2543 125.159 16.2543ZM124.369 17.713C125.437 17.713 126.33 17.4379 127.048 16.8879C127.765 16.3379 128.219 15.6007 128.411 14.676H128.482C128.482 15.9994 128.562 16.9399 128.722 17.4978H130.874C130.682 16.5412 130.587 15.4016 130.587 14.0782V9.9891C130.587 9.06468 130.372 8.23957 129.941 7.51407C129.511 6.78872 128.913 6.22268 128.148 5.81624C127.382 5.40966 126.513 5.20637 125.541 5.20637C124.585 5.20637 123.732 5.38985 122.982 5.75639C122.233 6.12336 121.635 6.6412 121.189 7.31078C120.743 7.98036 120.503 8.74561 120.472 9.6064L122.552 9.67819C122.6 8.88119 122.899 8.23549 123.449 7.74124C123.999 7.24729 124.696 6.99987 125.541 6.99987C126.37 6.99987 127.048 7.27117 127.574 7.81289C128.1 8.35505 128.363 9.04851 128.363 9.89342V10.4434L125.948 10.6585C124.226 10.8021 122.902 11.2049 121.978 11.8662C121.053 12.5279 120.591 13.4008 120.591 14.4847C120.591 15.4733 120.93 16.2584 121.607 16.8401C122.285 17.4222 123.205 17.713 124.369 17.713ZM107.152 15.9673C106.387 15.9673 105.702 15.7842 105.096 15.4172C104.49 15.0507 104.02 14.5326 103.685 13.863C103.35 13.1934 103.183 12.4363 103.183 11.5913C103.183 10.7146 103.35 9.93332 103.685 9.24773C104.02 8.56242 104.486 8.0322 105.084 7.65751C105.682 7.28311 106.371 7.09555 107.152 7.09555C107.918 7.09555 108.603 7.2869 109.209 7.66945C109.815 8.05201 110.285 8.58222 110.62 9.25967C110.955 9.9374 111.122 10.7146 111.122 11.5913C111.122 12.4363 110.955 13.1934 110.62 13.863C110.285 14.5326 109.815 15.0507 109.209 15.4172C108.603 15.7842 107.918 15.9673 107.152 15.9673ZM110.979 0.758574V7.66945C110.516 6.88862 109.922 6.29068 109.197 5.87595C108.471 5.46165 107.646 5.25428 106.722 5.25428C105.59 5.25428 104.586 5.52135 103.709 6.05536C102.832 6.58965 102.151 7.33874 101.664 8.30321C101.178 9.26797 100.935 10.3638 100.935 11.5913C100.935 12.803 101.178 13.879 101.664 14.8194C102.151 15.7603 102.832 16.4934 103.709 17.0195C104.586 17.5455 105.59 17.8085 106.722 17.8085C107.646 17.8085 108.471 17.6054 109.197 17.1988C109.922 16.7922 110.516 16.2064 110.979 15.4413V17.4978H113.203V14.9629V0.758574H110.979ZM93.5942 16.2543C92.8768 16.2543 92.3029 16.0789 91.8724 15.7281C91.442 15.3776 91.2267 14.9073 91.2267 14.3173C91.2267 13.616 91.5216 13.054 92.1116 12.6314C92.7012 12.2091 93.5464 11.9499 94.6463 11.8542L96.8225 11.6629V12.6673C96.8225 13.7194 96.5235 14.5803 95.9257 15.2499C95.3278 15.9195 94.5506 16.2543 93.5942 16.2543ZM92.805 17.713C93.8729 17.713 94.7658 17.4379 95.4833 16.8879C96.2007 16.3379 96.655 15.6007 96.8464 14.676H96.918C96.918 15.9994 96.9977 16.9399 97.1573 17.4978H99.3093C99.1181 16.5412 99.0224 15.4016 99.0224 14.0782V9.9891C99.0224 9.06468 98.8072 8.23957 98.3767 7.51407C97.9463 6.78872 97.3485 6.22268 96.5832 5.81624C95.8181 5.40966 94.949 5.20637 93.9767 5.20637C93.0202 5.20637 92.1672 5.38985 91.4181 5.75639C90.6686 6.12336 90.0708 6.6412 89.6246 7.31078C89.1781 7.98036 88.939 8.74561 88.9072 9.6064L90.9876 9.67819C91.0355 8.88119 91.3344 8.23549 91.8844 7.74124C92.4344 7.24729 93.1317 6.99987 93.9767 6.99987C94.8055 6.99987 95.4833 7.27117 96.0093 7.81289C96.5355 8.35505 96.7985 9.04851 96.7985 9.89342V10.4434L94.3833 10.6585C92.6616 10.8021 91.3381 11.2049 90.4137 11.8662C89.489 12.5279 89.0268 13.4008 89.0268 14.4847C89.0268 15.4733 89.3652 16.2584 90.0431 16.8401C90.7206 17.4222 91.6412 17.713 92.805 17.713ZM82.2358 5.25428C81.2314 5.25428 80.3945 5.52135 79.7249 6.05536C79.0553 6.58965 78.5927 7.35068 78.338 8.33903V0.758574H76.114V17.4978H78.338V11.3521C78.338 9.96507 78.6089 8.90507 79.151 8.17156C79.6927 7.43849 80.474 7.07167 81.4944 7.07167C82.4031 7.07167 83.1044 7.36685 83.5988 7.95648C84.0928 8.5464 84.34 9.39116 84.34 10.4912V17.4978H86.564V10.1803C86.564 8.64994 86.1774 7.44636 85.4043 6.56941C84.6309 5.6929 83.5749 5.25428 82.2358 5.25428ZM66.2623 5.56519V11.7108C66.2623 13.0977 65.9993 14.1582 65.4731 14.8912C64.947 15.6246 64.1898 15.9911 63.2014 15.9911C62.3406 15.9911 61.6747 15.6964 61.2046 15.1065C60.7342 14.5168 60.4992 13.6716 60.4992 12.5716V5.56519H58.2754V12.8825C58.2754 14.413 58.6498 15.6169 59.3993 16.4934C60.1484 17.3703 61.1766 17.8085 62.4841 17.8085C63.4405 17.8085 64.2416 17.5892 64.8873 17.151C65.533 16.7127 66.0071 16.0711 66.31 15.226L66.2623 17.4978H68.4862V5.56519H66.2623ZM32.7363 22.3999C33.8203 22.3999 34.7689 22.0651 35.5819 21.3955C36.3949 20.726 37.0802 19.7134 37.6384 18.3585L43.0428 5.56519H40.7711L37.0645 14.676L33.0472 5.56519H30.7037L35.8928 17.163L35.3428 18.3826C34.992 19.1477 34.5813 19.6858 34.1113 19.9967C33.6409 20.3076 33.0711 20.463 32.4015 20.463C32.0824 20.463 31.7476 20.4229 31.3971 20.3434V22.2565C31.7159 22.3521 32.1624 22.3999 32.7363 22.3999ZM21.426 18.5738V19.9607C22.2869 19.9607 23.02 19.6697 23.626 19.088C24.2317 18.5058 24.5347 17.8004 24.5347 16.9716C24.5347 16.2703 24.3591 15.7005 24.0086 15.2619C23.6578 14.8235 23.1956 14.6042 22.6217 14.6042C22.159 14.6042 21.7765 14.744 21.4739 15.0227C21.1708 15.3019 21.0195 15.6563 21.0195 16.0868C21.0195 16.5015 21.151 16.8483 21.414 17.127C21.677 17.4062 21.9999 17.5455 22.3826 17.5455C22.6373 17.5455 22.8608 17.4978 23.0521 17.4021C23.0521 17.7369 22.9004 18.0156 22.5978 18.239C22.2947 18.4621 21.9042 18.5738 21.426 18.5738ZM18.8914 8.33903L0 11.6629L0.287025 13.2651L19.1784 9.94119L18.8914 8.33903Z" fill="black"/>
<path d="M50.5992 15.9673C51.5718 15.9673 52.345 15.6647 52.9189 15.0586C53.4928 14.4529 53.7796 13.6399 53.7796 12.6195C53.7796 11.6791 53.5686 10.7783 53.146 9.91733C52.7237 9.05641 52.1379 8.36717 51.3883 7.84889C50.6393 7.33105 49.8101 7.0717 48.9014 7.0717C47.9132 7.0717 47.1319 7.37882 46.558 7.99233C45.9841 8.60628 45.6971 9.41522 45.6971 10.4194C45.6971 11.3603 45.9085 12.2571 46.3308 13.1097C46.7534 13.9628 47.3393 14.6522 48.0884 15.1781C48.8379 15.7043 49.6749 15.9673 50.5992 15.9673ZM50.7906 17.8565C49.4836 17.8565 48.2678 17.5135 47.1438 16.8282C46.0199 16.1429 45.1232 15.2223 44.4536 14.0663C43.784 12.9106 43.4492 11.6629 43.4492 10.3239C43.4492 9.31955 43.6685 8.43095 44.1069 7.65754C44.5455 6.88457 45.159 6.28256 45.9481 5.85209C46.7373 5.42163 47.6502 5.20654 48.6861 5.20654C49.9936 5.20654 51.2091 5.54949 52.333 6.23479C53.4569 6.92039 54.3535 7.84103 55.0231 8.9967C55.6927 10.1528 56.0275 11.3999 56.0275 12.7391C56.0275 13.7435 55.8086 14.6323 55.3699 15.4053C54.9317 16.1789 54.3177 16.7804 53.5286 17.2108C52.7394 17.6412 51.827 17.8565 50.7906 17.8565Z" fill="black"/>
</g>
</svg>
