<svg width="53" height="53" viewBox="0 0 53 53" fill="none" xmlns="http://www.w3.org/2000/svg">
  <path d="M26.5002 0.109375C11.8647 0.109375 0 11.9741 0 26.6095C0 39.7359 9.55383 50.6066 22.0805 52.7117V32.1382H15.6879V24.7346H22.0805V19.2755C22.0805 12.9414 25.9492 9.48965 31.6005 9.48965C34.3071 9.48965 36.6331 9.69134 37.3084 9.78017V16.401L33.3888 16.4029C30.3161 16.4029 29.7236 17.8628 29.7236 20.0058V24.7308H37.0555L36.0992 32.1344H29.7236V52.8887C42.8351 51.2929 53 40.1452 53 26.6019C53 11.9741 41.1353 0.109375 26.5002 0.109375Z" fill="currentColor" />
</svg>
