<svg width="100%" height="100%" viewBox="0 0 23 20" fill="none" xmlns="http://www.w3.org/2000/svg" aria-label="Heart">
<path d="M3.27271 7.01972C3.27271 4.5486 5.25475 2.54544 7.69968 2.54544C8.9115 2.54544 10.0087 3.03827 10.8077 3.83583C11.104 4.13157 11.5869 4.13157 11.8832 3.83583C12.6821 3.03827 13.7793 2.54544 14.9912 2.54544C17.4361 2.54544 19.4182 4.5486 19.4182 7.01972C19.4182 11.6408 13.4964 15.8446 11.7966 16.9561C11.5218 17.1358 11.1691 17.1358 10.8943 16.9561C9.19443 15.8446 3.27271 11.6408 3.27271 7.01972Z" fill="#FF6464"/>
<path opacity="0.2" d="M0 6.15213C0 2.75435 2.72531 0 6.08709 0C7.75335 0 9.262 0.67764 10.3606 1.77429C10.768 2.18093 11.432 2.18093 11.8394 1.77429C12.938 0.67764 14.4466 0 16.1129 0C19.4747 0 22.2 2.75435 22.2 6.15213C22.2 12.5061 14.0576 18.2864 11.7203 19.8147C11.3425 20.0618 10.8575 20.0618 10.4797 19.8147C8.14237 18.2863 0 12.5061 0 6.15213Z" fill="#FF6464"/>
</svg>
