<svg width="53" height="53" viewBox="0 0 53 53" fill="currentColor" xmlns="http://www.w3.org/2000/svg">
<g clip-path="url(#clip_instagram)">
<path d="M31.5723 26.499C31.5723 29.3004 29.3014 31.5713 26.5 31.5713C23.6986 31.5713 21.4277 29.3004 21.4277 26.499C21.4277 23.6976 23.6986 21.4268 26.5 21.4268C29.3014 21.4268 31.5723 23.6976 31.5723 26.499Z" fill="currentColor" />
<path d="M38.3629 17.5249C38.1191 16.8642 37.7301 16.2662 37.2246 15.7753C36.7337 15.2698 36.1361 14.8808 35.475 14.637C34.9388 14.4288 34.1333 14.1809 32.6497 14.1134C31.0448 14.0402 30.5636 14.0244 26.5006 14.0244C22.4372 14.0244 21.9561 14.0398 20.3516 14.113C18.868 14.1809 18.0621 14.4288 17.5263 14.637C16.8652 14.8808 16.2672 15.2698 15.7767 15.7753C15.2712 16.2662 14.8822 16.8638 14.638 17.5249C14.4297 18.0611 14.1819 18.867 14.1143 20.3506C14.0412 21.9551 14.0254 22.4363 14.0254 26.4997C14.0254 30.5627 14.0412 31.0438 14.1143 32.6487C14.1819 34.1323 14.4297 34.9378 14.638 35.474C14.8822 36.1351 15.2708 36.7327 15.7763 37.2236C16.2672 37.7291 16.8648 38.1181 17.5259 38.3619C18.0621 38.5706 18.868 38.8184 20.3516 38.886C21.9561 38.9591 22.4368 38.9745 26.5002 38.9745C30.564 38.9745 31.0452 38.9591 32.6493 38.886C34.1329 38.8184 34.9388 38.5706 35.475 38.3619C36.8021 37.85 37.851 36.8011 38.3629 35.474C38.5711 34.9378 38.819 34.1323 38.8869 32.6487C38.9601 31.0438 38.9755 30.5627 38.9755 26.4997C38.9755 22.4363 38.9601 21.9551 38.8869 20.3506C38.8194 18.867 38.5715 18.0611 38.3629 17.5249ZM26.5006 34.3131C22.1849 34.3131 18.6864 30.815 18.6864 26.4993C18.6864 22.1835 22.1849 18.6854 26.5006 18.6854C30.8159 18.6854 34.3145 22.1835 34.3145 26.4993C34.3145 30.815 30.8159 34.3131 26.5006 34.3131ZM34.6234 20.2026C33.6149 20.2026 32.7973 19.385 32.7973 18.3765C32.7973 17.368 33.6149 16.5504 34.6234 16.5504C35.6318 16.5504 36.4495 17.368 36.4495 18.3765C36.4491 19.385 35.6318 20.2026 34.6234 20.2026Z" fill="currentColor" />
<path d="M26.5 -0.000976562C11.8667 -0.000976562 0 11.8657 0 26.499C0 41.1323 11.8667 52.999 26.5 52.999C41.1333 52.999 53 41.1323 53 26.499C53 11.8657 41.1333 -0.000976562 26.5 -0.000976562ZM41.625 32.7726C41.5514 34.3925 41.2938 35.4984 40.9178 36.4664C40.1273 38.5105 38.5115 40.1263 36.4674 40.9168C35.4998 41.2929 34.3935 41.55 32.774 41.624C31.1513 41.698 30.6329 41.7158 26.5004 41.7158C22.3675 41.7158 21.8495 41.698 20.2264 41.624C18.6069 41.55 17.5006 41.2929 16.533 40.9168C15.5172 40.5347 14.5977 39.9358 13.8375 39.1615C13.0636 38.4017 12.4647 37.4818 12.0826 36.4664C11.7066 35.4988 11.449 34.3925 11.3754 32.773C11.3006 31.1499 11.2832 30.6316 11.2832 26.499C11.2832 22.3665 11.3006 21.8481 11.375 20.2254C11.4486 18.6056 11.7058 17.4996 12.0818 16.5316C12.4639 15.5163 13.0632 14.5963 13.8375 13.8366C14.5973 13.0622 15.5172 12.4634 16.5326 12.0812C17.5006 11.7052 18.6065 11.448 20.2264 11.374C21.8491 11.3 22.3675 11.2822 26.5 11.2822C30.6325 11.2822 31.1509 11.3 32.7736 11.3744C34.3935 11.448 35.4994 11.7052 36.4674 12.0808C37.4828 12.463 38.4027 13.0622 39.1629 13.8366C39.9368 14.5967 40.5361 15.5163 40.9178 16.5316C41.2942 17.4996 41.5514 18.6056 41.6254 20.2254C41.6994 21.8481 41.7168 22.3665 41.7168 26.499C41.7168 30.6316 41.6994 31.1499 41.625 32.7726Z" fill="currentColor" />
</g>
<defs>
<clipPath id="clip_instagram">
<rect width="53" height="53" fill="currentColor" transform="translate(0 -0.000976562)"/>
</clipPath>
</defs>
</svg>
